<?xml version="1.0" encoding="utf-8"?><svg width="48" height="24" viewBox="0 0 48 24" xmlns="http://www.w3.org/2000/svg" xmlns:xlink="http://www.w3.org/1999/xlink"><svg viewBox="0 0 24 24" width="24" height="24" id="check_box"><path fill="none" d="M0 0h24v24H0V0z"/><path fill="#00A1F1" d="M19 3H5c-1.1 0-2 .9-2 2v14c0 1.1.9 2 2 2h14c1.1 0 2-.9 2-2V5c0-1.1-.9-2-2-2zm-9 14l-5-5 1.4-1.4 3.6 3.6 7.6-7.6L19 8l-9 9z"/></svg><svg viewBox="0 0 24 24" width="24" height="24" id="check_box_outline" x="24"><path fill="#BDBDBD" d="M19 5v14H5V5h14m0-2H5c-1.1 0-2 .9-2 2v14c0 1.1.9 2 2 2h14c1.1 0 2-.9 2-2V5c0-1.1-.9-2-2-2z"/><path fill="none" d="M0 0h24v24H0V0z"/></svg></svg>