<?xml version="1.0" standalone="no"?>
<!DOCTYPE svg PUBLIC "-//W3C//DTD SVG 1.1//EN" "http://www.w3.org/Graphics/SVG/1.1/DTD/svg11.dtd" >
<svg>
<metadata>
Created by FontForge 20090914 at Thu Jun 29 12:18:41 2017
 By www-data
&#194;&#169; 2015 Apple Inc. All rights reserved.
</metadata>
<defs>
<font id="SFUIText-Light" horiz-adv-x="0" >
  <font-face 
    font-family="SF UI Text"
    font-weight="300"
    font-stretch="normal"
    units-per-em="2048"
    panose-1="0 0 4 0 0 0 0 0 0 0"
    ascent="1638"
    descent="-410"
    x-height="1077"
    cap-height="1443"
    bbox="-561 -549 2661 2138"
    underline-thickness="50"
    underline-position="-25"
    unicode-range="U+0020-U+FB02"
  />
<missing-glyph horiz-adv-x="1293" 
d="M120 0v1365h1053v-1365h-1053zM501 313c0 -31.333 11.168 -57.001 33.501 -77.001s51.166 -30 86.499 -30c36.667 0 66.167 9.83301 88.5 29.5s33.5 45.5 33.5 77.5c0 32.667 -11.167 58.834 -33.5 78.501s-51.833 29.5 -88.5 29.5c-36 0 -65 -10 -87 -30
s-33 -46 -33 -78zM339.001 887.999l169 -0.000976562c0.666992 39.333 12.167 70.833 34.5 94.5s52.5 35.5 90.5 35.5c36 0 65 -10 87 -30s33 -46.667 33 -80c0 -25.333 -6.83301 -47.166 -20.5 -65.499s-41.167 -42.5 -82.5 -72.5c-46 -32 -78 -65.333 -96 -100
s-25.333 -75 -22 -121l1 -18h166v15c0 32 6.33301 57.333 19 76s42 44.334 88 77.001c48.667 34.667 83 68.667 103 102s30 72 30 116c0 75.333 -27 135.833 -81 181.5s-125.667 68.5 -215 68.5c-95.333 0 -170.5 -25.333 -225.5 -76s-81.167 -118.334 -78.5 -203.001z" />
    <glyph glyph-name=".notdef" horiz-adv-x="1293" 
d="M120 0v1365h1053v-1365h-1053zM501 313c0 -31.333 11.168 -57.001 33.501 -77.001s51.166 -30 86.499 -30c36.667 0 66.167 9.83301 88.5 29.5s33.5 45.5 33.5 77.5c0 32.667 -11.167 58.834 -33.5 78.501s-51.833 29.5 -88.5 29.5c-36 0 -65 -10 -87 -30
s-33 -46 -33 -78zM339.001 887.999l169 -0.000976562c0.666992 39.333 12.167 70.833 34.5 94.5s52.5 35.5 90.5 35.5c36 0 65 -10 87 -30s33 -46.667 33 -80c0 -25.333 -6.83301 -47.166 -20.5 -65.499s-41.167 -42.5 -82.5 -72.5c-46 -32 -78 -65.333 -96 -100
s-25.333 -75 -22 -121l1 -18h166v15c0 32 6.33301 57.333 19 76s42 44.334 88 77.001c48.667 34.667 83 68.667 103 102s30 72 30 116c0 75.333 -27 135.833 -81 181.5s-125.667 68.5 -215 68.5c-95.333 0 -170.5 -25.333 -225.5 -76s-81.167 -118.334 -78.5 -203.001z" />
    <glyph glyph-name="space" unicode=" " horiz-adv-x="554" 
 />
    <glyph glyph-name="exclam" unicode="!" horiz-adv-x="617" 
d="M233 1444h150l-11 -987h-127zM192 101c0 34 11.167 62.167 33.5 84.5s50.166 33.5 83.499 33.5s61 -11.167 83 -33.5s33 -50.5 33 -84.5c0 -33.333 -11 -61.166 -33 -83.499s-49.667 -33.5 -83 -33.5s-61.166 11.167 -83.499 33.5s-33.5 50.166 -33.5 83.499z" />
    <glyph glyph-name="quotedbl" unicode="&#x22;" horiz-adv-x="802" 
d="M296 935h-123v508h123v-508zM629 935h-123v508h123v-508z" />
    <glyph glyph-name="numbersign" unicode="#" horiz-adv-x="1316" 
d="M1211 918h-238l-77 -381h234l-23 -111h-233l-88 -426h-112l88 426h-339l-88 -426h-111l87 426h-229l23 111h230l76 381h-225l22 110h226l86 417h111l-85 -417h339l86 417h112l-87 -417h238zM521 919l-76 -384h341l77 384h-342z" />
    <glyph glyph-name="dollar" unicode="$" horiz-adv-x="1321" 
d="M714 -150l-104 0.000976562v141c-135.333 8.66699 -245.5 49.834 -330.5 123.501s-128.167 165.834 -129.5 276.501h130c5.33301 -76 38.166 -139.667 98.499 -191s137.5 -81.333 231.5 -90v579l-55 15c-126 32 -219.167 78.333 -279.5 139s-90.5 138 -90.5 232
c0 107.333 38.667 196.166 116 266.499s180.333 110.166 309 119.499v138h104v-137c124 -9.33301 225.833 -49.333 305.5 -120s120.834 -158 123.501 -262h-130c-2.66699 69.333 -32 128.666 -88 177.999s-126.333 77.666 -211 84.999v-544l59 -15
c140 -34.667 241.333 -82.667 304 -144s94 -143 94 -245c0 -114.667 -41.167 -208.167 -123.5 -280.5s-193.5 -113.166 -333.5 -122.499v-142zM1039 385.001c0 74.667 -25.333 134.001 -76 178.001s-133.667 79 -249 105v-560c98.667 4.66699 177.5 32.167 236.5 82.5
s88.5 115.166 88.5 194.499zM316 1082c0 -67.333 23.6689 -121.833 71.002 -163.5s121.666 -73.834 222.999 -96.501v521c-84.667 -4 -154.834 -30.667 -210.501 -80s-83.5 -109.666 -83.5 -180.999z" />
    <glyph glyph-name="percent" unicode="%" horiz-adv-x="1610" 
d="M1212 79c52 0 93.999 22.167 125.999 66.5s48 102.5 48 174.5c0 72.667 -15.667 130.5 -47 173.5s-73.666 64.5 -126.999 64.5s-96 -21.667 -128 -65s-48 -101 -48 -173c0 -72.667 16.167 -131 48.5 -175s74.833 -66 127.5 -66zM1212 -21
c-88 0 -159.833 31.668 -215.5 95.001s-83.5 145.333 -83.5 246c0 99.333 27.833 180.666 83.5 243.999s127.5 95 215.5 95c87.333 0 158.666 -31.5 213.999 -94.5s83 -144.5 83 -244.5c0 -100.667 -27.667 -182.667 -83 -246s-126.666 -95 -213.999 -95zM398.999 784.001
c-87.333 0 -158.833 31.668 -214.5 95.001s-83.5 145.333 -83.5 246c0 99.333 27.833 180.666 83.5 243.999s127.167 95 214.5 95s158.833 -31.5 214.5 -94.5s83.5 -144.5 83.5 -244.5c0 -100.667 -27.833 -182.667 -83.5 -246s-127.167 -95 -214.5 -95zM346.999 0.00195312
h-143l551 746l514 697h141l-557 -756zM398.999 885.002c52 0 93.999 22.001 125.999 66.001s48 102 48 174c0 72.667 -15.667 130.667 -47 174s-73.666 65 -126.999 65c-52.667 0 -95 -21.833 -127 -65.5s-48 -101.5 -48 -173.5c0 -72.667 16 -130.834 48 -174.501
s74.333 -65.5 127 -65.5z" />
    <glyph glyph-name="ampersand" unicode="&#x26;" horiz-adv-x="1472" 
d="M1233 0l-157.999 168c-62 -60.667 -135.167 -108 -219.5 -142s-170.833 -51 -259.5 -51c-139.333 0 -253.166 37.5 -341.499 112.5s-132.5 171.5 -132.5 289.5c0 162 93.667 292.667 281 392c3.33301 2 16.166 8.66699 38.499 20s35.166 18 38.499 20
c-73.333 75.333 -124.5 139 -153.5 191s-43.5 104.667 -43.5 158c0 89.333 34.167 164 102.5 224s153.5 90 255.5 90s186.5 -29.667 253.5 -89s100.5 -134.333 100.5 -225c0 -72.667 -25.5 -138.667 -76.5 -198s-134.833 -119 -251.5 -179l400 -427
c61.333 108.667 92 243 92 403v46h128v-46c0 -199.333 -43.333 -364.333 -130 -495l248 -262h-172zM482.001 686c-74 -38.667 -129.832 -83.667 -167.499 -135s-56.5 -106.666 -56.5 -165.999c0 -85.333 32.333 -155.5 97 -210.5s148.667 -82.5 252 -82.5
c71.333 0 142.166 15 212.499 45s127.833 69.333 172.5 118l-436 469c-2 -0.666992 -8.33301 -3.83398 -19 -9.50098l-33.5 -17.5zM592.002 859c98 48.667 168.166 96.167 210.499 142.5s63.5 96.833 63.5 151.5c0 60.667 -21.167 110.667 -63.5 150s-96.166 59 -161.499 59
c-64 0 -117.833 -20.167 -161.5 -60.5s-65.5 -90.5 -65.5 -150.5c0 -42.667 12.833 -85 38.5 -127s72.167 -97 139.5 -165z" />
    <glyph glyph-name="quotesingle" unicode="'" horiz-adv-x="469" 
d="M296 935h-123v508h123v-508z" />
    <glyph glyph-name="parenleft" unicode="(" horiz-adv-x="711" 
d="M577 -268h-118.999c-86.667 108.667 -153.334 238.167 -200.001 388.5s-70 309.833 -70 478.5c0 168 22.333 320.167 67 456.5s114.667 265.166 210 386.499h114c-76.667 -94 -138.5 -218.167 -185.5 -372.5s-70.5 -311.166 -70.5 -470.499
c0 -304.667 84.667 -593.667 254 -867z" />
    <glyph glyph-name="parenright" unicode=")" horiz-adv-x="711" 
d="M133 -268c169.333 273.333 254.001 562.332 254.001 866.999c0 160 -23.333 317 -70 471s-108.334 278 -185.001 372h115c94.667 -121.333 164.167 -250 208.5 -386s66.5 -288.333 66.5 -457c0 -168 -23.333 -327.167 -70 -477.5s-113 -280.166 -199 -389.499h-120z" />
    <glyph glyph-name="asterisk" unicode="*" horiz-adv-x="1052" 
d="M609 1076l261 -137l-53 -91l-249 157l11 -294h-106l11 294l-249 -157l-53 91l261 137l-261 138l53 92l249 -160l-11 297h106l-11 -297l249 160l53 -92z" />
    <glyph glyph-name="plus" unicode="+" horiz-adv-x="1321" 
d="M718 523v-456h-115v456h-444v114h444v448h115v-448h443v-114h-443z" />
    <glyph glyph-name="comma" unicode="," horiz-adv-x="607" 
d="M248 -339h-115l85 531h162z" />
    <glyph glyph-name="hyphen" unicode="-" horiz-adv-x="975" 
d="M815 520h-656v124h656v-124z" />
    <glyph glyph-name="period" unicode="." horiz-adv-x="593" 
d="M297 -10c-30.667 0 -56.834 10.833 -78.501 32.5s-32.5 47.5 -32.5 77.5c0 30.667 10.833 56.667 32.5 78s47.834 32 78.501 32c30 0 55.833 -10.667 77.5 -32s32.5 -47.333 32.5 -78c0 -30 -10.833 -55.833 -32.5 -77.5s-47.5 -32.5 -77.5 -32.5z" />
    <glyph glyph-name="slash" unicode="/" horiz-adv-x="695" 
d="M184 -327h-117l443 1770h118z" />
    <glyph glyph-name="zero" unicode="0" horiz-adv-x="1282" 
d="M642 -30c-160.667 0 -285.834 66.166 -375.501 198.499s-134.5 316.833 -134.5 553.5c0 234.667 45.167 418.5 135.5 551.5s215.166 199.5 374.499 199.5c158.667 0 282.834 -66.667 372.501 -200s134.5 -317.666 134.5 -552.999c0 -236 -44.667 -420 -134 -552
s-213.666 -198 -372.999 -198zM642 89.999c117.333 0 208.335 55.332 273.002 165.999s97 266 97 466c0 198.667 -32.5 353.334 -97.5 464.001s-155.833 166 -272.5 166s-207.834 -55.5 -273.501 -166.5s-98.5 -265.5 -98.5 -463.5c0 -200 32.667 -355.333 98 -466
s156.666 -166 273.999 -166z" />
    <glyph glyph-name="one" unicode="1" horiz-adv-x="913" 
d="M503 0l-0.000976562 1293h-13c-13.333 -8 -76.166 -51.167 -188.499 -129.5l-187.5 -130.5v145l96 67l178.5 123.5c59 40.333 97.167 65.833 114.5 76.5h136v-1445h-136z" />
    <glyph glyph-name="two" unicode="2" horiz-adv-x="1222" 
d="M152 1045c0.666992 82 20.501 155.67 59.501 221.003s92.833 116.166 161.5 152.499s146 54.5 232 54.5c126.667 0 233 -38.5 319 -115.5s129 -172.167 129 -285.5c0 -74.667 -21.333 -148.334 -64 -221.001s-123.334 -172.334 -242.001 -299.001l-390 -416v-12h732v-124
h-929v96l504 545c100.667 108 167.834 190.5 201.501 247.5s50.5 116.5 50.5 178.5c0 80.667 -30.167 148.5 -90.5 203.5s-134.833 82.5 -223.5 82.5c-92.667 0 -168.334 -28.5 -227.001 -85.5s-88.667 -131.167 -90 -222.5v-1h-133v1z" />
    <glyph glyph-name="three" unicode="3" horiz-adv-x="1260" 
d="M443 686l-0.00195312 117.998h169c93.333 0 169.166 25.833 227.499 77.5s87.5 118.834 87.5 201.501c0 78.667 -29 143.334 -87 194.001s-131.667 76 -221 76s-163.166 -24.5 -221.499 -73.5s-90.833 -114.5 -97.5 -196.5h-133c8 118 53.5 212.5 136.5 283.5
s189.833 106.5 320.5 106.5c122.667 0 227 -36.333 313 -109s129 -161 129 -265c0 -87.333 -23.667 -160.833 -71 -220.5s-113 -98.834 -197 -117.501v-13c103.333 -11.333 184.833 -49.166 244.5 -113.499s89.5 -145.833 89.5 -244.5
c0 -118.667 -48.333 -218.334 -145 -299.001s-215.667 -121 -357 -121c-139.333 0 -255.166 37.333 -347.499 112s-140.833 170.334 -145.5 287.001h132c6 -81.333 42.833 -148.166 110.5 -200.499s150.834 -78.5 249.501 -78.5c104.667 0 191.167 28.667 259.5 86
s102.5 129.666 102.5 216.999c0 90.667 -33.333 162.167 -100 214.5s-157.667 78.5 -273 78.5h-175z" />
    <glyph glyph-name="four" unicode="4" horiz-adv-x="1312" 
d="M844 0l-0.000976562 326.001h-725v125c148.667 251.333 369.334 582.666 662.001 993.999h196v-996h216v-123h-216v-326h-133zM261.999 457.001v-8.99902h582v866h-9c-128 -174.667 -234 -325.334 -318 -452.001s-169 -261.667 -255 -405z" />
    <glyph glyph-name="five" unicode="5" horiz-adv-x="1256" 
d="M629 -30c-131.333 0 -241.832 37.833 -331.499 113.5s-138.167 172.167 -145.5 289.5h134c7.33301 -80.667 43.666 -147.834 108.999 -201.501s143.666 -80.5 234.999 -80.5c105.333 0 192 34 260 102s102 155 102 261s-33.833 193 -101.5 261s-153.5 102 -257.5 102
c-70.667 0 -135.5 -16.167 -194.5 -48.5s-103.833 -76.166 -134.5 -131.499h-130l78 806h787v-123h-679l-48 -526h13c34.667 45.333 80.667 80.333 138 105s121.333 37 192 37c138.667 0 252.334 -44.833 341.001 -134.5s133 -204.167 133 -343.5
c0 -142.667 -46.667 -259.667 -140 -351s-213.333 -137 -360 -137z" />
    <glyph glyph-name="six" unicode="6" horiz-adv-x="1288" 
d="M665 -29c-97.333 0 -183.502 23.502 -258.502 70.502s-135.167 115.167 -180.5 204.5c-64 113.333 -96 261.666 -96 444.999c0 245.333 48 437 144 575s229.667 207 401 207c119.333 0 220.833 -33.333 304.5 -100s135.834 -156.334 156.501 -269.001h-140
c-18 75.333 -56.167 135.166 -114.5 179.499s-127.833 66.5 -208.5 66.5c-129.333 0 -229.666 -58.167 -300.999 -174.5s-107.666 -281.5 -108.999 -495.5h12c31.333 81.333 84.166 146 158.499 194s158.5 72 252.5 72c136.667 0 250.167 -45.5 340.5 -136.5
s135.5 -205.5 135.5 -343.5c0 -143.333 -46.833 -261.666 -140.5 -354.999s-212.5 -140 -356.5 -140zM662.998 92.002c102.667 0 188.501 35.3311 257.501 105.998s103.5 158.334 103.5 263.001c0 106.667 -33.833 194.334 -101.5 263.001s-153.834 103 -258.501 103
c-103.333 0 -190 -34.167 -260 -102.5s-105 -152.833 -105 -253.5c0 -107.333 34.833 -197.333 104.5 -270s156.167 -109 259.5 -109z" />
    <glyph glyph-name="seven" unicode="7" horiz-adv-x="1161" 
d="M236 0l669 1308v12h-782v123h920v-128l-661 -1315h-146z" />
    <glyph glyph-name="eight" unicode="8" horiz-adv-x="1294" 
d="M647 -30c-150.667 0 -273.5 39 -368.5 117s-142.5 178.667 -142.5 302c0 93.333 28.833 174 86.5 242s133.834 110.333 228.501 127v12c-78.667 18.667 -141.5 57.167 -188.5 115.5s-70.5 126.833 -70.5 205.5c0 111.333 42.667 202.833 128 274.5
s194.333 107.5 327 107.5c133.333 0 242.5 -35.667 327.5 -107s127.5 -163 127.5 -275c0 -78.667 -23.333 -147.167 -70 -205.5s-109.334 -96.833 -188.001 -115.5v-12c94 -17.333 170 -59.833 228 -127.5s87 -148.167 87 -241.5c0 -124 -47.5 -224.833 -142.5 -302.5
s-218.167 -116.5 -369.5 -116.5zM647 88c110.667 0 200.667 28.833 270 86.5s104 132.167 104 223.5c0 89.333 -34.5 161.833 -103.5 217.5s-159.167 83.5 -270.5 83.5c-110.667 0 -200.5 -27.833 -269.5 -83.5s-103.5 -128.167 -103.5 -217.5
c0 -91.333 34.5 -165.833 103.5 -223.5s158.833 -86.5 269.5 -86.5zM647 817c95.333 0 172.5 24.167 231.5 72.5s88.5 111.833 88.5 190.5c0 81.333 -29.667 147.5 -89 198.5s-136.333 76.5 -231 76.5s-171.667 -25.5 -231 -76.5s-89 -117.167 -89 -198.5
c0 -78 29.667 -141.333 89 -190s136.333 -73 231 -73z" />
    <glyph glyph-name="nine" unicode="9" horiz-adv-x="1288" 
d="M613 -29c-120.667 0 -222.503 33.334 -305.503 100.001s-134.833 156 -155.5 268h140c18 -74.667 55.833 -134.334 113.5 -179.001s127.5 -67 209.5 -67c126.667 0 225.334 55.5 296.001 166.5s108.667 267.833 114 470.5c0.666992 4 -0.166016 10 -2.49902 18
s-3.5 13 -3.5 15h-3h-3c-31.333 -80 -84.166 -144.167 -158.499 -192.5s-158.5 -72.5 -252.5 -72.5c-138 0 -251.833 45.167 -341.5 135.5s-134.5 204.5 -134.5 342.5c0 144 46.833 262.833 140.5 356.5s212.5 140.5 356.5 140.5c97.333 0 183.5 -23.833 258.5 -71.5
s135.167 -116.167 180.5 -205.5c64 -112 96 -260 96 -444c0 -245.333 -47.833 -436.833 -143.5 -574.5s-229.5 -206.5 -401.5 -206.5zM623.997 617.001c103.333 0 190.001 34.165 260.001 102.498s105 152.5 105 252.5c0 107.333 -34.833 197.5 -104.5 270.5
s-156.167 109.5 -259.5 109.5c-102.667 0 -188.5 -35.667 -257.5 -107s-103.5 -159.666 -103.5 -264.999s33.667 -192.166 101 -260.499s153.666 -102.5 258.999 -102.5z" />
    <glyph glyph-name="colon" unicode=":" horiz-adv-x="593" 
d="M297 -10c-30.667 0 -56.834 10.833 -78.501 32.5s-32.5 47.5 -32.5 77.5c0 30.667 10.833 56.667 32.5 78s47.834 32 78.501 32c30 0 55.833 -10.667 77.5 -32s32.5 -47.333 32.5 -78c0 -30 -10.833 -55.833 -32.5 -77.5s-47.5 -32.5 -77.5 -32.5zM297 763
c-30.667 0 -56.834 10.833 -78.501 32.5s-32.5 47.834 -32.5 78.501s10.833 56.667 32.5 78s47.834 32 78.501 32c30 0 55.833 -10.667 77.5 -32s32.5 -47.333 32.5 -78s-10.833 -56.834 -32.5 -78.501s-47.5 -32.5 -77.5 -32.5z" />
    <glyph glyph-name="semicolon" unicode=";" horiz-adv-x="593" 
d="M248 -339h-115l85 531h162zM297 763c-30.667 0 -56.834 10.833 -78.501 32.5s-32.5 47.834 -32.5 78.501s10.833 56.667 32.5 78s47.834 32 78.501 32c30 0 55.833 -10.667 77.5 -32s32.5 -47.333 32.5 -78s-10.833 -56.834 -32.5 -78.501s-47.5 -32.5 -77.5 -32.5z" />
    <glyph glyph-name="less" unicode="&#x3c;" horiz-adv-x="1321" 
d="M1093 134v-143l-865 531v109l865 531v-143l-733 -437v-12z" />
    <glyph glyph-name="equal" unicode="=" horiz-adv-x="1321" 
d="M1158 331h-995v115h995v-115zM1158 714h-995v115h995v-115z" />
    <glyph glyph-name="greater" unicode="&#x3e;" horiz-adv-x="1321" 
d="M228 134l732 436v12l-732 437v143l865 -531v-109l-865 -531v143z" />
    <glyph glyph-name="question" unicode="?" horiz-adv-x="1020" 
d="M82 1079c6 110 45.999 200.334 119.999 271.001s173.667 106 299 106c119.333 0 217.5 -34 294.5 -102s115.5 -153.333 115.5 -256c0 -72 -17.5 -135.5 -52.5 -190.5s-87.833 -105.167 -158.5 -150.5c-65.333 -42 -109.666 -80.5 -132.999 -115.5s-35 -80.5 -35 -136.5
v-75h-133v94c-0.666992 66 14.333 122.333 45 169s81.667 92.667 153 138c63.333 41.333 108 81.5 134 120.5s39 85.833 39 140.5c0 71.333 -25.667 130 -77 176s-117 69 -197 69s-145.667 -23.333 -197 -70s-80.333 -109.334 -87 -188.001h-130zM477.999 -15.999
c-34 0 -62 11.167 -84 33.5s-33 50.166 -33 83.499c0 34 11 62.167 33 84.5s50 33.5 84 33.5c33.333 0 61 -11.167 83 -33.5s33 -50.5 33 -84.5c0 -33.333 -11 -61.166 -33 -83.499s-49.667 -33.5 -83 -33.5z" />
    <glyph glyph-name="at" unicode="@" horiz-adv-x="1871" 
d="M929 906c-73.333 0 -132.167 -28.499 -176.5 -85.499s-66.5 -132.5 -66.5 -226.5c0 -94.667 22 -170 66 -226s102.667 -84 176 -84c74 0 133 28.667 177 86s66 133.666 66 228.999c0 94 -21.833 168.667 -65.5 224s-102.5 83 -176.5 83zM960.999 1434
c155.333 0 293.836 -31.332 415.503 -93.999s216.167 -150.5 283.5 -263.5s101 -241.833 101 -386.5c0 -161.333 -31.333 -288.666 -94 -381.999s-148.334 -140 -257.001 -140c-62 0 -113.833 17 -155.5 51s-65.167 78.333 -70.5 133h-13
c-22.667 -56.667 -56.334 -100.334 -101.001 -131.001s-97.334 -46 -158.001 -46c-103.333 0 -187.333 39 -252 117s-97 179.667 -97 305c0 122.667 32.5 222.667 97.5 300s148.833 116 251.5 116c56 0 106.667 -14.667 152 -44s77.333 -68.333 96 -117h13v141h116v-575
c0 -48 12.167 -84.667 36.5 -110s59.166 -38 104.499 -38c68.667 0 122.667 37.667 162 113s59 178.333 59 309c0 125.333 -29.333 236.833 -88 334.5s-141 173.5 -247 227.5s-227.333 81 -364 81c-100.667 0 -194.667 -18.333 -282 -55s-162 -87.334 -224 -152.001
s-110.667 -142.5 -146 -233.5s-53 -189.167 -53 -294.5c0 -220.667 66.333 -398 199 -532s308 -201 526 -201c148.667 0 259.334 14.667 332.001 44v-99c-88 -29.333 -199 -44 -333 -44c-252 0 -453.833 76.167 -605.5 228.5s-227.5 354.833 -227.5 607.5
c0 161.333 34.667 305 104 431s166.5 224 291.5 294s267.5 105 427.5 105z" />
    <glyph glyph-name="A" unicode="A" horiz-adv-x="1363" 
d="M1145 0l-160 442h-606l-160 -442h-145l540 1443h136l539 -1443h-144zM675 1264l-255 -704h524l-256 704h-13z" />
    <glyph glyph-name="B" unicode="B" horiz-adv-x="1319" 
d="M715 0h-530.002v1443h519c132.667 0 237.334 -31.833 314.001 -95.5s115 -150.5 115 -260.5c0 -80.667 -24.667 -150.5 -74 -209.5s-112.666 -95.167 -189.999 -108.5v-13c102 -11.333 183.833 -49 245.5 -113s92.5 -145.333 92.5 -244c0 -126 -43 -224 -129 -294
s-207 -105 -363 -105zM321.998 1322v-514.999h323c112 0 198.333 22.167 259 66.5s91 108.166 91 191.499c0 80.667 -28.167 143.667 -84.5 189s-133.833 68 -232.5 68h-356zM321.998 121.001h374c120.667 0 212.667 24.333 276 73s95 119.334 95 212.001
c0 91.333 -33.333 161.166 -100 209.499s-162.667 72.5 -288 72.5h-357v-567z" />
    <glyph glyph-name="C" unicode="C" horiz-adv-x="1455" 
d="M763 -30c-196 0 -351.002 67.333 -465.002 202s-171 317.667 -171 549s57 414.5 171 549.5s268.667 202.5 464 202.5c98 0 188.5 -20.167 271.5 -60.5s151.333 -96.333 205 -168s86.834 -152.5 99.501 -242.5h-139c-20.667 102 -71.5 184.833 -152.5 248.5
s-175.833 95.5 -284.5 95.5c-151.333 0 -271.666 -56.5 -360.999 -169.5s-134 -264.833 -134 -455.5c0 -191.333 44.667 -343.166 134 -455.499s210 -168.5 362 -168.5c111.333 0 206.833 28.667 286.5 86s129.5 133.333 149.5 228h139
c-20.667 -132.667 -83.5 -239.334 -188.5 -320.001s-233.833 -121 -386.5 -121z" />
    <glyph glyph-name="D" unicode="D" horiz-adv-x="1471" 
d="M185 1443h475c218 0 386.667 -63.667 506 -191s179 -304 179 -530c0 -226.667 -59.5 -403.667 -178.5 -531s-287.833 -191 -506.5 -191h-475v1443zM322 1319v-1195h330c175.333 0 311.333 52.667 408 158s145 251.666 145 438.999s-48.333 333.833 -145 439.5
s-232.667 158.5 -408 158.5h-330z" />
    <glyph glyph-name="E" unicode="E" horiz-adv-x="1197" 
d="M1057 124v-124h-872v1443h872v-124h-735v-519h698v-122h-698v-554h735z" />
    <glyph glyph-name="F" unicode="F" horiz-adv-x="1155" 
d="M322 0h-137v1443h856v-124h-719v-542h661v-122h-661v-655z" />
    <glyph glyph-name="G" unicode="G" horiz-adv-x="1506" 
d="M1375 559c0 -178.667 -54.667 -321.501 -164 -428.501s-255.333 -160.5 -438 -160.5c-195.333 0 -351.833 68.5 -469.5 205.5s-176.5 319.167 -176.5 546.5c0 226 58.667 407.667 176 545s273 206 467 206c154 0 284.5 -41 391.5 -123s173.5 -191.667 199.5 -329h-139
c-30 103.333 -84.333 183.333 -163 240s-175 85 -289 85c-152.667 0 -274.667 -56.667 -366 -170s-137 -264.666 -137 -453.999c0 -190 45.833 -341.667 137.5 -455s214.5 -170 368.5 -170c141.333 0 254.333 41.167 339 123.5s127 191.5 127 327.5v50h-440v121h576v-160z
" />
    <glyph glyph-name="H" unicode="H" horiz-adv-x="1488" 
d="M1303 0h-137v677h-844v-677h-137v1443h137v-642h844v642h137v-1443z" />
    <glyph glyph-name="I" unicode="I" horiz-adv-x="507" 
d="M322 0h-137v1443h137v-1443z" />
    <glyph glyph-name="J" unicode="J" horiz-adv-x="1088" 
d="M92 330l136 -0.000976562c3.33301 -68.667 29.333 -124.667 78 -168s110.667 -65 186 -65c87.333 0 154.833 26.167 202.5 78.5s71.5 126.5 71.5 222.5v1045h137v-1050c0 -131.333 -36.667 -234.666 -110 -309.999s-173.333 -113 -300 -113
c-116.667 0 -212.5 33.5 -287.5 100.5s-112.833 153.5 -113.5 259.5z" />
    <glyph glyph-name="K" unicode="K" horiz-adv-x="1311" 
d="M322 0h-137v1443h137v-746h12l683 746h171l-578 -623l637 -820h-177l-555 725l-193 -210v-515z" />
    <glyph glyph-name="L" unicode="L" horiz-adv-x="1139" 
d="M1044 124v-124h-859v1443h137v-1319h722z" />
    <glyph glyph-name="M" unicode="M" horiz-adv-x="1761" 
d="M314 0h-129v1443h157l533 -1256h12l531 1256h158v-1443h-128v1177h-10l-498 -1170h-119l-498 1170h-9v-1177z" />
    <glyph glyph-name="N" unicode="N" horiz-adv-x="1494" 
d="M320 0h-135v1443h135l841 -1198h13v1198h135v-1443h-132l-844 1199h-13v-1199z" />
    <glyph glyph-name="O" unicode="O" horiz-adv-x="1561" 
d="M781 1473c202 0 361.169 -67.333 477.502 -202s174.5 -317.667 174.5 -549s-58.167 -414.5 -174.5 -549.5s-275.5 -202.5 -477.5 -202.5c-202.667 0 -362.334 67.5 -479.001 202.5s-175 318.167 -175 549.5c0 230.667 58.667 413.5 176 548.5
s276.666 202.5 477.999 202.5zM781.002 1346c-157.333 0 -282.333 -56.167 -375 -168.5s-139 -264.166 -139 -455.499c0 -190.667 46 -342.5 138 -455.5s217.333 -169.5 376 -169.5c158 0 282.833 56.5 374.5 169.5s137.5 264.833 137.5 455.5
c0 191.333 -45.833 343.166 -137.5 455.499s-216.5 168.5 -374.5 168.5z" />
    <glyph glyph-name="P" unicode="P" horiz-adv-x="1272" 
d="M185 1443l513 0.000976562c138 0 249.5 -41.667 334.5 -125s127.5 -192.333 127.5 -327c0 -132.667 -43 -240.334 -129 -323.001s-197.667 -124 -335 -124h-374v-544h-137v1443zM322 1321v-655h343c111.333 0 198.5 28.833 261.5 86.5s94.5 137.167 94.5 238.5
c0 104 -31.167 185 -93.5 243s-149.833 87 -262.5 87h-343z" />
    <glyph glyph-name="Q" unicode="Q" horiz-adv-x="1561" 
d="M1346 -169h-153.998l-140 191c-81.333 -34.667 -171.666 -52 -270.999 -52c-202.667 0 -362.334 67 -479.001 201s-175 317.333 -175 550c0 232 58.667 415.333 176 550s276.666 202 477.999 202c200.667 0 359.5 -67.5 476.5 -202.5s175.5 -318.167 175.5 -549.5
c0 -146 -23.333 -274 -70 -384s-113.334 -194.333 -200.001 -253zM782.002 97c69.333 0 133.334 11.667 192.001 35l-194 263h155l148 -198c67.333 48.667 119.166 118.167 155.499 208.5s54.5 195.5 54.5 315.5c0 191.333 -46.167 343.333 -138.5 456
s-216.833 169 -373.5 169c-157.333 0 -282.333 -56.333 -375 -169s-139 -264.667 -139 -456c0 -192 46.333 -344 139 -456s218 -168 376 -168z" />
    <glyph glyph-name="R" unicode="R" horiz-adv-x="1309" 
d="M322 1321v-608h369c104.667 0 186.167 26.667 244.5 80s87.5 128 87.5 224c0 94.667 -30 169 -90 223s-142.667 81 -248 81h-363zM322 591l0.000976562 -591.001h-137v1443h517c140.667 0 252.667 -38.167 336 -114.5s125 -178.833 125 -307.5
c0 -102 -27.333 -189.167 -82 -261.5s-130.334 -121.166 -227.001 -146.499l350 -613h-160l-332 591h-21h-369z" />
    <glyph glyph-name="S" unicode="S" horiz-adv-x="1284" 
d="M115 375l138 0.00195312c9.33301 -82.667 51.5 -150 126.5 -202s167.5 -78 277.5 -78c107.333 0 196 26.667 266 80s105 120.333 105 201c0 68 -25.833 124.667 -77.5 170s-133.167 81.666 -244.5 108.999l-165 42c-135.333 33.333 -233.333 79.833 -294 139.5
s-91 138.5 -91 236.5c0 117.333 45.833 213.333 137.5 288s210.5 112 356.5 112c137.333 0 252.333 -36.167 345 -108.5s142.667 -163.833 150 -274.5h-138c-11.333 77.333 -49.5 139.666 -114.5 186.999s-147.167 71 -246.5 71c-103.333 0 -187.5 -25.5 -252.5 -76.5
s-97.5 -115.833 -97.5 -194.5c0 -62.667 24 -113.834 72 -153.501s127 -73.167 237 -100.5l143 -36c148.667 -36.667 255.834 -86.167 321.501 -148.5s98.5 -144.833 98.5 -247.5c0 -126 -47.833 -227.667 -143.5 -305s-222.167 -116 -379.5 -116
c-149.333 0 -272.833 37.333 -370.5 112s-150.834 172.334 -159.501 293.001z" />
    <glyph glyph-name="T" unicode="T" horiz-adv-x="1280" 
d="M708 0h-136v1319h-484v124h1104v-124h-484v-1319z" />
    <glyph glyph-name="U" unicode="U" horiz-adv-x="1494" 
d="M325 1443l0.000976562 -934c0 -122 38 -220.667 114 -296s178.667 -113 308 -113s232 37.667 308 113s114 174 114 296v934h137v-943c0 -158 -50.333 -285.167 -151 -381.5s-236.667 -144.5 -408 -144.5c-170.667 0 -306.334 48.167 -407.001 144.5
s-151 223.5 -151 381.5v943h136z" />
    <glyph glyph-name="V" unicode="V" horiz-adv-x="1363" 
d="M750 0h-136l-540 1443h144l457 -1264h13l457 1264h144z" />
    <glyph glyph-name="W" unicode="W" horiz-adv-x="1956" 
d="M973 1205l-354 -1205h-127l-397 1443h142l317 -1230h9l347 1230h136l347 -1230h9l317 1230h142l-397 -1443h-127l-354 1205h-10z" />
    <glyph glyph-name="X" unicode="X" horiz-adv-x="1366" 
d="M95 0l504 724l-500 719h165l418 -609h11l422 609h156l-508 -724l500 -719h-164l-416 606h-11l-421 -606h-156z" />
    <glyph glyph-name="Y" unicode="Y" horiz-adv-x="1321" 
d="M729 0h-136v624l-518 819h157l423 -680h12l423 680h156l-517 -819v-624z" />
    <glyph glyph-name="Z" unicode="Z" horiz-adv-x="1328" 
d="M138 0v99l863 1208v12h-834v124h1011v-100l-860 -1207v-12h872v-124h-1052z" />
    <glyph glyph-name="bracketleft" unicode="[" horiz-adv-x="733" 
d="M188 1444h417v-106h-288v-1472h301v-104h-430v1682z" />
    <glyph glyph-name="backslash" unicode="\" horiz-adv-x="695" 
d="M512 -327l-445 1770h118l443 -1770h-116z" />
    <glyph glyph-name="bracketright" unicode="]" horiz-adv-x="733" 
d="M544 1444v-1682h-429v104h302v1472h-289v106h416z" />
    <glyph glyph-name="asciicircum" unicode="^" horiz-adv-x="947" 
d="M468 1318l-236 -531h-126l298 645h140l298 -645h-127l-235 531h-12z" />
    <glyph glyph-name="underscore" unicode="_" horiz-adv-x="919" 
d="M927 -222h-935v100h935v-100z" />
    <glyph glyph-name="grave" unicode="`" horiz-adv-x="999" 
d="M709 1267h-149l-269 327h168z" />
    <glyph glyph-name="a" unicode="a" horiz-adv-x="1125" 
d="M491 98c96.667 0 177.5 29.168 242.5 87.501s97.5 130.166 97.5 215.499v126l-319 -23c-180.667 -12.667 -271 -80.667 -271 -204c0 -61.333 23.333 -110.333 70 -147s106.667 -55 180 -55zM469 -17.999c-106.667 0 -193.831 28.833 -261.498 86.5
s-101.5 134.167 -101.5 229.5c0 93.333 33.333 166.833 100 220.5s162.667 84.834 288 93.501l337 22v104c0 77.333 -22.833 136.666 -68.5 177.999s-112.167 62 -199.5 62c-74 0 -136.167 -14.833 -186.5 -44.5s-81.833 -70.5 -94.5 -122.5h-133
c12.667 85.333 57.167 154 133.5 206s171.166 78 284.499 78c126 0 223.5 -31.167 292.5 -93.5s103.5 -149.833 103.5 -262.5v-739h-126v185h-12c-32.667 -64 -80.334 -113.833 -143.001 -149.5s-133.667 -53.5 -213 -53.5z" />
    <glyph glyph-name="b" unicode="b" horiz-adv-x="1252" 
d="M685 -18c-82.667 0 -156.667 20.667 -222 62s-114 98.333 -146 171h-13v-215h-125v1506h131v-638h12c30 70 77.667 125.333 143 166s138.666 61 219.999 61c136.667 0 246.334 -50.667 329.001 -152s124 -236 124 -404c0 -167.333 -41.5 -302 -124.5 -404
s-192.5 -153 -328.5 -153zM658 977c-106 0 -191 -39.8311 -255 -119.498s-96 -185.834 -96 -318.501s32 -238.834 96 -318.501s149 -119.5 255 -119.5s190 39.5 252 118.5s93 185.833 93 320.5c0 134 -31 240.333 -93 319s-146 118 -252 118z" />
    <glyph glyph-name="c" unicode="c" horiz-adv-x="1145" 
d="M1042 760l-133 0.00195312c-17.333 64 -53.166 116.167 -107.499 156.5s-121.5 60.5 -201.5 60.5c-107.333 0 -192.5 -39.333 -255.5 -118s-94.5 -184.334 -94.5 -317.001c0 -134.667 31.667 -241.834 95 -321.501s148.333 -119.5 255 -119.5
c80 0 147.167 18.333 201.5 55s89.833 88 106.5 154h133c-16.667 -98.667 -64 -178 -142 -238s-177.333 -90 -298 -90c-148.667 0 -266.834 50.5 -354.501 151.5s-131.5 237.167 -131.5 408.5c0 168.667 43.833 303 131.5 403s205.5 150 353.5 150
c120 0 219.5 -31.5 298.5 -94.5s126.833 -143.167 143.5 -240.5z" />
    <glyph glyph-name="d" unicode="d" horiz-adv-x="1256" 
d="M571 -18c-137.333 0 -247.669 50.834 -331.002 152.501s-125 236.167 -125 403.5c0 166.667 41.833 301.167 125.5 403.5s193.834 153.5 330.501 153.5c82 0 155.333 -20.333 220 -61s112.334 -96.334 143.001 -167.001h12v639h131v-1506h-126v215h-12
c-32 -72 -80.833 -128.833 -146.5 -170.5s-139.5 -62.5 -221.5 -62.5zM598.997 977.001c-106.667 0 -191.5 -39.667 -254.5 -119s-94.5 -185.666 -94.5 -318.999c0 -134 31.5 -240.5 94.5 -319.5s147.833 -118.5 254.5 -118.5c106 0 190.667 39.667 254 119
s95 185.666 95 318.999c0 132 -31.833 238 -95.5 318s-148.167 120 -253.5 120z" />
    <glyph glyph-name="e" unicode="e" horiz-adv-x="1174" 
d="M595 979c-98 0 -178.333 -33.5 -241 -100.5s-97 -155.833 -103 -266.5h671c-1.33301 111.333 -31.833 200.333 -91.5 267s-138.167 100 -235.5 100zM909 266h133.003c-26.667 -88 -79.334 -157.333 -158.001 -208s-174.334 -76 -287.001 -76
c-148 0 -265.333 50.167 -352 150.5s-130 235.5 -130 405.5c0 169.333 43.5 304.5 130.5 405.5s203.833 151.5 350.5 151.5c143.333 0 256.333 -47.667 339 -143s124 -225.333 124 -390v-58h-809v-6c3.33301 -122 36.5 -219 99.5 -291s146.5 -108 250.5 -108
c76 0 140.667 14.5 194 43.5s91.666 70.167 114.999 123.5z" />
    <glyph glyph-name="f" unicode="f" horiz-adv-x="718" 
d="M241 0v966h-174v111h174v119c0 198 99 297 297 297c30 0 62.667 -3.33301 98 -10v-111c-24.667 6 -55 9 -91 9c-56 0 -98.833 -15.667 -128.5 -47s-44.5 -78.333 -44.5 -141v-116h254v-111h-254v-966h-131z" />
    <glyph glyph-name="g" unicode="g" horiz-adv-x="1242" 
d="M945 550c0 128.667 -31.833 232 -95.5 310s-148.5 117 -254.5 117c-106.667 0 -190.834 -38.5 -252.501 -115.5s-92.5 -180.167 -92.5 -309.5c0 -128.667 30.833 -231.5 92.5 -308.5s145.834 -115.5 252.501 -115.5c107.333 0 192.5 38.333 255.5 115s94.5 179 94.5 307z
M606 -404c-122.667 0 -223 25.165 -301 75.498s-124 117.833 -138 202.5h139c12 -50 44.667 -89.667 98 -119s120.666 -44 201.999 -44c104 0 186.167 25.333 246.5 76s90.5 119.667 90.5 207v242h-13c-32 -71.333 -79.5 -126.666 -142.5 -165.999s-135.833 -59 -218.5 -59
c-138 0 -248.167 49.5 -330.5 148.5s-123.5 229.833 -123.5 392.5s41.333 293.834 124 393.501s192.667 149.5 330 149.5c82 0 156.333 -21 223 -63s114.667 -98 144 -168h12v213h126v-1093c0 -117.333 -42.667 -211.333 -128 -282s-198.666 -106 -339.999 -106z" />
    <glyph glyph-name="h" unicode="h" horiz-adv-x="1224" 
d="M179 0v1506h131v-623h12c29.333 66.667 75.333 118.667 138 156s136.667 56 222 56c121.333 0 215.333 -34.667 282 -104s100 -166.333 100 -291v-700h-131v667c0 102 -24 179.167 -72 231.5s-119 78.5 -213 78.5c-101.333 0 -183 -31.333 -245 -94
s-93 -143.667 -93 -243v-640h-131z" />
    <glyph glyph-name="i" unicode="i" horiz-adv-x="480" 
d="M175 0v1077h131v-1077h-131zM240 1317c-26.667 0 -49.5 9.66699 -68.5 29s-28.5 42.333 -28.5 69s9.5 49.5 28.5 68.5s41.833 28.5 68.5 28.5s49.667 -9.5 69 -28.5s29 -41.833 29 -68.5c0 -27.333 -9.66699 -50.5 -29 -69.5s-42.333 -28.5 -69 -28.5z" />
    <glyph glyph-name="j" unicode="j" horiz-adv-x="480" 
d="M306 1077l0.000976562 -1158c0 -104 -25 -179.667 -75 -227s-127.667 -71 -233 -71h-30v113h27c65.333 0 111.666 14 138.999 42s41 74.667 41 140v1161h131zM240.001 1317c-26.667 0 -49.5 9.66699 -68.5 29s-28.5 42.333 -28.5 69s9.5 49.5 28.5 68.5
s41.833 28.5 68.5 28.5s49.667 -9.5 69 -28.5s29 -41.833 29 -68.5c0 -27.333 -9.66699 -50.5 -29 -69.5s-42.333 -28.5 -69 -28.5z" />
    <glyph glyph-name="k" unicode="k" horiz-adv-x="1092" 
d="M322 573l526 504h164l-481 -462l503 -615h-168l-434 531l-122 -113v-418h-131v1506h131v-933h12z" />
    <glyph glyph-name="l" unicode="l" horiz-adv-x="489" 
d="M179 0v1506h131v-1506h-131z" />
    <glyph glyph-name="m" unicode="m" horiz-adv-x="1772" 
d="M169 0l-0.00195312 1077h125v-194h13c23.333 66 62.5 117.833 117.5 155.5s119.5 56.5 193.5 56.5s137.5 -18.833 190.5 -56.5s91.167 -89.5 114.5 -155.5h13c28 65.333 71.833 117 131.5 155s127.834 57 204.501 57c108 0 191.833 -31.167 251.5 -93.5
s89.5 -150.5 89.5 -264.5v-737h-131v707c0 88 -21.167 155 -63.5 201s-104.166 69 -185.499 69c-82 0 -148.667 -27.833 -200 -83.5s-77 -125.834 -77 -210.501v-683h-131v721c0 77.333 -22.667 139.333 -68 186s-105.333 70 -180 70c-78 0 -143.667 -30.667 -197 -92
s-80 -136 -80 -224v-661h-131z" />
    <glyph glyph-name="n" unicode="n" horiz-adv-x="1206" 
d="M169 0l0.000976562 1077h125v-194h13c28.667 66.667 74.667 118.667 138 156s137.666 56 222.999 56c120 0 213 -34.5 279 -103.5s99 -166.167 99 -291.5v-700h-131v667c0 206.667 -93.667 310 -281 310c-100.667 0 -181.5 -30.833 -242.5 -92.5
s-91.5 -143.167 -91.5 -244.5v-640h-131z" />
    <glyph glyph-name="o" unicode="o" horiz-adv-x="1208" 
d="M604 101c110.667 0 197.334 38.833 260.001 116.5s94 184.834 94 321.501s-31.333 243.834 -94 321.501s-149.334 116.5 -260.001 116.5s-197.334 -38.833 -260.001 -116.5s-94 -184.834 -94 -321.501s31.333 -243.834 94 -321.501s149.334 -116.5 260.001 -116.5z
M604 -18c-150.667 0 -269.834 49.833 -357.501 149.5s-131.5 235.5 -131.5 407.5s43.833 307.667 131.5 407s206.834 149 357.501 149s270 -49.667 358 -149s132 -235 132 -407s-44 -307.833 -132 -407.5s-207.333 -149.5 -358 -149.5z" />
    <glyph glyph-name="p" unicode="p" horiz-adv-x="1242" 
d="M675 1095c136.667 0 246.333 -50.833 329 -152.5s124 -236.167 124 -403.5s-41.5 -302 -124.5 -404s-192.5 -153 -328.5 -153c-83.333 0 -157.166 19.833 -221.499 59.5s-111.5 94.167 -141.5 163.5h-12v-556h-131v1428h125v-220h12
c33.333 74 82.666 132.167 147.999 174.5s139 63.5 221 63.5zM645.999 101c106.667 0 191.166 39.333 253.499 118s93.5 185 93.5 319c0 134.667 -31.167 241.5 -93.5 320.5s-146.5 118.5 -252.5 118.5c-105.333 0 -190.166 -40 -254.499 -120s-96.5 -186 -96.5 -318
s32 -238 96 -318s148.667 -120 254 -120z" />
    <glyph glyph-name="q" unicode="q" horiz-adv-x="1246" 
d="M570 1095c81.333 0 155.168 -21.5 221.501 -64.5s115.166 -100.833 146.499 -173.5h12v220h127v-1428h-133v556h-12c-33.333 -70.667 -81.5 -125.5 -144.5 -164.5s-135.5 -58.5 -217.5 -58.5c-136.667 0 -246.667 51 -330 153s-125 236.667 -125 404
c0 166.667 41.667 301 125 403s193.333 153 330 153zM596.002 101c106.667 0 192 39.8311 256 119.498s96 185.834 96 318.501c0 132 -32 238 -96 318s-149 120 -255 120s-190.333 -39.667 -253 -119s-94 -185.666 -94 -318.999c0 -134 31.167 -240.5 93.5 -319.5
s146.5 -118.5 252.5 -118.5z" />
    <glyph glyph-name="r" unicode="r" horiz-adv-x="754" 
d="M169 0l-0.000976562 1077h125v-177h13c18 58.667 54.667 105.834 110 141.501s118.666 53.5 189.999 53.5c42.667 0 76.334 -3 101.001 -9v-131c-30 8.66699 -69 13 -117 13c-83.333 0 -152.666 -28.167 -207.999 -84.5s-83 -126.833 -83 -211.5v-672h-131z" />
    <glyph glyph-name="s" unicode="s" horiz-adv-x="1058" 
d="M144 792c0 86 37.5 157.997 112.5 215.997s167.167 87 276.5 87c108.667 0 198.667 -25.167 270 -75.5s113 -118.166 125 -203.499h-129c-12 50.667 -41.833 91.167 -89.5 121.5s-106.834 45.5 -177.501 45.5c-71.333 0 -131.833 -17.667 -181.5 -53
s-74.5 -79.666 -74.5 -132.999c0 -44 17.333 -79.667 52 -107s88.667 -49.666 162 -66.999l148 -35c106 -25.333 184 -60.833 234 -106.5s75 -106.834 75 -183.501c0 -92 -39.667 -167.667 -119 -227s-178.333 -89 -297 -89c-117.333 0 -214 25.833 -290 77.5
s-119.333 121.834 -130 210.501h136c14.667 -54.667 47 -97.667 97 -129s113.667 -47 191 -47c79.333 0 145.333 18.333 198 55s79 83 79 139c0 46.667 -17 84.5 -51 113.5s-87.333 52.167 -160 69.5l-163 39c-101.333 24.667 -175.666 59.167 -222.999 103.5
s-71 103.833 -71 178.5z" />
    <glyph glyph-name="t" unicode="t" horiz-adv-x="724" 
d="M237 1353h130.998v-276h256v-111h-256v-668c0 -66 13.333 -113.833 40 -143.5s70.334 -44.5 131.001 -44.5c31.333 0 58 1 80 3v-112c-26.667 -4.66699 -58 -7 -94 -7c-103.333 0 -177.166 21.167 -221.499 63.5s-66.5 112.5 -66.5 210.5v698h-174v111h174v276z" />
    <glyph glyph-name="u" unicode="u" horiz-adv-x="1207" 
d="M1038 1077v-1077h-125v194h-12c-26.667 -66.667 -71.5 -118.667 -134.5 -156s-137.5 -56 -223.5 -56c-120 0 -213.833 35 -281.5 105s-101.5 166.667 -101.5 290v700h131v-667c0 -100 24.5 -176.333 73.5 -229s119.5 -79 211.5 -79c100.667 0 181 30.333 241 91
s90 142 90 244v640h131z" />
    <glyph glyph-name="v" unicode="v" horiz-adv-x="1078" 
d="M67 1077h140l326 -934h12l325 934h141l-402 -1077h-140z" />
    <glyph glyph-name="w" unicode="w" horiz-adv-x="1566" 
d="M1499 1077l-307 -1077h-139l-265 894h-13l-265 -894h-138l-305 1077h133l239 -914h12l266 914h131l266 -914h12l241 914h132z" />
    <glyph glyph-name="x" unicode="x" horiz-adv-x="1049" 
d="M529 440h-12l-294 -440h-150l380 542l-383 535h158l293 -430h12l291 430h151l-378 -530l382 -547h-157z" />
    <glyph glyph-name="y" unicode="y" horiz-adv-x="1079" 
d="M247 -375c-26.667 0 -47 1.33301 -61 4v113c14 -2 33.667 -3 59 -3c50 0 90.167 14 120.5 42s58.166 76.333 83.499 145l22 67l-404 1084h142l326 -934h12l325 934h140l-419 -1129c-47.333 -126.667 -94.666 -212.167 -141.999 -256.5s-115.333 -66.5 -204 -66.5z" />
    <glyph glyph-name="z" unicode="z" horiz-adv-x="1082" 
d="M131 0v100l660 854v12h-659v111h816v-101l-658 -853v-12h660v-111h-819z" />
    <glyph glyph-name="braceleft" unicode="{" horiz-adv-x="809" 
d="M260 611c116 -10.667 174.001 -89.6689 174.001 -237.002v-360c0 -79.333 19.333 -137.5 58 -174.5s99.667 -55.5 183 -55.5h54v-109h-56c-125.333 0 -217.333 27.333 -276 82s-88 140.667 -88 258v309c0 80.667 -13 136.834 -39 168.501s-72 47.5 -138 47.5v158
c65.333 0 111.166 16.167 137.499 48.5s39.5 88.833 39.5 169.5v268c0 114.667 29 198.5 87 251.5s150.333 79.5 277 79.5h56v-109h-54c-84.667 0 -146 -18.167 -184 -54.5s-57 -95.166 -57 -176.499v-313c0 -144 -58 -222 -174 -234v-17z" />
    <glyph glyph-name="bar" unicode="|" horiz-adv-x="661" 
d="M388 -328h-115v1771h115v-1771z" />
    <glyph glyph-name="braceright" unicode="}" horiz-adv-x="809" 
d="M550 611v17.002c-116.667 12 -175 90 -175 234v313c0 81.333 -18.833 140.166 -56.5 176.499s-99.167 54.5 -184.5 54.5h-53v109h56c126 0 218.167 -26.5 276.5 -79.5s87.5 -136.833 87.5 -251.5v-268c0 -81.333 13 -138 39 -170s71.667 -48 137 -48v-158
c-65.333 0 -111 -15.833 -137 -47.5s-39 -87.834 -39 -168.501v-309c0 -117.333 -29.333 -203.333 -88 -258s-150.667 -82 -276 -82h-56v109h53c83.333 0 144.333 18.5 183 55.5s58 95.167 58 174.5v360c0 147.333 58.333 226.333 175 237z" />
    <glyph glyph-name="asciitilde" unicode="~" horiz-adv-x="1204" 
d="M564 650c-40.667 40 -73.501 67.5 -98.501 82.5s-49.833 22.5 -74.5 22.5c-44.667 0 -80.167 -17.167 -106.5 -51.5s-41.166 -82.5 -44.499 -144.5h-123c0 98.667 24.833 177 74.5 235s117.167 87 202.5 87c40 0 78.167 -9.5 114.5 -28.5s78.166 -51.167 125.499 -96.5
c38.667 -38 71.334 -64.833 98.001 -80.5s52.667 -23.5 78 -23.5c45.333 0 82 17.667 110 53s43.667 84.333 47 147h122c0.666992 -98 -24.833 -176.833 -76.5 -236.5s-119.834 -89.5 -204.501 -89.5c-42.667 0 -82.167 9.33301 -118.5 28s-78.166 50.667 -125.499 96z" />
    <glyph glyph-name="nonbreakingspace" unicode="&#xa0;" horiz-adv-x="554" 
 />
    <glyph glyph-name="exclamdown" unicode="&#xa1;" horiz-adv-x="617" 
d="M233 -340l12 986h127l11 -986h-150zM192 1002c0 34 11.167 62 33.5 84s50.166 33 83.499 33s61 -11 83 -33s33 -50 33 -84s-11 -62 -33 -84s-49.667 -33 -83 -33s-61.166 11 -83.499 33s-33.5 50 -33.5 84z" />
    <glyph glyph-name="cent" unicode="&#xa2;" horiz-adv-x="1321" 
d="M1156 483c-16 -90 -61.001 -164.168 -135.001 -222.501s-165.333 -92.5 -274 -102.5v-187h-131v189c-133.333 14.667 -242 72 -326 172s-126 227.667 -126 383c0 153.333 42 279.333 126 378s192.667 155.334 326 170.001v183h131v-182c106 -11.333 197 -47.5 273 -108.5
s121.667 -135.5 137 -223.5h-133c-21.333 66 -62.666 118.667 -123.999 158s-133.666 59 -216.999 59c-110 0 -201.5 -39.833 -274.5 -119.5s-109.5 -184.5 -109.5 -314.5c0 -132 36.667 -238.667 110 -320s164.666 -122 273.999 -122c90 0 165.167 19 225.5 57
s98.5 89 114.5 153h133z" />
    <glyph glyph-name="sterling" unicode="&#xa3;" horiz-adv-x="1321" 
d="M1188 118l0.000976562 -117.997h-1063v116c95.333 24 173.833 68.667 235.5 134s92.5 140.333 92.5 225c0 57.333 -11 120.666 -33 189.999h-280v112h241c-17.333 46.667 -29.666 80.667 -36.999 102s-15.333 51.833 -24 91.5s-13 76.167 -13 109.5
c0 121.333 44.667 217.666 134 288.999s208.666 107 357.999 107c109.333 0 212.333 -17 309 -51v-122c-92 34 -192.667 51 -302 51c-108.667 0 -195.834 -25 -261.501 -75s-98.5 -115.667 -98.5 -197c0 -35.333 4 -72.333 12 -111s16 -70 24 -94s20 -57.333 36 -100h467
v-112h-429c21.333 -68.667 32 -130.334 32 -185.001c0 -73.333 -20.667 -141 -62 -203s-97.333 -111 -168 -147v-12h830z" />
    <glyph glyph-name="currency" unicode="&#xa4;" horiz-adv-x="1321" 
d="M375 656c0 -78.667 28 -146 84 -202s123.333 -84 202 -84s146 28 202 84s84 123.333 84 202s-28 146 -84 202s-123.333 84 -202 84s-146 -28 -202 -84s-84 -123.333 -84 -202zM1139 1052l-166.999 -168.001c50 -68 75 -144 75 -228
c0 -85.333 -25.333 -161.666 -76 -228.999l168 -168l-82 -82l-168 168c-68 -50 -144 -75 -228 -75c-84.667 0 -160.667 25.333 -228 76l-169 -169l-82 82l168 169c-50 68 -75 144 -75 228s25 160 75 228l-168 168l82 82l168 -168c67.333 50.667 143.666 76 228.999 76
c84.667 0 160.667 -25.333 228 -76l168 168z" />
    <glyph glyph-name="yen" unicode="&#xa5;" horiz-adv-x="1321" 
d="M1033 310h-304v-310h-137v310h-304v105h304v184h-304v106h259l-472 738h156l423 -670h13l423 670h156l-472 -738h259v-106h-304v-184h304v-105z" />
    <glyph glyph-name="brokenbar" unicode="&#xa6;" horiz-adv-x="661" 
d="M388 765h-115v678h115v-678zM388 -328h-115v680h115v-680z" />
    <glyph glyph-name="section" unicode="&#xa7;" horiz-adv-x="1037" 
d="M459 380l81 -18c72 0.666992 131.667 21 179 61s71 89.667 71 149c0 98 -70.333 162.333 -211 193l-81 18c-71.333 -0.666992 -131 -21.167 -179 -61.5s-72 -89.833 -72 -148.5c0 -96.667 70.667 -161 212 -193zM524 -250c-111.333 0 -204.001 26.4961 -278.001 79.4961
s-114.667 122.167 -122 207.5h134c7.33301 -52 36 -94 86 -126s112 -48 186 -48c75.333 0 136.833 17 184.5 51s71.5 77.667 71.5 131c0 44.667 -17.667 81.5 -53 110.5s-91.666 53.167 -168.999 72.5l-129 33c-111.333 28.667 -193 66.167 -245 112.5
s-78 104.833 -78 175.5c0 66 21.333 122.333 64 169s102 79 178 97v12c-153.333 52.667 -230 142 -230 268c0 88.667 36 160.834 108 216.501s165 83.5 279 83.5c109.333 0 199.333 -25.167 270 -75.5s111.667 -118.166 123 -203.499h-132
c-8 50.667 -35.833 91.167 -83.5 121.5s-107.5 45.5 -179.5 45.5c-74.667 0 -135.5 -16.833 -182.5 -50.5s-70.5 -77.167 -70.5 -130.5c0 -44.667 17.5 -81.667 52.5 -111s90.833 -53.666 167.5 -72.999l129 -34c110.667 -28 191.667 -64.667 243 -110
s77 -102.666 77 -171.999s-24.167 -129.666 -72.5 -180.999s-111.833 -84.333 -190.5 -99v-12c169.333 -40 254 -125.667 254 -257c0 -88.667 -36.667 -161.334 -110 -218.001s-167.333 -85 -282 -85z" />
    <glyph glyph-name="dieresis" unicode="&#xa8;" horiz-adv-x="998" 
d="M317 1252c-28 0 -52 9.83301 -72 29.5s-30 43.834 -30 72.501s10 52.834 30 72.501s44 29.5 72 29.5c28.667 0 52.834 -9.83301 72.501 -29.5s29.5 -43.834 29.5 -72.501s-9.83301 -52.834 -29.5 -72.501s-43.834 -29.5 -72.501 -29.5zM681 1252
c-28 0 -52 9.83301 -72 29.5s-30 43.834 -30 72.501s10 52.834 30 72.501s44 29.5 72 29.5c28.667 0 52.834 -9.83301 72.501 -29.5s29.5 -43.834 29.5 -72.501s-9.83301 -52.834 -29.5 -72.501s-43.834 -29.5 -72.501 -29.5z" />
    <glyph glyph-name="copyright" unicode="&#xa9;" horiz-adv-x="1742" 
d="M871 -158c-108.667 0 -211.332 20.1689 -307.999 60.502s-179.667 95.166 -249 164.499s-124.333 152.5 -165 249.5s-61 200.167 -61 309.5s20.167 212.666 60.5 309.999s95.166 180.666 164.499 249.999s152.5 124 249.5 164s199.833 60 308.5 60
c109.333 0 212.333 -20 309 -60s179.667 -94.667 249 -164s124.166 -152.5 164.499 -249.5s60.5 -200.5 60.5 -310.5c0 -109.333 -20.167 -212.5 -60.5 -309.5s-95.166 -180.167 -164.499 -249.5s-152.333 -124.166 -249 -164.499s-199.667 -60.5 -309 -60.5z
M871.002 -48.998c94 0 182.499 17.332 265.499 51.999s154.333 81.834 214 141.501s106.834 131.167 141.501 214.5s52 172.333 52 267s-17.333 183.834 -52 267.501s-81.667 155.334 -141 215.001s-130.666 106.667 -213.999 141s-172 51.5 -266 51.5
s-182.5 -17.167 -265.5 -51.5s-154.333 -81.333 -214 -141s-106.834 -131.334 -141.501 -215.001s-52 -172.834 -52 -267.501c0 -126 29.5 -240.667 88.5 -344s140 -184.333 243 -243s216.833 -88 341.5 -88zM1238 780.001l-108 0.000976562c-14 52.667 -43.333 95 -88 127
s-98.667 48 -162 48c-85.333 0 -154 -29.167 -206 -87.5s-78 -137.5 -78 -237.5c0 -101.333 26 -181.833 78 -241.5s120.667 -89.5 206 -89.5c66.667 0 121.667 15.167 165 45.5s71.333 71.5 84 123.5h109c-14 -81.333 -53 -146 -117 -194s-144 -72 -240 -72
c-118.667 0 -214.167 38.667 -286.5 116s-108.5 181.333 -108.5 312c0 129.333 36 232.166 108 308.499s167.333 114.5 286 114.5c94 0 173.667 -25.5 239 -76.5s105 -116.5 119 -196.5z" />
    <glyph glyph-name="ordfeminine" unicode="&#xaa;" horiz-adv-x="957" 
d="M437 638c74.667 0 137.667 22.833 189 68.5s77 102.167 77 169.5v114l-250 -19c-144 -11.333 -216 -67 -216 -167c0 -50 18.333 -90.167 55 -120.5s85 -45.5 145 -45.5zM403 532c-88 0 -159.168 24.6641 -213.501 73.9971s-81.5 114 -81.5 194
c0 78.667 28.167 140.834 84.5 186.501s137.5 71.834 243.5 78.501l265 18v83c0 58 -19.5 103.333 -58.5 136s-92.833 49 -161.5 49c-57.333 0 -105 -12 -143 -36s-61 -56.667 -69 -98h-126c8.66699 74.667 43.834 133.834 105.501 177.501s140.5 65.5 236.5 65.5
c106 0 189.167 -26.5 249.5 -79.5s90.5 -125.833 90.5 -218.5v-609h-119v142h-12c-25.333 -50.667 -63.833 -90.5 -115.5 -119.5s-110.167 -43.5 -175.5 -43.5z" />
    <glyph glyph-name="guillemotleft" unicode="&#xab;" horiz-adv-x="1363" 
d="M795 572v-13l357 -410h-158l-358 414v6l359 414h157zM344 572v-13l357 -410h-157l-359 414v6l359 414h157z" />
    <glyph glyph-name="logicalnot" unicode="&#xac;" horiz-adv-x="1321" 
d="M1137 677v-532h-114v418h-840v114h954z" />
    <glyph glyph-name="registered" unicode="&#xae;" horiz-adv-x="1260" 
d="M630 448c-143.333 0 -265.002 50.002 -365.002 150.002s-150 221.667 -150 365c0 94.667 22.833 181.667 68.5 261s108 141.666 187 186.999s165.5 68 259.5 68c70.667 0 137.834 -13.5 201.501 -40.5s118.334 -63.333 164.001 -109s82 -100.334 109 -164.001
s40.5 -131.167 40.5 -202.5c0 -94 -22.667 -180.5 -68 -259.5s-107.5 -141.333 -186.5 -187s-165.833 -68.5 -260.5 -68.5zM629.998 532.002c120.667 0 222.667 41.835 306 125.502s125 185.5 125 305.5c0 121.333 -41.667 223.666 -125 306.999s-185.333 125 -306 125
s-222.667 -41.833 -306 -125.5s-125 -185.834 -125 -306.501c0 -120 41.667 -221.833 125 -305.5s185.333 -125.5 306 -125.5zM516.998 717.004l-80 -0.00195312v515h232c51.333 0 93.5 -14.5 126.5 -43.5s49.5 -66.833 49.5 -113.5c0 -41.333 -11 -75.166 -33 -101.499
s-51.667 -43.166 -89 -50.499l145 -206h-98l-138 195h-115v-195zM516.998 1159l-0.000976562 -178h130c73.333 0 110 30.333 110 91c0 28 -9.16699 49.5 -27.5 64.5s-45.166 22.5 -80.499 22.5h-132z" />
    <glyph glyph-name="macron" unicode="&#xaf;" horiz-adv-x="986" 
d="M824 1292h-662v106h662v-106z" />
    <glyph glyph-name="degree" unicode="&#xb0;" horiz-adv-x="859" 
d="M429 841c-88.667 0 -162.5 30 -221.5 90s-88.5 133.667 -88.5 221c0 86.667 29.667 160.167 89 220.5s133 90.5 221 90.5s161.833 -30.167 221.5 -90.5s89.5 -133.833 89.5 -220.5c0 -87.333 -29.667 -161 -89 -221s-133.333 -90 -222 -90zM429 941
c60.667 0 111 20.667 151 62s60 91 60 149c0 58.667 -20 108.334 -60 149.001s-90.333 61 -151 61c-60 0 -109.833 -20.333 -149.5 -61s-59.5 -90.334 -59.5 -149.001c0 -58 19.667 -107.667 59 -149s89.333 -62 150 -62z" />
    <glyph glyph-name="plusminus" unicode="&#xb1;" horiz-adv-x="1321" 
d="M1161 112h-1002v114h1002v-114zM718 671v-317h-115v317h-444v105h444v309h115v-309h443v-105h-443z" />
    <glyph glyph-name="two.sups" unicode="&#xb2;" horiz-adv-x="801" 
d="M98 1538c0.666992 80 28.668 145.332 84.001 195.999s126.666 76 213.999 76c86 0 156.5 -23.667 211.5 -71s82.5 -107.666 82.5 -180.999c0 -45.333 -13.667 -90.666 -41 -135.999s-79 -106.333 -155 -183l-216 -220v-12h432v-105h-606v85l306 318
c61.333 62.667 103 111 125 145s33 67.667 33 101c0 45.333 -16.5 83 -49.5 113s-74.833 45 -125.5 45c-52 0 -94.333 -15.833 -127 -47.5s-49.667 -72.834 -51 -123.501v-1h-117v1z" />
    <glyph glyph-name="three.sups" unicode="&#xb3;" horiz-adv-x="827" 
d="M298 1310l0.000976562 96h105c52.667 0 95.5 14.167 128.5 42.5s49.5 65.166 49.5 110.499c0 43.333 -16.333 78.833 -49 106.5s-74.667 41.5 -126 41.5c-50.667 0 -92.5 -13.833 -125.5 -41.5s-51.167 -64.167 -54.5 -109.5h-117
c3.33301 76.667 32.333 137.834 87 183.501s126 68.5 214 68.5c83.333 0 152.833 -22.167 208.5 -66.5s83.5 -99.833 83.5 -166.5c0 -52 -15.5 -96.667 -46.5 -134s-72.167 -61 -123.5 -71v-13c63.333 -4.66699 113.833 -26.5 151.5 -65.5s56.5 -88.833 56.5 -149.5
c0 -75.333 -31.167 -137.833 -93.5 -187.5s-140.833 -74.5 -235.5 -74.5c-91.333 0 -167 24 -227 72s-91.333 110 -94 186h120c3.33301 -45.333 23.666 -82.333 60.999 -111s84.333 -43 141 -43c58 0 106 15.5 144 46.5s57 70.5 57 118.5c0 50 -18.5 89.333 -55.5 118
s-87.833 43 -152.5 43h-107z" />
    <glyph glyph-name="acute" unicode="&#xb4;" horiz-adv-x="999" 
d="M273 1267l250 327h168l-269 -327h-149z" />
    <glyph glyph-name="paragraph" unicode="&#xb6;" horiz-adv-x="1316" 
d="M826 -195l-136.999 0.000976562v770h-20c-136.667 0 -249.834 40.667 -339.501 122s-134.5 183.666 -134.5 306.999c0 128.667 44.5 234 133.5 316s202.833 123 341.5 123h156v-1638zM984.001 -194.999v1638h137v-1638h-137z" />
    <glyph glyph-name="periodcentered" unicode="&#xb7;" horiz-adv-x="630" 
d="M316 597c-41.333 0 -75.333 13.333 -102 40s-40 60.667 -40 102s13.333 75.333 40 102s60.667 40 102 40c40.667 0 74.167 -13.333 100.5 -40s39.5 -60.667 39.5 -102s-13.167 -75.333 -39.5 -102s-59.833 -40 -100.5 -40z" />
    <glyph glyph-name="cedilla" unicode="&#xb8;" horiz-adv-x="999" 
d="M363 -224v67l64 157h106l-57 -142c66.667 0 118.834 -13.833 156.501 -41.5s56.5 -67.167 56.5 -118.5c0 -54 -21 -97.833 -63 -131.5s-98 -50.5 -168 -50.5c-52 0 -99.667 6.66699 -143 20v87c33.333 -12 75.666 -18 126.999 -18c40 0 72 8 96 24s36 38 36 66
c0 54 -51.667 81 -155 81h-56z" />
    <glyph glyph-name="one.sups" unicode="&#xb9;" horiz-adv-x="625" 
d="M436 902h-119v766h-12c-11.333 -7.33301 -50.5 -34.333 -117.5 -81s-103.167 -71.667 -108.5 -75v119l238 161h119v-890z" />
    <glyph glyph-name="ordmasculine" unicode="&#xba;" horiz-adv-x="1032" 
d="M516 644c86.667 0 154.667 31 204 93s74 148.333 74 259c0 111.333 -24.667 198 -74 260s-117.333 93 -204 93c-86 0 -153.667 -31.167 -203 -93.5s-74 -148.833 -74 -259.5s24.667 -197 74 -259s117 -93 203 -93zM516 532c-126 0 -225.667 41.5 -299 124.5
s-110 196.167 -110 339.5c0 142.667 36.833 255.667 110.5 339s173.167 125 298.5 125c126 0 225.833 -41.5 299.5 -124.5s110.5 -196.167 110.5 -339.5s-36.833 -256.5 -110.5 -339.5s-173.5 -124.5 -299.5 -124.5z" />
    <glyph glyph-name="guillemotright" unicode="&#xbb;" horiz-adv-x="1363" 
d="M568 572l-357 411h157l359 -414v-6l-358 -414h-158l357 410v13zM1019 572l-357 411h157l359 -414v-6l-359 -414h-157l357 410v13z" />
    <glyph glyph-name="onequarter" unicode="&#xbc;" horiz-adv-x="1945" 
d="M1536 890h176.001v-602h128v-102h-128v-186h-120v186h-456v108c63.333 107.333 196.666 306 399.999 596zM1253 292v-7h341v505h-5c-156 -217.333 -268 -383.333 -336 -498zM436.001 553h-119v766h-12c-11.333 -7.33301 -50.5 -34.333 -117.5 -81
s-103.167 -71.667 -108.5 -75v119l238 161h119v-890zM514.001 0l332 751l305 692h128l-318 -721l-319 -722h-128z" />
    <glyph glyph-name="onehalf" unicode="&#xbd;" horiz-adv-x="1945" 
d="M1222 636c0.666992 80 28.668 145.332 84.001 195.999s126.666 76 213.999 76c86 0 156.5 -23.667 211.5 -71s82.5 -107.666 82.5 -180.999c0 -45.333 -13.667 -90.666 -41 -135.999s-79 -106.333 -155 -183l-216 -220v-12h432v-105h-606v85l306 318
c61.333 62.667 103 111 125 145s33 67.667 33 101c0 45.333 -16.5 83 -49.5 113s-74.833 45 -125.5 45c-52 0 -94.333 -15.833 -127 -47.5s-49.667 -72.834 -51 -123.501v-1h-117v1zM436.001 552.999h-119v766h-12c-11.333 -7.33301 -50.5 -34.333 -117.5 -81
s-103.167 -71.667 -108.5 -75v119l238 161h119v-890zM514.001 -0.000976562l332 751l305 692h128l-318 -721l-319 -722h-128z" />
    <glyph glyph-name="threequarters" unicode="&#xbe;" horiz-adv-x="2134" 
d="M298 961l0.000976562 96h105c52.667 0 95.5 14.167 128.5 42.5s49.5 65.166 49.5 110.499c0 43.333 -16.333 78.833 -49 106.5s-74.667 41.5 -126 41.5c-50.667 0 -92.5 -13.833 -125.5 -41.5s-51.167 -64.167 -54.5 -109.5h-117
c3.33301 76.667 32.333 137.834 87 183.501s126 68.5 214 68.5c83.333 0 152.833 -22.167 208.5 -66.5s83.5 -99.833 83.5 -166.5c0 -52 -15.5 -96.667 -46.5 -134s-72.167 -61 -123.5 -71v-13c63.333 -4.66699 113.833 -26.5 151.5 -65.5s56.5 -88.833 56.5 -149.5
c0 -75.333 -31.167 -137.833 -93.5 -187.5s-140.833 -74.5 -235.5 -74.5c-91.333 0 -167 24 -227 72s-91.333 110 -94 186h120c3.33301 -45.333 23.666 -82.333 60.999 -111s84.333 -43 141 -43c58 0 106 15.5 144 46.5s57 70.5 57 118.5c0 50 -18.5 89.333 -55.5 118
s-87.833 43 -152.5 43h-107zM1726 890h176.001v-602h128v-102h-128v-186h-120v186h-456v108c63.333 107.333 196.666 306 399.999 596zM1443 292v-7h341v505h-5c-156 -217.333 -268 -383.333 -336 -498zM704.002 0l332 751l305 692h128l-318 -721l-319 -722h-128z" />
    <glyph glyph-name="questiondown" unicode="&#xbf;" horiz-adv-x="1019" 
d="M938 21c-6 -110 -46.168 -200.5 -120.501 -271.5s-173.833 -106.5 -298.5 -106.5c-120 0 -218.333 34.167 -295 102.5s-115 154.166 -115 257.499c0 72 17.5 135.333 52.5 190s87.5 104.667 157.5 150c65.333 41.333 109.666 79.5 132.999 114.5s35 80.5 35 136.5v76h133
v-95c0.666992 -65.333 -14.166 -121.333 -44.499 -168s-81.166 -93 -152.499 -139c-62.667 -40.667 -107.167 -80.667 -133.5 -120s-39.5 -85.666 -39.5 -138.999c0 -72 25.5 -131.167 76.5 -177.5s116.833 -69.5 197.5 -69.5c80 0 145.667 23.333 197 70
s80.333 109.667 87 189h130zM541.999 884c-33.333 0 -61.166 11 -83.499 33s-33.5 50 -33.5 84c0 33.333 11.167 61.166 33.5 83.499s50.166 33.5 83.499 33.5s61 -11.167 83 -33.5s33 -50.166 33 -83.499c0 -34 -11 -62 -33 -84s-49.667 -33 -83 -33z" />
    <glyph glyph-name="Agrave" unicode="&#xc0;" horiz-adv-x="1363" 
d="M1145 0l-160 442h-606l-160 -442h-145l540 1443h136l539 -1443h-144zM675 1264l-255 -704h524l-256 704h-13zM457 1874l309 -297h-157l-326 297h174z" />
    <glyph glyph-name="Aacute" unicode="&#xc1;" horiz-adv-x="1363" 
d="M1145 0l-160 442h-606l-160 -442h-145l540 1443h136l539 -1443h-144zM675 1264l-255 -704h524l-256 704h-13zM595 1577l310 297h174l-326 -297h-158z" />
    <glyph glyph-name="Acircumflex" unicode="&#xc2;" horiz-adv-x="1363" 
d="M1145 0l-160 442h-606l-160 -442h-145l540 1443h136l539 -1443h-144zM675 1264l-255 -704h524l-256 704h-13zM744 1874l289 -297h-155l-190 202h-12l-190 -202h-155l289 297h124z" />
    <glyph glyph-name="Atilde" unicode="&#xc3;" horiz-adv-x="1363" 
d="M1145 0l-160 442h-606l-160 -442h-145l540 1443h136l539 -1443h-144zM675 1264l-255 -704h524l-256 704h-13zM827 1577c-28.667 0 -54.835 5.66602 -78.502 16.999s-43.5 25.166 -59.5 41.499l-45.5 48.5c-14.333 16 -30.333 29.667 -48 41s-36.167 17 -55.5 17
c-64.667 0 -98.334 -51.333 -101.001 -154h-106c0 79.333 18.5 141.833 55.5 187.5s86.5 68.5 148.5 68.5c30 0 57.5 -5.66699 82.5 -17s45.833 -25.166 62.5 -41.499s32.334 -32.666 47.001 -48.999s30 -30.166 46 -41.499s32.333 -17 49 -17
c28.667 0 52.334 12.667 71.001 38s29 64 31 116h105c0 -76.667 -18.667 -138.334 -56 -185.001s-86.666 -70 -147.999 -70z" />
    <glyph glyph-name="Adieresis" unicode="&#xc4;" horiz-adv-x="1363" 
d="M1145 0l-160 442h-606l-160 -442h-145l540 1443h136l539 -1443h-144zM675 1264l-255 -704h524l-256 704h-13zM500 1568c-28 0 -52 9.83301 -72 29.5s-30 43.834 -30 72.501s10 52.834 30 72.501s44 29.5 72 29.5c28.667 0 52.834 -9.83301 72.501 -29.5
s29.5 -43.834 29.5 -72.501s-9.83301 -52.834 -29.5 -72.501s-43.834 -29.5 -72.501 -29.5zM864 1568c-28 0 -52 9.83301 -72 29.5s-30 43.834 -30 72.501s10 52.834 30 72.501s44 29.5 72 29.5c28.667 0 52.834 -9.83301 72.501 -29.5s29.5 -43.834 29.5 -72.501
s-9.83301 -52.834 -29.5 -72.501s-43.834 -29.5 -72.501 -29.5z" />
    <glyph glyph-name="Aring" unicode="&#xc5;" horiz-adv-x="1363" 
d="M1145 0l-160 442h-606l-160 -442h-145l540 1443h136l539 -1443h-144zM675 1264l-255 -704h524l-256 704h-13zM682 1570c-59.333 0 -109.666 20.333 -150.999 61s-62 90.667 -62 150c0 58.667 20.667 108.334 62 149.001s91.666 61 150.999 61
s109.666 -20.333 150.999 -61s62 -90.334 62 -149.001c0 -59.333 -20.667 -109.333 -62 -150s-91.666 -61 -150.999 -61zM682 1655c35.333 0 65 12.167 89 36.5s36 54.166 36 89.499s-12 65 -36 89s-53.667 36 -89 36s-65 -12 -89 -36s-36 -53.667 -36 -89
s12 -65.166 36 -89.499s53.667 -36.5 89 -36.5z" />
    <glyph glyph-name="AE" unicode="&#xc6;" horiz-adv-x="1955" 
d="M1002 1327h-161l-365 -766h526v766zM1002 0v443h-581l-208 -443h-139l678 1443h1063v-124h-677v-526h640v-122h-640v-547h677v-124h-813z" />
    <glyph glyph-name="Ccedilla" unicode="&#xc7;" horiz-adv-x="1455" 
d="M1338 1002l-139.003 -0.00195312c-20.667 102 -71.5 184.833 -152.5 248.5s-175.833 95.5 -284.5 95.5c-151.333 0 -271.666 -56.5 -360.999 -169.5s-134 -264.833 -134 -455.5c0 -191.333 44.667 -343.166 134 -455.499s210 -168.5 362 -168.5
c111.333 0 206.833 28.667 286.5 86s129.5 133.333 149.5 228h139c-19.333 -124.667 -76.166 -226.667 -170.499 -306s-211.5 -123.666 -351.5 -132.999l-46 -114c66.667 0 118.834 -13.833 156.501 -41.5s56.5 -67.167 56.5 -118.5c0 -54 -21 -97.833 -63 -131.5
s-98 -50.5 -168 -50.5c-52 0 -99.667 6.66699 -143 20v87c33.333 -12 75.666 -18 126.999 -18c40 0 72 8 96 24s36 38 36 66c0 54 -51.667 81 -155 81h-56v67l53 129c-180.667 12.667 -323 85.5 -427 218.5s-156 309.833 -156 530.5c0 231.333 57 414.5 171 549.5
s268.667 202.5 464 202.5c98 0 188.5 -20.167 271.5 -60.5s151.333 -96.333 205 -168s86.834 -152.5 99.501 -242.5z" />
    <glyph glyph-name="Egrave" unicode="&#xc8;" horiz-adv-x="1197" 
d="M396 1874l309 -297h-157l-326 297h174zM1057 124v-124h-872v1443h872v-124h-735v-519h698v-122h-698v-554h735z" />
    <glyph glyph-name="Eacute" unicode="&#xc9;" horiz-adv-x="1197" 
d="M534 1577l310 297h174l-326 -297h-158zM1057 124v-124h-872v1443h872v-124h-735v-519h698v-122h-698v-554h735z" />
    <glyph glyph-name="Ecircumflex" unicode="&#xca;" horiz-adv-x="1197" 
d="M683 1874l289 -297h-155l-190 202h-12l-190 -202h-155l289 297h124zM1057 124v-124h-872v1443h872v-124h-735v-519h698v-122h-698v-554h735z" />
    <glyph glyph-name="Edieresis" unicode="&#xcb;" horiz-adv-x="1197" 
d="M439 1568c-28 0 -52 9.83301 -72 29.5s-30 43.834 -30 72.501s10 52.834 30 72.501s44 29.5 72 29.5c28.667 0 52.834 -9.83301 72.501 -29.5s29.5 -43.834 29.5 -72.501s-9.83301 -52.834 -29.5 -72.501s-43.834 -29.5 -72.501 -29.5zM803 1568
c-28 0 -52 9.83301 -72 29.5s-30 43.834 -30 72.501s10 52.834 30 72.501s44 29.5 72 29.5c28.667 0 52.834 -9.83301 72.501 -29.5s29.5 -43.834 29.5 -72.501s-9.83301 -52.834 -29.5 -72.501s-43.834 -29.5 -72.501 -29.5zM1057 124v-124h-872v1443h872v-124h-735v-519
h698v-122h-698v-554h735z" />
    <glyph glyph-name="Igrave" unicode="&#xcc;" horiz-adv-x="507" 
d="M322 0h-137v1443h137v-1443zM29 1874l309 -297h-157l-326 297h174z" />
    <glyph glyph-name="Iacute" unicode="&#xcd;" horiz-adv-x="507" 
d="M322 0h-137v1443h137v-1443zM167 1577l310 297h174l-326 -297h-158z" />
    <glyph glyph-name="Icircumflex" unicode="&#xce;" horiz-adv-x="507" 
d="M322 0h-137v1443h137v-1443zM316 1874l289 -297h-155l-190 202h-12l-190 -202h-155l289 297h124z" />
    <glyph glyph-name="Idieresis" unicode="&#xcf;" horiz-adv-x="507" 
d="M322 0h-137v1443h137v-1443zM72 1568c-28 0 -52 9.83301 -72 29.5s-30 43.834 -30 72.501s10 52.834 30 72.501s44 29.5 72 29.5c28.667 0 52.834 -9.83301 72.501 -29.5s29.5 -43.834 29.5 -72.501s-9.83301 -52.834 -29.5 -72.501s-43.834 -29.5 -72.501 -29.5z
M436 1568c-28 0 -52 9.83301 -72 29.5s-30 43.834 -30 72.501s10 52.834 30 72.501s44 29.5 72 29.5c28.667 0 52.834 -9.83301 72.501 -29.5s29.5 -43.834 29.5 -72.501s-9.83301 -52.834 -29.5 -72.501s-43.834 -29.5 -72.501 -29.5z" />
    <glyph glyph-name="Eth" unicode="&#xd0;" horiz-adv-x="1447" 
d="M322 124l330 0.000976562c175.333 0 311.333 52.667 408 158s145 251.666 145 438.999s-48.333 333.833 -145 439.5s-232.667 158.5 -408 158.5h-330v-514h262v-124h-262v-557zM185 1443h475c218 0 386.667 -63.667 506 -191s179 -304 179 -530
c0 -226.667 -59.5 -403.667 -178.5 -531s-287.833 -191 -506.5 -191h-475v681h-173v124h173v638z" />
    <glyph glyph-name="Ntilde" unicode="&#xd1;" horiz-adv-x="1494" 
d="M892 1577c-28.667 0 -54.835 5.66602 -78.502 16.999s-43.5 25.166 -59.5 41.499l-45.5 48.5c-14.333 16 -30.333 29.667 -48 41s-36.167 17 -55.5 17c-64.667 0 -98.334 -51.333 -101.001 -154h-106c0 79.333 18.5 141.833 55.5 187.5s86.5 68.5 148.5 68.5
c30 0 57.5 -5.66699 82.5 -17s45.833 -25.166 62.5 -41.499s32.334 -32.666 47.001 -48.999s30 -30.166 46 -41.499s32.333 -17 49 -17c28.667 0 52.334 12.667 71.001 38s29 64 31 116h105c0 -76.667 -18.667 -138.334 -56 -185.001s-86.666 -70 -147.999 -70z
M319.999 -0.000976562h-135v1443h135l841 -1198h13v1198h135v-1443h-132l-844 1199h-13v-1199z" />
    <glyph glyph-name="Ograve" unicode="&#xd2;" horiz-adv-x="1561" 
d="M556 1874l309 -297h-157l-326 297h174zM781 1473c202 0 361.169 -67.333 477.502 -202s174.5 -317.667 174.5 -549s-58.167 -414.5 -174.5 -549.5s-275.5 -202.5 -477.5 -202.5c-202.667 0 -362.334 67.5 -479.001 202.5s-175 318.167 -175 549.5
c0 230.667 58.667 413.5 176 548.5s276.666 202.5 477.999 202.5zM781.002 1346c-157.333 0 -282.333 -56.167 -375 -168.5s-139 -264.166 -139 -455.499c0 -190.667 46 -342.5 138 -455.5s217.333 -169.5 376 -169.5c158 0 282.833 56.5 374.5 169.5
s137.5 264.833 137.5 455.5c0 191.333 -45.833 343.166 -137.5 455.499s-216.5 168.5 -374.5 168.5z" />
    <glyph glyph-name="Oacute" unicode="&#xd3;" horiz-adv-x="1561" 
d="M694 1577l310 297h174l-326 -297h-158zM781 1473c202 0 361.169 -67.333 477.502 -202s174.5 -317.667 174.5 -549s-58.167 -414.5 -174.5 -549.5s-275.5 -202.5 -477.5 -202.5c-202.667 0 -362.334 67.5 -479.001 202.5s-175 318.167 -175 549.5
c0 230.667 58.667 413.5 176 548.5s276.666 202.5 477.999 202.5zM781.002 1346c-157.333 0 -282.333 -56.167 -375 -168.5s-139 -264.166 -139 -455.499c0 -190.667 46 -342.5 138 -455.5s217.333 -169.5 376 -169.5c158 0 282.833 56.5 374.5 169.5
s137.5 264.833 137.5 455.5c0 191.333 -45.833 343.166 -137.5 455.499s-216.5 168.5 -374.5 168.5z" />
    <glyph glyph-name="Ocircumflex" unicode="&#xd4;" horiz-adv-x="1561" 
d="M843 1874l289 -297h-155l-190 202h-12l-190 -202h-155l289 297h124zM781 1473c202 0 361.169 -67.333 477.502 -202s174.5 -317.667 174.5 -549s-58.167 -414.5 -174.5 -549.5s-275.5 -202.5 -477.5 -202.5c-202.667 0 -362.334 67.5 -479.001 202.5
s-175 318.167 -175 549.5c0 230.667 58.667 413.5 176 548.5s276.666 202.5 477.999 202.5zM781.002 1346c-157.333 0 -282.333 -56.167 -375 -168.5s-139 -264.166 -139 -455.499c0 -190.667 46 -342.5 138 -455.5s217.333 -169.5 376 -169.5
c158 0 282.833 56.5 374.5 169.5s137.5 264.833 137.5 455.5c0 191.333 -45.833 343.166 -137.5 455.499s-216.5 168.5 -374.5 168.5z" />
    <glyph glyph-name="Otilde" unicode="&#xd5;" horiz-adv-x="1561" 
d="M781 1473c202 0 361.169 -67.333 477.502 -202s174.5 -317.667 174.5 -549s-58.167 -414.5 -174.5 -549.5s-275.5 -202.5 -477.5 -202.5c-202.667 0 -362.334 67.5 -479.001 202.5s-175 318.167 -175 549.5c0 230.667 58.667 413.5 176 548.5
s276.666 202.5 477.999 202.5zM781.002 1346c-157.333 0 -282.333 -56.167 -375 -168.5s-139 -264.166 -139 -455.499c0 -190.667 46 -342.5 138 -455.5s217.333 -169.5 376 -169.5c158 0 282.833 56.5 374.5 169.5s137.5 264.833 137.5 455.5
c0 191.333 -45.833 343.166 -137.5 455.499s-216.5 168.5 -374.5 168.5zM926.002 1577c-28.667 0 -54.835 5.66602 -78.502 16.999s-43.5 25.166 -59.5 41.499l-45.5 48.5c-14.333 16 -30.333 29.667 -48 41s-36.167 17 -55.5 17c-64.667 0 -98.334 -51.333 -101.001 -154
h-106c0 79.333 18.5 141.833 55.5 187.5s86.5 68.5 148.5 68.5c30 0 57.5 -5.66699 82.5 -17s45.833 -25.166 62.5 -41.499s32.334 -32.666 47.001 -48.999s30 -30.166 46 -41.499s32.333 -17 49 -17c28.667 0 52.334 12.667 71.001 38s29 64 31 116h105
c0 -76.667 -18.667 -138.334 -56 -185.001s-86.666 -70 -147.999 -70z" />
    <glyph glyph-name="Odieresis" unicode="&#xd6;" horiz-adv-x="1561" 
d="M599 1568c-28 0 -52 9.83301 -72 29.5s-30 43.834 -30 72.501s10 52.834 30 72.501s44 29.5 72 29.5c28.667 0 52.834 -9.83301 72.501 -29.5s29.5 -43.834 29.5 -72.501s-9.83301 -52.834 -29.5 -72.501s-43.834 -29.5 -72.501 -29.5zM963 1568
c-28 0 -52 9.83301 -72 29.5s-30 43.834 -30 72.501s10 52.834 30 72.501s44 29.5 72 29.5c28.667 0 52.834 -9.83301 72.501 -29.5s29.5 -43.834 29.5 -72.501s-9.83301 -52.834 -29.5 -72.501s-43.834 -29.5 -72.501 -29.5zM781 1473c202 0 361.169 -67.333 477.502 -202
s174.5 -317.667 174.5 -549s-58.167 -414.5 -174.5 -549.5s-275.5 -202.5 -477.5 -202.5c-202.667 0 -362.334 67.5 -479.001 202.5s-175 318.167 -175 549.5c0 230.667 58.667 413.5 176 548.5s276.666 202.5 477.999 202.5zM781.002 1346
c-157.333 0 -282.333 -56.167 -375 -168.5s-139 -264.166 -139 -455.499c0 -190.667 46 -342.5 138 -455.5s217.333 -169.5 376 -169.5c158 0 282.833 56.5 374.5 169.5s137.5 264.833 137.5 455.5c0 191.333 -45.833 343.166 -137.5 455.499s-216.5 168.5 -374.5 168.5z
" />
    <glyph glyph-name="multiply" unicode="&#xd7;" horiz-adv-x="1321" 
d="M661 499l-315 -314l-80 80l313 315l-313 314l80 81l314 -314l314 313l81 -80l-313 -314l313 -314l-81 -81z" />
    <glyph glyph-name="Oslash" unicode="&#xd8;" horiz-adv-x="1530" 
d="M1164 1167l-722 -941c89.333 -86 202.333 -129 339 -129c158 0 282.833 56.5 374.5 169.5s137.5 264.833 137.5 455.5c0 184.667 -43 333 -129 445zM378 302l719 934.999c-84.667 72.667 -190 109 -316 109c-157.333 0 -282.333 -56.167 -375 -168.5
s-139 -264.166 -139 -455.499c0 -170 37 -310 111 -420zM1386 1457l-135.999 -177c122 -134.667 183 -320.667 183 -558c0 -231.333 -58.167 -414.5 -174.5 -549.5s-275.5 -202.5 -477.5 -202.5c-169.333 0 -310.333 48.667 -423 146l-142 -186l-79 59l152 198
c-108 134 -162 312.333 -162 535c0 230.667 58.667 413.5 176 548.5s276.666 202.5 477.999 202.5c157.333 0 290.333 -42.333 399 -127l128 166z" />
    <glyph glyph-name="Ugrave" unicode="&#xd9;" horiz-adv-x="1494" 
d="M522 1874l309 -297h-157l-326 297h174zM325 1443l0.000976562 -934c0 -122 38 -220.667 114 -296s178.667 -113 308 -113s232 37.667 308 113s114 174 114 296v934h137v-943c0 -158 -50.333 -285.167 -151 -381.5s-236.667 -144.5 -408 -144.5
c-170.667 0 -306.334 48.167 -407.001 144.5s-151 223.5 -151 381.5v943h136z" />
    <glyph glyph-name="Uacute" unicode="&#xda;" horiz-adv-x="1494" 
d="M660 1577l310 297h174l-326 -297h-158zM325 1443l0.000976562 -934c0 -122 38 -220.667 114 -296s178.667 -113 308 -113s232 37.667 308 113s114 174 114 296v934h137v-943c0 -158 -50.333 -285.167 -151 -381.5s-236.667 -144.5 -408 -144.5
c-170.667 0 -306.334 48.167 -407.001 144.5s-151 223.5 -151 381.5v943h136z" />
    <glyph glyph-name="Ucircumflex" unicode="&#xdb;" horiz-adv-x="1494" 
d="M809 1874l289 -297h-155l-190 202h-12l-190 -202h-155l289 297h124zM325 1443l0.000976562 -934c0 -122 38 -220.667 114 -296s178.667 -113 308 -113s232 37.667 308 113s114 174 114 296v934h137v-943c0 -158 -50.333 -285.167 -151 -381.5
s-236.667 -144.5 -408 -144.5c-170.667 0 -306.334 48.167 -407.001 144.5s-151 223.5 -151 381.5v943h136z" />
    <glyph glyph-name="Udieresis" unicode="&#xdc;" horiz-adv-x="1494" 
d="M565 1568c-28 0 -52 9.83301 -72 29.5s-30 43.834 -30 72.501s10 52.834 30 72.501s44 29.5 72 29.5c28.667 0 52.834 -9.83301 72.501 -29.5s29.5 -43.834 29.5 -72.501s-9.83301 -52.834 -29.5 -72.501s-43.834 -29.5 -72.501 -29.5zM929 1568
c-28 0 -52 9.83301 -72 29.5s-30 43.834 -30 72.501s10 52.834 30 72.501s44 29.5 72 29.5c28.667 0 52.834 -9.83301 72.501 -29.5s29.5 -43.834 29.5 -72.501s-9.83301 -52.834 -29.5 -72.501s-43.834 -29.5 -72.501 -29.5zM325 1443l0.000976562 -934
c0 -122 38 -220.667 114 -296s178.667 -113 308 -113s232 37.667 308 113s114 174 114 296v934h137v-943c0 -158 -50.333 -285.167 -151 -381.5s-236.667 -144.5 -408 -144.5c-170.667 0 -306.334 48.167 -407.001 144.5s-151 223.5 -151 381.5v943h136z" />
    <glyph glyph-name="Yacute" unicode="&#xdd;" horiz-adv-x="1321" 
d="M729 0h-136v624l-518 819h157l423 -680h12l423 680h156l-517 -819v-624zM574 1577l310 297h174l-326 -297h-158z" />
    <glyph glyph-name="Thorn" unicode="&#xde;" horiz-adv-x="1270" 
d="M185 1443h137v-274h386c122.667 0 225.167 -37 307.5 -111s123.5 -173.667 123.5 -299c0 -84 -19.5 -157.5 -58.5 -220.5s-91 -110.5 -156 -142.5s-137.5 -48 -217.5 -48h-385v-348h-137v1443zM322 1046v-576h352c99.333 0 178.333 25.167 237 75.5s88 121.5 88 213.5
c0 91.333 -29.333 162 -88 212s-137.667 75 -237 75h-352z" />
    <glyph glyph-name="germandbls" unicode="&#xdf;" horiz-adv-x="1229" 
d="M341 0h-130.001v1101c0 120.667 36.5 216.167 109.5 286.5s170.5 105.5 292.5 105.5c118 0 214.333 -34.167 289 -102.5s112 -155.833 112 -262.5c0 -82 -22.333 -154.167 -67 -216.5s-101 -103.5 -169 -123.5v-13c104 -10 188 -48 252 -114s96 -152.667 96 -260
c0 -119.333 -42.167 -218.666 -126.5 -297.999s-192.5 -119 -324.5 -119c-57.333 0 -109 4.66699 -155 14v119c40.667 -10.667 89.667 -16 147 -16c98.667 0 178.167 28 238.5 84s90.5 128.333 90.5 217c0 91.333 -33.333 164.666 -100 219.999s-158 83 -274 83h-77v129h70
c80 0 145 25.833 195 77.5s75 121.5 75 209.5c0 74 -24.667 135 -74 183s-114.666 72 -195.999 72c-86.667 0 -154 -25.5 -202 -76.5s-72 -121.833 -72 -212.5v-1087z" />
    <glyph glyph-name="agrave" unicode="&#xe0;" horiz-adv-x="1125" 
d="M491 98c96.667 0 177.5 29.168 242.5 87.501s97.5 130.166 97.5 215.499v126l-319 -23c-180.667 -12.667 -271 -80.667 -271 -204c0 -61.333 23.333 -110.333 70 -147s106.667 -55 180 -55zM469 -17.999c-106.667 0 -193.831 28.833 -261.498 86.5
s-101.5 134.167 -101.5 229.5c0 93.333 33.333 166.833 100 220.5s162.667 84.834 288 93.501l337 22v104c0 77.333 -22.833 136.666 -68.5 177.999s-112.167 62 -199.5 62c-74 0 -136.167 -14.833 -186.5 -44.5s-81.833 -70.5 -94.5 -122.5h-133
c12.667 85.333 57.167 154 133.5 206s171.166 78 284.499 78c126 0 223.5 -31.167 292.5 -93.5s103.5 -149.833 103.5 -262.5v-739h-126v185h-12c-32.667 -64 -80.334 -113.833 -143.001 -149.5s-133.667 -53.5 -213 -53.5zM664.003 1267h-149l-269 327h168z" />
    <glyph glyph-name="aacute" unicode="&#xe1;" horiz-adv-x="1125" 
d="M491 98c96.667 0 177.5 29.168 242.5 87.501s97.5 130.166 97.5 215.499v126l-319 -23c-180.667 -12.667 -271 -80.667 -271 -204c0 -61.333 23.333 -110.333 70 -147s106.667 -55 180 -55zM469 -17.999c-106.667 0 -193.831 28.833 -261.498 86.5
s-101.5 134.167 -101.5 229.5c0 93.333 33.333 166.833 100 220.5s162.667 84.834 288 93.501l337 22v104c0 77.333 -22.833 136.666 -68.5 177.999s-112.167 62 -199.5 62c-74 0 -136.167 -14.833 -186.5 -44.5s-81.833 -70.5 -94.5 -122.5h-133
c12.667 85.333 57.167 154 133.5 206s171.166 78 284.499 78c126 0 223.5 -31.167 292.5 -93.5s103.5 -149.833 103.5 -262.5v-739h-126v185h-12c-32.667 -64 -80.334 -113.833 -143.001 -149.5s-133.667 -53.5 -213 -53.5zM478.003 1267l250 327h168l-269 -327h-149z" />
    <glyph glyph-name="acircumflex" unicode="&#xe2;" horiz-adv-x="1125" 
d="M491 98c96.667 0 177.5 29.168 242.5 87.501s97.5 130.166 97.5 215.499v126l-319 -23c-180.667 -12.667 -271 -80.667 -271 -204c0 -61.333 23.333 -110.333 70 -147s106.667 -55 180 -55zM469 -17.999c-106.667 0 -193.831 28.833 -261.498 86.5
s-101.5 134.167 -101.5 229.5c0 93.333 33.333 166.833 100 220.5s162.667 84.834 288 93.501l337 22v104c0 77.333 -22.833 136.666 -68.5 177.999s-112.167 62 -199.5 62c-74 0 -136.167 -14.833 -186.5 -44.5s-81.833 -70.5 -94.5 -122.5h-133
c12.667 85.333 57.167 154 133.5 206s171.166 78 284.499 78c126 0 223.5 -31.167 292.5 -93.5s103.5 -149.833 103.5 -262.5v-739h-126v185h-12c-32.667 -64 -80.334 -113.833 -143.001 -149.5s-133.667 -53.5 -213 -53.5zM644.003 1560l275 -332h-153l-193 243h-12
l-193 -243h-153l275 332h154z" />
    <glyph glyph-name="atilde" unicode="&#xe3;" horiz-adv-x="1125" 
d="M491 98c96.667 0 177.5 29.168 242.5 87.501s97.5 130.166 97.5 215.499v126l-319 -23c-180.667 -12.667 -271 -80.667 -271 -204c0 -61.333 23.333 -110.333 70 -147s106.667 -55 180 -55zM469 -17.999c-106.667 0 -193.831 28.833 -261.498 86.5
s-101.5 134.167 -101.5 229.5c0 93.333 33.333 166.833 100 220.5s162.667 84.834 288 93.501l337 22v104c0 77.333 -22.833 136.666 -68.5 177.999s-112.167 62 -199.5 62c-74 0 -136.167 -14.833 -186.5 -44.5s-81.833 -70.5 -94.5 -122.5h-133
c12.667 85.333 57.167 154 133.5 206s171.166 78 284.499 78c126 0 223.5 -31.167 292.5 -93.5s103.5 -149.833 103.5 -262.5v-739h-126v185h-12c-32.667 -64 -80.334 -113.833 -143.001 -149.5s-133.667 -53.5 -213 -53.5zM431.003 1388
c-69.333 0 -104 -52.668 -104 -158.001h-111c0 80.667 18.667 144.5 56 191.5s88.333 70.5 153 70.5c28.667 0 55 -5.5 79 -16.5s44.167 -24.167 60.5 -39.5s31.833 -30.666 46.5 -45.999s29.834 -28.5 45.501 -39.5s31.5 -16.5 47.5 -16.5c69.333 0 104 52.667 104 158h110
c0 -80.667 -18.667 -144.5 -56 -191.5s-88.333 -70.5 -153 -70.5c-28 0 -54.167 5.5 -78.5 16.5s-44.5 24.167 -60.5 39.5l-46 46c-14.667 15.333 -29.834 28.5 -45.501 39.5s-31.5 16.5 -47.5 16.5z" />
    <glyph glyph-name="adieresis" unicode="&#xe4;" horiz-adv-x="1125" 
d="M491 98c96.667 0 177.5 29.168 242.5 87.501s97.5 130.166 97.5 215.499v126l-319 -23c-180.667 -12.667 -271 -80.667 -271 -204c0 -61.333 23.333 -110.333 70 -147s106.667 -55 180 -55zM469 -17.999c-106.667 0 -193.831 28.833 -261.498 86.5
s-101.5 134.167 -101.5 229.5c0 93.333 33.333 166.833 100 220.5s162.667 84.834 288 93.501l337 22v104c0 77.333 -22.833 136.666 -68.5 177.999s-112.167 62 -199.5 62c-74 0 -136.167 -14.833 -186.5 -44.5s-81.833 -70.5 -94.5 -122.5h-133
c12.667 85.333 57.167 154 133.5 206s171.166 78 284.499 78c126 0 223.5 -31.167 292.5 -93.5s103.5 -149.833 103.5 -262.5v-739h-126v185h-12c-32.667 -64 -80.334 -113.833 -143.001 -149.5s-133.667 -53.5 -213 -53.5zM385.003 1228c-28 0 -52 9.83301 -72 29.5
s-30 43.834 -30 72.501s10 52.834 30 72.501s44 29.5 72 29.5c28.667 0 52.834 -9.83301 72.501 -29.5s29.5 -43.834 29.5 -72.501s-9.83301 -52.834 -29.5 -72.501s-43.834 -29.5 -72.501 -29.5zM749.003 1228c-28 0 -52 9.83301 -72 29.5s-30 43.834 -30 72.501
s10 52.834 30 72.501s44 29.5 72 29.5c28.667 0 52.834 -9.83301 72.501 -29.5s29.5 -43.834 29.5 -72.501s-9.83301 -52.834 -29.5 -72.501s-43.834 -29.5 -72.501 -29.5z" />
    <glyph glyph-name="aring" unicode="&#xe5;" horiz-adv-x="1125" 
d="M491 98c96.667 0 177.5 29.168 242.5 87.501s97.5 130.166 97.5 215.499v126l-319 -23c-180.667 -12.667 -271 -80.667 -271 -204c0 -61.333 23.333 -110.333 70 -147s106.667 -55 180 -55zM469 -17.999c-106.667 0 -193.831 28.833 -261.498 86.5
s-101.5 134.167 -101.5 229.5c0 93.333 33.333 166.833 100 220.5s162.667 84.834 288 93.501l337 22v104c0 77.333 -22.833 136.666 -68.5 177.999s-112.167 62 -199.5 62c-74 0 -136.167 -14.833 -186.5 -44.5s-81.833 -70.5 -94.5 -122.5h-133
c12.667 85.333 57.167 154 133.5 206s171.166 78 284.499 78c126 0 223.5 -31.167 292.5 -93.5s103.5 -149.833 103.5 -262.5v-739h-126v185h-12c-32.667 -64 -80.334 -113.833 -143.001 -149.5s-133.667 -53.5 -213 -53.5zM567.003 1228
c-59.333 0 -109.666 20.333 -150.999 61s-62 90.667 -62 150c0 58.667 20.667 108.334 62 149.001s91.666 61 150.999 61s109.666 -20.333 150.999 -61s62 -90.334 62 -149.001c0 -59.333 -20.667 -109.333 -62 -150s-91.666 -61 -150.999 -61zM567.003 1313
c35.333 0 65 12.167 89 36.5s36 54.166 36 89.499s-12 65 -36 89s-53.667 36 -89 36s-65 -12 -89 -36s-36 -53.667 -36 -89s12 -65.166 36 -89.499s53.667 -36.5 89 -36.5z" />
    <glyph glyph-name="ae" unicode="&#xe6;" horiz-adv-x="1880" 
d="M1314 -18c-93.333 0 -176.497 23.832 -249.497 71.499s-124.5 111.5 -154.5 191.5h-12c-32 -82 -84.667 -146.333 -158 -193s-160 -70 -260 -70c-111.333 0 -201.5 28.5 -270.5 85.5s-103.5 132.833 -103.5 227.5c0 92.667 33.167 165.334 99.5 218.001
s162.166 83 287.499 91l338 21v113c0 77.333 -22.833 136.666 -68.5 177.999s-112.167 62 -199.5 62c-74 0 -136.167 -14.833 -186.5 -44.5s-81.833 -70.5 -94.5 -122.5h-133c12.667 85.333 57.167 154 133.5 206s171.166 78 284.499 78c90 0 166 -20.167 228 -60.5
s103 -95.166 123 -164.499h13c30.667 66 80.167 120 148.5 162s145.5 63 231.5 63c141.333 0 252.5 -46.5 333.5 -139.5s121.5 -220.5 121.5 -382.5v-58h-804v-15c3.33301 -121.333 37 -218.5 101 -291.5s148.333 -109.5 253 -109.5c150.667 0 250.667 55.667 300 167h133
c-26.667 -89.333 -78.334 -159 -155.001 -209s-170 -75 -280 -75zM1305 978.999c-98.667 0 -178.832 -32.3311 -240.499 -96.998s-95.834 -151.334 -102.501 -260.001h667c-1.33301 105.333 -32 191.166 -92 257.499s-137.333 99.5 -232 99.5zM497.005 98.001
c94.667 0 174 30 238 90s96 133 96 219v111l-321 -21c-179.333 -12.667 -269 -79 -269 -199c0 -60.667 23.667 -109.167 71 -145.5s109 -54.5 185 -54.5z" />
    <glyph glyph-name="ccedilla" unicode="&#xe7;" horiz-adv-x="1145" 
d="M1042 760l-133 0.00195312c-17.333 64 -53.166 116.167 -107.499 156.5s-121.5 60.5 -201.5 60.5c-107.333 0 -192.5 -39.333 -255.5 -118s-94.5 -184.334 -94.5 -317.001c0 -134.667 31.667 -241.834 95 -321.501s148.333 -119.5 255 -119.5
c80 0 147.167 18.333 201.5 55s89.833 88 106.5 154h133c-15.333 -90 -56.5 -164.167 -123.5 -222.5s-152.833 -92.5 -257.5 -102.5l-51 -127c66.667 0 118.834 -13.833 156.501 -41.5s56.5 -67.167 56.5 -118.5c0 -54 -21 -97.833 -63 -131.5s-98 -50.5 -168 -50.5
c-52 0 -99.667 6.66699 -143 20v87c33.333 -12 75.666 -18 126.999 -18c40 0 72 8 96 24s36 38 36 66c0 54 -51.667 81 -155 81h-56v67l57 141c-134.667 11.333 -241.334 66.833 -320.001 166.5s-118 230.167 -118 391.5c0 168.667 43.833 303 131.5 403
s205.5 150 353.5 150c120 0 219.5 -31.5 298.5 -94.5s126.833 -143.167 143.5 -240.5z" />
    <glyph glyph-name="egrave" unicode="&#xe8;" horiz-adv-x="1174" 
d="M692 1267h-149l-269 327h168zM595 979c-98 0 -178.333 -33.5 -241 -100.5s-97 -155.833 -103 -266.5h671c-1.33301 111.333 -31.833 200.333 -91.5 267s-138.167 100 -235.5 100zM909 266h133.003c-26.667 -88 -79.334 -157.333 -158.001 -208s-174.334 -76 -287.001 -76
c-148 0 -265.333 50.167 -352 150.5s-130 235.5 -130 405.5c0 169.333 43.5 304.5 130.5 405.5s203.833 151.5 350.5 151.5c143.333 0 256.333 -47.667 339 -143s124 -225.333 124 -390v-58h-809v-6c3.33301 -122 36.5 -219 99.5 -291s146.5 -108 250.5 -108
c76 0 140.667 14.5 194 43.5s91.666 70.167 114.999 123.5z" />
    <glyph glyph-name="eacute" unicode="&#xe9;" horiz-adv-x="1174" 
d="M506 1267l250 327h168l-269 -327h-149zM595 979c-98 0 -178.333 -33.5 -241 -100.5s-97 -155.833 -103 -266.5h671c-1.33301 111.333 -31.833 200.333 -91.5 267s-138.167 100 -235.5 100zM909 266h133.003c-26.667 -88 -79.334 -157.333 -158.001 -208
s-174.334 -76 -287.001 -76c-148 0 -265.333 50.167 -352 150.5s-130 235.5 -130 405.5c0 169.333 43.5 304.5 130.5 405.5s203.833 151.5 350.5 151.5c143.333 0 256.333 -47.667 339 -143s124 -225.333 124 -390v-58h-809v-6c3.33301 -122 36.5 -219 99.5 -291
s146.5 -108 250.5 -108c76 0 140.667 14.5 194 43.5s91.666 70.167 114.999 123.5z" />
    <glyph glyph-name="ecircumflex" unicode="&#xea;" horiz-adv-x="1174" 
d="M672 1560l275 -332h-153l-193 243h-12l-193 -243h-153l275 332h154zM595 979c-98 0 -178.333 -33.5 -241 -100.5s-97 -155.833 -103 -266.5h671c-1.33301 111.333 -31.833 200.333 -91.5 267s-138.167 100 -235.5 100zM909 266h133.003
c-26.667 -88 -79.334 -157.333 -158.001 -208s-174.334 -76 -287.001 -76c-148 0 -265.333 50.167 -352 150.5s-130 235.5 -130 405.5c0 169.333 43.5 304.5 130.5 405.5s203.833 151.5 350.5 151.5c143.333 0 256.333 -47.667 339 -143s124 -225.333 124 -390v-58h-809v-6
c3.33301 -122 36.5 -219 99.5 -291s146.5 -108 250.5 -108c76 0 140.667 14.5 194 43.5s91.666 70.167 114.999 123.5z" />
    <glyph glyph-name="edieresis" unicode="&#xeb;" horiz-adv-x="1174" 
d="M595 979c-98 0 -178.333 -33.5 -241 -100.5s-97 -155.833 -103 -266.5h671c-1.33301 111.333 -31.833 200.333 -91.5 267s-138.167 100 -235.5 100zM909 266h133.003c-26.667 -88 -79.334 -157.333 -158.001 -208s-174.334 -76 -287.001 -76
c-148 0 -265.333 50.167 -352 150.5s-130 235.5 -130 405.5c0 169.333 43.5 304.5 130.5 405.5s203.833 151.5 350.5 151.5c143.333 0 256.333 -47.667 339 -143s124 -225.333 124 -390v-58h-809v-6c3.33301 -122 36.5 -219 99.5 -291s146.5 -108 250.5 -108
c76 0 140.667 14.5 194 43.5s91.666 70.167 114.999 123.5zM413.003 1228c-28 0 -52 9.83301 -72 29.5s-30 43.834 -30 72.501s10 52.834 30 72.501s44 29.5 72 29.5c28.667 0 52.834 -9.83301 72.501 -29.5s29.5 -43.834 29.5 -72.501s-9.83301 -52.834 -29.5 -72.501
s-43.834 -29.5 -72.501 -29.5zM777.003 1228c-28 0 -52 9.83301 -72 29.5s-30 43.834 -30 72.501s10 52.834 30 72.501s44 29.5 72 29.5c28.667 0 52.834 -9.83301 72.501 -29.5s29.5 -43.834 29.5 -72.501s-9.83301 -52.834 -29.5 -72.501s-43.834 -29.5 -72.501 -29.5z
" />
    <glyph glyph-name="igrave" unicode="&#xec;" horiz-adv-x="489" 
d="M341 1267h-149l-269 327h168zM179 0v1077h131v-1077h-131z" />
    <glyph glyph-name="iacute" unicode="&#xed;" horiz-adv-x="489" 
d="M155 1267l250 327h168l-269 -327h-149zM179 0v1077h131v-1077h-131z" />
    <glyph glyph-name="icircumflex" unicode="&#xee;" horiz-adv-x="489" 
d="M321 1560l275 -332h-153l-193 243h-12l-193 -243h-153l275 332h154zM179 0v1077h131v-1077h-131z" />
    <glyph glyph-name="idieresis" unicode="&#xef;" horiz-adv-x="489" 
d="M179 0v1077h131v-1077h-131zM62 1228c-28 0 -52 9.83301 -72 29.5s-30 43.834 -30 72.501s10 52.834 30 72.501s44 29.5 72 29.5c28.667 0 52.834 -9.83301 72.501 -29.5s29.5 -43.834 29.5 -72.501s-9.83301 -52.834 -29.5 -72.501s-43.834 -29.5 -72.501 -29.5z
M426 1228c-28 0 -52 9.83301 -72 29.5s-30 43.834 -30 72.501s10 52.834 30 72.501s44 29.5 72 29.5c28.667 0 52.834 -9.83301 72.501 -29.5s29.5 -43.834 29.5 -72.501s-9.83301 -52.834 -29.5 -72.501s-43.834 -29.5 -72.501 -29.5z" />
    <glyph glyph-name="eth" unicode="&#xf0;" horiz-adv-x="1192" 
d="M601 -18c-148.667 0 -266.831 49.1689 -354.498 147.502s-131.5 230.166 -131.5 395.499c0 156.667 42.167 284.167 126.5 382.5s194.166 147.5 329.499 147.5c74.667 0 143.667 -17.667 207 -53s109 -82 137 -140h12c-34 146.667 -100.667 277.667 -200 393l-283 -102
l-29 88l247 89c-49.333 52 -121 112 -215 180h164c63.333 -44 118.666 -91 165.999 -141l257 92l29 -88l-225 -81c77.333 -96.667 136.166 -206.834 176.499 -330.501s60.5 -255.5 60.5 -395.5c0 -179.333 -42.667 -321.5 -128 -426.5s-200.666 -157.5 -345.999 -157.5z
M599.003 937.002c-104.667 0 -189 -37.834 -253 -113.501s-96 -175.167 -96 -298.5c0 -127.333 32 -229.833 96 -307.5s149 -116.5 255 -116.5c104.667 0 188.667 38.333 252 115s95 178.334 95 305.001c0 126 -31.833 226.833 -95.5 302.5s-148.167 113.5 -253.5 113.5z
" />
    <glyph glyph-name="ntilde" unicode="&#xf1;" horiz-adv-x="1206" 
d="M492 1388c-69.333 0 -104 -52.668 -104 -158.001h-111c0 80.667 18.667 144.5 56 191.5s88.333 70.5 153 70.5c28.667 0 55 -5.5 79 -16.5s44.167 -24.167 60.5 -39.5s31.833 -30.666 46.5 -45.999s29.834 -28.5 45.501 -39.5s31.5 -16.5 47.5 -16.5
c69.333 0 104 52.667 104 158h110c0 -80.667 -18.667 -144.5 -56 -191.5s-88.333 -70.5 -153 -70.5c-28 0 -54.167 5.5 -78.5 16.5s-44.5 24.167 -60.5 39.5l-46 46c-14.667 15.333 -29.834 28.5 -45.501 39.5s-31.5 16.5 -47.5 16.5zM169 -0.000976562l0.000976562 1077
h125v-194h13c28.667 66.667 74.667 118.667 138 156s137.666 56 222.999 56c120 0 213 -34.5 279 -103.5s99 -166.167 99 -291.5v-700h-131v667c0 206.667 -93.667 310 -281 310c-100.667 0 -181.5 -30.833 -242.5 -92.5s-91.5 -143.167 -91.5 -244.5v-640h-131z" />
    <glyph glyph-name="ograve" unicode="&#xf2;" horiz-adv-x="1208" 
d="M701 1267h-149l-269 327h168zM604 101c110.667 0 197.334 38.833 260.001 116.5s94 184.834 94 321.501s-31.333 243.834 -94 321.501s-149.334 116.5 -260.001 116.5s-197.334 -38.833 -260.001 -116.5s-94 -184.834 -94 -321.501s31.333 -243.834 94 -321.501
s149.334 -116.5 260.001 -116.5zM604 -18c-150.667 0 -269.834 49.833 -357.501 149.5s-131.5 235.5 -131.5 407.5s43.833 307.667 131.5 407s206.834 149 357.501 149s270 -49.667 358 -149s132 -235 132 -407s-44 -307.833 -132 -407.5s-207.333 -149.5 -358 -149.5z" />
    <glyph glyph-name="oacute" unicode="&#xf3;" horiz-adv-x="1208" 
d="M515 1267l250 327h168l-269 -327h-149zM604 101c110.667 0 197.334 38.833 260.001 116.5s94 184.834 94 321.501s-31.333 243.834 -94 321.501s-149.334 116.5 -260.001 116.5s-197.334 -38.833 -260.001 -116.5s-94 -184.834 -94 -321.501s31.333 -243.834 94 -321.501
s149.334 -116.5 260.001 -116.5zM604 -18c-150.667 0 -269.834 49.833 -357.501 149.5s-131.5 235.5 -131.5 407.5s43.833 307.667 131.5 407s206.834 149 357.501 149s270 -49.667 358 -149s132 -235 132 -407s-44 -307.833 -132 -407.5s-207.333 -149.5 -358 -149.5z" />
    <glyph glyph-name="ocircumflex" unicode="&#xf4;" horiz-adv-x="1208" 
d="M681 1560l275 -332h-153l-193 243h-12l-193 -243h-153l275 332h154zM604 101c110.667 0 197.334 38.833 260.001 116.5s94 184.834 94 321.501s-31.333 243.834 -94 321.501s-149.334 116.5 -260.001 116.5s-197.334 -38.833 -260.001 -116.5s-94 -184.834 -94 -321.501
s31.333 -243.834 94 -321.501s149.334 -116.5 260.001 -116.5zM604 -18c-150.667 0 -269.834 49.833 -357.501 149.5s-131.5 235.5 -131.5 407.5s43.833 307.667 131.5 407s206.834 149 357.501 149s270 -49.667 358 -149s132 -235 132 -407s-44 -307.833 -132 -407.5
s-207.333 -149.5 -358 -149.5z" />
    <glyph glyph-name="otilde" unicode="&#xf5;" horiz-adv-x="1208" 
d="M468 1388c-69.333 0 -104 -52.668 -104 -158.001h-111c0 80.667 18.667 144.5 56 191.5s88.333 70.5 153 70.5c28.667 0 55 -5.5 79 -16.5s44.167 -24.167 60.5 -39.5s31.833 -30.666 46.5 -45.999s29.834 -28.5 45.501 -39.5s31.5 -16.5 47.5 -16.5
c69.333 0 104 52.667 104 158h110c0 -80.667 -18.667 -144.5 -56 -191.5s-88.333 -70.5 -153 -70.5c-28 0 -54.167 5.5 -78.5 16.5s-44.5 24.167 -60.5 39.5l-46 46c-14.667 15.333 -29.834 28.5 -45.501 39.5s-31.5 16.5 -47.5 16.5zM604 100.999
c110.667 0 197.334 38.833 260.001 116.5s94 184.834 94 321.501s-31.333 243.834 -94 321.501s-149.334 116.5 -260.001 116.5s-197.334 -38.833 -260.001 -116.5s-94 -184.834 -94 -321.501s31.333 -243.834 94 -321.501s149.334 -116.5 260.001 -116.5zM604 -18.001
c-150.667 0 -269.834 49.833 -357.501 149.5s-131.5 235.5 -131.5 407.5s43.833 307.667 131.5 407s206.834 149 357.501 149s270 -49.667 358 -149s132 -235 132 -407s-44 -307.833 -132 -407.5s-207.333 -149.5 -358 -149.5z" />
    <glyph glyph-name="odieresis" unicode="&#xf6;" horiz-adv-x="1208" 
d="M422 1228c-28 0 -52 9.83301 -72 29.5s-30 43.834 -30 72.501s10 52.834 30 72.501s44 29.5 72 29.5c28.667 0 52.834 -9.83301 72.501 -29.5s29.5 -43.834 29.5 -72.501s-9.83301 -52.834 -29.5 -72.501s-43.834 -29.5 -72.501 -29.5zM786 1228
c-28 0 -52 9.83301 -72 29.5s-30 43.834 -30 72.501s10 52.834 30 72.501s44 29.5 72 29.5c28.667 0 52.834 -9.83301 72.501 -29.5s29.5 -43.834 29.5 -72.501s-9.83301 -52.834 -29.5 -72.501s-43.834 -29.5 -72.501 -29.5zM604 101
c110.667 0 197.334 38.833 260.001 116.5s94 184.834 94 321.501s-31.333 243.834 -94 321.501s-149.334 116.5 -260.001 116.5s-197.334 -38.833 -260.001 -116.5s-94 -184.834 -94 -321.501s31.333 -243.834 94 -321.501s149.334 -116.5 260.001 -116.5zM604 -18
c-150.667 0 -269.834 49.833 -357.501 149.5s-131.5 235.5 -131.5 407.5s43.833 307.667 131.5 407s206.834 149 357.501 149s270 -49.667 358 -149s132 -235 132 -407s-44 -307.833 -132 -407.5s-207.333 -149.5 -358 -149.5z" />
    <glyph glyph-name="divide" unicode="&#xf7;" horiz-adv-x="1321" 
d="M1152 523h-983v114h983v-114zM661 822c-30.667 0 -56.167 10.167 -76.5 30.5s-30.5 45.833 -30.5 76.5s10.167 56 30.5 76s45.833 30 76.5 30c30 0 55.167 -10 75.5 -30s30.5 -45.333 30.5 -76s-10.167 -56.167 -30.5 -76.5s-45.5 -30.5 -75.5 -30.5zM661 116
c-30.667 0 -56.167 10.167 -76.5 30.5s-30.5 45.833 -30.5 76.5s10.167 56.167 30.5 76.5s45.833 30.5 76.5 30.5c30 0 55.167 -10.167 75.5 -30.5s30.5 -45.833 30.5 -76.5s-10.167 -56.167 -30.5 -76.5s-45.5 -30.5 -75.5 -30.5z" />
    <glyph glyph-name="oslash" unicode="&#xf8;" horiz-adv-x="1208" 
d="M875 847l-480.001 -680.002c57.333 -44 127 -66 209 -66c110.667 0 197.334 38.833 260.001 116.5s94 184.834 94 321.501c0 128.667 -27.667 231.334 -83 308.001zM326.999 239.998l480.001 676.001c-56 40.667 -123.667 61 -203 61
c-110.667 0 -197.334 -38.833 -260.001 -116.5s-94 -184.834 -94 -321.501c0 -123.333 25.667 -223 77 -299zM1041 1083l-89.001 -126c94.667 -100 142 -239.333 142 -418c0 -172 -44 -307.833 -132 -407.5s-207.333 -149.5 -358 -149.5c-109.333 0 -203.333 27.333 -282 82
l-85 -121l-82 55l93 131c-88.667 101.333 -133 238 -133 410s43.833 307.667 131.5 407s206.834 149 357.501 149c106 0 198 -25.667 276 -77l82 116z" />
    <glyph glyph-name="ugrave" unicode="&#xf9;" horiz-adv-x="1211" 
d="M700 1267h-149l-269 327h168zM1038 1077v-1077h-125v194h-12c-26.667 -66.667 -71.5 -118.667 -134.5 -156s-137.5 -56 -223.5 -56c-120 0 -213.833 35 -281.5 105s-101.5 166.667 -101.5 290v700h131v-667c0 -100 24.5 -176.333 73.5 -229s119.5 -79 211.5 -79
c100.667 0 181 30.333 241 91s90 142 90 244v640h131z" />
    <glyph glyph-name="uacute" unicode="&#xfa;" horiz-adv-x="1211" 
d="M514 1267l250 327h168l-269 -327h-149zM1038 1077v-1077h-125v194h-12c-26.667 -66.667 -71.5 -118.667 -134.5 -156s-137.5 -56 -223.5 -56c-120 0 -213.833 35 -281.5 105s-101.5 166.667 -101.5 290v700h131v-667c0 -100 24.5 -176.333 73.5 -229s119.5 -79 211.5 -79
c100.667 0 181 30.333 241 91s90 142 90 244v640h131z" />
    <glyph glyph-name="ucircumflex" unicode="&#xfb;" horiz-adv-x="1211" 
d="M680 1560l275 -332h-153l-193 243h-12l-193 -243h-153l275 332h154zM1038 1077v-1077h-125v194h-12c-26.667 -66.667 -71.5 -118.667 -134.5 -156s-137.5 -56 -223.5 -56c-120 0 -213.833 35 -281.5 105s-101.5 166.667 -101.5 290v700h131v-667
c0 -100 24.5 -176.333 73.5 -229s119.5 -79 211.5 -79c100.667 0 181 30.333 241 91s90 142 90 244v640h131z" />
    <glyph glyph-name="udieresis" unicode="&#xfc;" horiz-adv-x="1211" 
d="M1038 1077v-1077h-125v194h-12c-26.667 -66.667 -71.5 -118.667 -134.5 -156s-137.5 -56 -223.5 -56c-120 0 -213.833 35 -281.5 105s-101.5 166.667 -101.5 290v700h131v-667c0 -100 24.5 -176.333 73.5 -229s119.5 -79 211.5 -79c100.667 0 181 30.333 241 91
s90 142 90 244v640h131zM421 1228c-28 0 -52 9.83301 -72 29.5s-30 43.834 -30 72.501s10 52.834 30 72.501s44 29.5 72 29.5c28.667 0 52.834 -9.83301 72.501 -29.5s29.5 -43.834 29.5 -72.501s-9.83301 -52.834 -29.5 -72.501s-43.834 -29.5 -72.501 -29.5zM785 1228
c-28 0 -52 9.83301 -72 29.5s-30 43.834 -30 72.501s10 52.834 30 72.501s44 29.5 72 29.5c28.667 0 52.834 -9.83301 72.501 -29.5s29.5 -43.834 29.5 -72.501s-9.83301 -52.834 -29.5 -72.501s-43.834 -29.5 -72.501 -29.5z" />
    <glyph glyph-name="yacute" unicode="&#xfd;" horiz-adv-x="1079" 
d="M247 -375c-26.667 0 -47 1.33301 -61 4v113c14 -2 33.667 -3 59 -3c50 0 90.167 14 120.5 42s58.166 76.333 83.499 145l22 67l-404 1084h142l326 -934h12l325 934h140l-419 -1129c-47.333 -126.667 -94.666 -212.167 -141.999 -256.5s-115.333 -66.5 -204 -66.5z
M447 1267l250 327h168l-269 -327h-149z" />
    <glyph glyph-name="thorn" unicode="&#xfe;" horiz-adv-x="1252" 
d="M685 1095c136.667 0 246.333 -50.833 329 -152.5s124 -236.167 124 -403.5s-41.5 -302 -124.5 -404s-192.5 -153 -328.5 -153c-83.333 0 -157.166 19.833 -221.499 59.5s-111.5 94.167 -141.5 163.5h-12v-576h-131v1867h125v-639h12
c33.333 74 82.666 132.167 147.999 174.5s139 63.5 221 63.5zM655.999 101c106.667 0 191.166 39.333 253.499 118s93.5 185 93.5 319c0 134.667 -31.167 241.5 -93.5 320.5s-146.5 118.5 -252.5 118.5c-105.333 0 -190.166 -40 -254.499 -120s-96.5 -186 -96.5 -318
s32 -238 96 -318s148.667 -120 254 -120z" />
    <glyph glyph-name="ydieresis" unicode="&#xff;" horiz-adv-x="1079" 
d="M247 -375c-26.667 0 -47 1.33301 -61 4v113c14 -2 33.667 -3 59 -3c50 0 90.167 14 120.5 42s58.166 76.333 83.499 145l22 67l-404 1084h142l326 -934h12l325 934h140l-419 -1129c-47.333 -126.667 -94.666 -212.167 -141.999 -256.5s-115.333 -66.5 -204 -66.5z
M354 1228c-28 0 -52 9.83301 -72 29.5s-30 43.834 -30 72.501s10 52.834 30 72.501s44 29.5 72 29.5c28.667 0 52.834 -9.83301 72.501 -29.5s29.5 -43.834 29.5 -72.501s-9.83301 -52.834 -29.5 -72.501s-43.834 -29.5 -72.501 -29.5zM718 1228c-28 0 -52 9.83301 -72 29.5
s-30 43.834 -30 72.501s10 52.834 30 72.501s44 29.5 72 29.5c28.667 0 52.834 -9.83301 72.501 -29.5s29.5 -43.834 29.5 -72.501s-9.83301 -52.834 -29.5 -72.501s-43.834 -29.5 -72.501 -29.5z" />
    <glyph glyph-name="Amacron" unicode="&#x100;" horiz-adv-x="1363" 
d="M1145 0l-160 442h-606l-160 -442h-145l540 1443h136l539 -1443h-144zM675 1264l-255 -704h524l-256 704h-13zM1004 1619h-644v105h644v-105z" />
    <glyph glyph-name="amacron" unicode="&#x101;" horiz-adv-x="1125" 
d="M491 98c96.667 0 177.5 29.168 242.5 87.501s97.5 130.166 97.5 215.499v126l-319 -23c-180.667 -12.667 -271 -80.667 -271 -204c0 -61.333 23.333 -110.333 70 -147s106.667 -55 180 -55zM469 -17.999c-106.667 0 -193.831 28.833 -261.498 86.5
s-101.5 134.167 -101.5 229.5c0 93.333 33.333 166.833 100 220.5s162.667 84.834 288 93.501l337 22v104c0 77.333 -22.833 136.666 -68.5 177.999s-112.167 62 -199.5 62c-74 0 -136.167 -14.833 -186.5 -44.5s-81.833 -70.5 -94.5 -122.5h-133
c12.667 85.333 57.167 154 133.5 206s171.166 78 284.499 78c126 0 223.5 -31.167 292.5 -93.5s103.5 -149.833 103.5 -262.5v-739h-126v185h-12c-32.667 -64 -80.334 -113.833 -143.001 -149.5s-133.667 -53.5 -213 -53.5zM898.003 1292h-662v106h662v-106z" />
    <glyph glyph-name="Abreve" unicode="&#x102;" horiz-adv-x="1363" 
d="M1145 0l-160 442h-606l-160 -442h-145l540 1443h136l539 -1443h-144zM675 1264l-255 -704h524l-256 704h-13zM352 1851h117.998c0 -54 19.167 -96.833 57.5 -128.5s89.833 -47.5 154.5 -47.5s116.167 15.833 154.5 47.5s57.5 74.5 57.5 128.5h118
c0 -84 -29.667 -150.667 -89 -200s-139.666 -74 -240.999 -74s-181.666 24.667 -240.999 74s-89 116 -89 200z" />
    <glyph glyph-name="abreve" unicode="&#x103;" horiz-adv-x="1125" 
d="M491 98c96.667 0 177.5 29.168 242.5 87.501s97.5 130.166 97.5 215.499v126l-319 -23c-180.667 -12.667 -271 -80.667 -271 -204c0 -61.333 23.333 -110.333 70 -147s106.667 -55 180 -55zM469 -17.999c-106.667 0 -193.831 28.833 -261.498 86.5
s-101.5 134.167 -101.5 229.5c0 93.333 33.333 166.833 100 220.5s162.667 84.834 288 93.501l337 22v104c0 77.333 -22.833 136.666 -68.5 177.999s-112.167 62 -199.5 62c-74 0 -136.167 -14.833 -186.5 -44.5s-81.833 -70.5 -94.5 -122.5h-133
c12.667 85.333 57.167 154 133.5 206s171.166 78 284.499 78c126 0 223.5 -31.167 292.5 -93.5s103.5 -149.833 103.5 -262.5v-739h-126v185h-12c-32.667 -64 -80.334 -113.833 -143.001 -149.5s-133.667 -53.5 -213 -53.5zM236.003 1538h119c0 -60 18.5 -108 55.5 -144
s88.833 -54 155.5 -54s118.5 18 155.5 54s55.5 84 55.5 144h119c0 -89.333 -29.5 -161.333 -88.5 -216s-139.5 -82 -241.5 -82s-182.5 27.333 -241.5 82s-88.5 126.667 -88.5 216z" />
    <glyph glyph-name="Aogonek" unicode="&#x104;" horiz-adv-x="1363" 
d="M675 1264l-255 -704h524l-256 704h-13zM1342 -397c-25.333 -15.333 -64.666 -23.001 -117.999 -23.001c-66.667 0 -120.167 18.5 -160.5 55.5s-60.5 86.167 -60.5 147.5c0 86.667 45 165.667 135 237l-153 422h-606l-160 -442h-145l540 1443h136l536 -1434
c-104.667 -56.667 -157 -126 -157 -208c0 -35.333 11.667 -63.666 35 -84.999s54.333 -32 93 -32c31.333 0 59.666 5.33301 84.999 16v-97z" />
    <glyph glyph-name="aogonek" unicode="&#x105;" horiz-adv-x="1125" 
d="M494 98c95.333 0 175.333 29.168 240 87.501s97 130.166 97 215.499v134l-316 -20c-88.667 -6 -156.5 -26.833 -203.5 -62.5s-70.5 -84.167 -70.5 -145.5c0 -62.667 23.167 -113.167 69.5 -151.5s107.5 -57.5 183.5 -57.5zM1017 -397.999
c-28.667 -15.333 -66.667 -23 -114 -23c-63.333 0 -114.833 18.5 -154.5 55.5s-59.5 85.167 -59.5 144.5c0 91.333 49.333 171.666 148 240.999v165h-12c-32 -63.333 -79.833 -113 -143.5 -149s-135.5 -54 -215.5 -54c-107.333 0 -194.166 29.667 -260.499 89
s-99.5 137 -99.5 233c0 94.667 33.667 169 101 223s164.666 85.333 291.999 94l332 22v95c-0.666992 77.333 -23.667 136.666 -69 177.999s-111.666 62 -198.999 62c-74 0 -136.167 -14.833 -186.5 -44.5s-81.833 -70.5 -94.5 -122.5h-133
c12.667 85.333 57.167 154 133.5 206s171.166 78 284.499 78c126 0 223.5 -31.167 292.5 -93.5s103.5 -149.833 103.5 -262.5v-727c-53.333 -31.333 -92.166 -63.666 -116.499 -96.999s-36.5 -69.333 -36.5 -108c0 -37.333 11.333 -67.166 34 -89.499s53 -33.5 91 -33.5
c35.333 0 62.666 5 81.999 15v-97z" />
    <glyph glyph-name="Cacute" unicode="&#x106;" horiz-adv-x="1455" 
d="M675 1578l310 297h174l-326 -297h-158zM763 -30c-196 0 -351.002 67.333 -465.002 202s-171 317.667 -171 549s57 414.5 171 549.5s268.667 202.5 464 202.5c98 0 188.5 -20.167 271.5 -60.5s151.333 -96.333 205 -168s86.834 -152.5 99.501 -242.5h-139
c-20.667 102 -71.5 184.833 -152.5 248.5s-175.833 95.5 -284.5 95.5c-151.333 0 -271.666 -56.5 -360.999 -169.5s-134 -264.833 -134 -455.5c0 -191.333 44.667 -343.166 134 -455.499s210 -168.5 362 -168.5c111.333 0 206.833 28.667 286.5 86s129.5 133.333 149.5 228
h139c-20.667 -132.667 -83.5 -239.334 -188.5 -320.001s-233.833 -121 -386.5 -121z" />
    <glyph glyph-name="cacute" unicode="&#x107;" horiz-adv-x="1145" 
d="M1042 760l-133 0.00195312c-17.333 64 -53.166 116.167 -107.499 156.5s-121.5 60.5 -201.5 60.5c-107.333 0 -192.5 -39.333 -255.5 -118s-94.5 -184.334 -94.5 -317.001c0 -134.667 31.667 -241.834 95 -321.501s148.333 -119.5 255 -119.5
c80 0 147.167 18.333 201.5 55s89.833 88 106.5 154h133c-16.667 -98.667 -64 -178 -142 -238s-177.333 -90 -298 -90c-148.667 0 -266.834 50.5 -354.501 151.5s-131.5 237.167 -131.5 408.5c0 168.667 43.833 303 131.5 403s205.5 150 353.5 150
c120 0 219.5 -31.5 298.5 -94.5s126.833 -143.167 143.5 -240.5zM509 1267l250 327h168l-269 -327h-149z" />
    <glyph glyph-name="Ccircumflex" unicode="&#x108;" horiz-adv-x="1455" 
d="M763 -30c-196 0 -351.002 67.333 -465.002 202s-171 317.667 -171 549s57 414.5 171 549.5s268.667 202.5 464 202.5c98 0 188.5 -20.167 271.5 -60.5s151.333 -96.333 205 -168s86.834 -152.5 99.501 -242.5h-139c-20.667 102 -71.5 184.833 -152.5 248.5
s-175.833 95.5 -284.5 95.5c-151.333 0 -271.666 -56.5 -360.999 -169.5s-134 -264.833 -134 -455.5c0 -191.333 44.667 -343.166 134 -455.499s210 -168.5 362 -168.5c111.333 0 206.833 28.667 286.5 86s129.5 133.333 149.5 228h139
c-20.667 -132.667 -83.5 -239.334 -188.5 -320.001s-233.833 -121 -386.5 -121zM823.998 1875l289 -297h-155l-190 202h-12l-190 -202h-155l289 297h124z" />
    <glyph glyph-name="ccircumflex" unicode="&#x109;" horiz-adv-x="1145" 
d="M675 1560l275 -332h-153l-193 243h-12l-193 -243h-153l275 332h154zM1042 760l-133 0.00195312c-17.333 64 -53.166 116.167 -107.499 156.5s-121.5 60.5 -201.5 60.5c-107.333 0 -192.5 -39.333 -255.5 -118s-94.5 -184.334 -94.5 -317.001
c0 -134.667 31.667 -241.834 95 -321.501s148.333 -119.5 255 -119.5c80 0 147.167 18.333 201.5 55s89.833 88 106.5 154h133c-16.667 -98.667 -64 -178 -142 -238s-177.333 -90 -298 -90c-148.667 0 -266.834 50.5 -354.501 151.5s-131.5 237.167 -131.5 408.5
c0 168.667 43.833 303 131.5 403s205.5 150 353.5 150c120 0 219.5 -31.5 298.5 -94.5s126.833 -143.167 143.5 -240.5z" />
    <glyph glyph-name="Cdotaccent" unicode="&#x10a;" horiz-adv-x="1455" 
d="M762 1578c-29.333 0 -54.166 10.167 -74.499 30.5s-30.5 44.833 -30.5 73.5c0 29.333 10.167 54.166 30.5 74.499s45.166 30.5 74.499 30.5s54.166 -10.167 74.499 -30.5s30.5 -45.166 30.5 -74.499c0 -28.667 -10.167 -53.167 -30.5 -73.5s-45.166 -30.5 -74.499 -30.5z
M763 -30c-196 0 -351.002 67.333 -465.002 202s-171 317.667 -171 549s57 414.5 171 549.5s268.667 202.5 464 202.5c98 0 188.5 -20.167 271.5 -60.5s151.333 -96.333 205 -168s86.834 -152.5 99.501 -242.5h-139c-20.667 102 -71.5 184.833 -152.5 248.5
s-175.833 95.5 -284.5 95.5c-151.333 0 -271.666 -56.5 -360.999 -169.5s-134 -264.833 -134 -455.5c0 -191.333 44.667 -343.166 134 -455.499s210 -168.5 362 -168.5c111.333 0 206.833 28.667 286.5 86s129.5 133.333 149.5 228h139
c-20.667 -132.667 -83.5 -239.334 -188.5 -320.001s-233.833 -121 -386.5 -121z" />
    <glyph glyph-name="cdotaccent" unicode="&#x10b;" horiz-adv-x="1145" 
d="M1042 760l-133 0.00195312c-17.333 64 -53.166 116.167 -107.499 156.5s-121.5 60.5 -201.5 60.5c-107.333 0 -192.5 -39.333 -255.5 -118s-94.5 -184.334 -94.5 -317.001c0 -134.667 31.667 -241.834 95 -321.501s148.333 -119.5 255 -119.5
c80 0 147.167 18.333 201.5 55s89.833 88 106.5 154h133c-16.667 -98.667 -64 -178 -142 -238s-177.333 -90 -298 -90c-148.667 0 -266.834 50.5 -354.501 151.5s-131.5 237.167 -131.5 408.5c0 168.667 43.833 303 131.5 403s205.5 150 353.5 150
c120 0 219.5 -31.5 298.5 -94.5s126.833 -143.167 143.5 -240.5zM598 1280c-30 0 -55.667 10.833 -77 32.5s-32 47.5 -32 77.5s10.667 55.667 32 77s47 32 77 32s55.667 -10.667 77 -32s32 -47 32 -77s-10.667 -55.833 -32 -77.5s-47 -32.5 -77 -32.5z" />
    <glyph glyph-name="Ccaron" unicode="&#x10c;" horiz-adv-x="1455" 
d="M763 -30c-196 0 -351.002 67.333 -465.002 202s-171 317.667 -171 549s57 414.5 171 549.5s268.667 202.5 464 202.5c98 0 188.5 -20.167 271.5 -60.5s151.333 -96.333 205 -168s86.834 -152.5 99.501 -242.5h-139c-20.667 102 -71.5 184.833 -152.5 248.5
s-175.833 95.5 -284.5 95.5c-151.333 0 -271.666 -56.5 -360.999 -169.5s-134 -264.833 -134 -455.5c0 -191.333 44.667 -343.166 134 -455.499s210 -168.5 362 -168.5c111.333 0 206.833 28.667 286.5 86s129.5 133.333 149.5 228h139
c-20.667 -132.667 -83.5 -239.334 -188.5 -320.001s-233.833 -121 -386.5 -121zM825.998 1578h-128l-287 297h155l190 -203h12l190 203h155z" />
    <glyph glyph-name="ccaron" unicode="&#x10d;" horiz-adv-x="1145" 
d="M675 1228h-154l-275 332h153l193 -243h12l193 243h153zM1042 760l-133 0.00195312c-17.333 64 -53.166 116.167 -107.499 156.5s-121.5 60.5 -201.5 60.5c-107.333 0 -192.5 -39.333 -255.5 -118s-94.5 -184.334 -94.5 -317.001c0 -134.667 31.667 -241.834 95 -321.501
s148.333 -119.5 255 -119.5c80 0 147.167 18.333 201.5 55s89.833 88 106.5 154h133c-16.667 -98.667 -64 -178 -142 -238s-177.333 -90 -298 -90c-148.667 0 -266.834 50.5 -354.501 151.5s-131.5 237.167 -131.5 408.5c0 168.667 43.833 303 131.5 403
s205.5 150 353.5 150c120 0 219.5 -31.5 298.5 -94.5s126.833 -143.167 143.5 -240.5z" />
    <glyph glyph-name="Dcaron" unicode="&#x10e;" horiz-adv-x="1471" 
d="M655 1577h-128l-287 297h155l190 -203h12l190 203h155zM185 1443h475c218 0 386.667 -63.667 506 -191s179 -304 179 -530c0 -226.667 -59.5 -403.667 -178.5 -531s-287.833 -191 -506.5 -191h-475v1443zM322 1319v-1195h330c175.333 0 311.333 52.667 408 158
s145 251.666 145 438.999s-48.333 333.833 -145 439.5s-232.667 158.5 -408 158.5h-330z" />
    <glyph glyph-name="dcaron" unicode="&#x10f;" horiz-adv-x="1324" 
d="M1202 1506h130l-37 -444h-93v444zM571 -18c-137.333 0 -247.669 50.834 -331.002 152.501s-125 236.167 -125 403.5c0 166.667 41.833 301.167 125.5 403.5s193.834 153.5 330.501 153.5c82 0 155.333 -20.333 220 -61s112.334 -96.334 143.001 -167.001h12v639h131
v-1506h-126v215h-12c-32 -72 -80.833 -128.833 -146.5 -170.5s-139.5 -62.5 -221.5 -62.5zM598.997 977.001c-106.667 0 -191.5 -39.667 -254.5 -119s-94.5 -185.666 -94.5 -318.999c0 -134 31.5 -240.5 94.5 -319.5s147.833 -118.5 254.5 -118.5
c106 0 190.667 39.667 254 119s95 185.666 95 318.999c0 132 -31.833 238 -95.5 318s-148.167 120 -253.5 120z" />
    <glyph glyph-name="Dcroat" unicode="&#x110;" horiz-adv-x="1447" 
d="M322 124l330 0.000976562c175.333 0 311.333 52.667 408 158s145 251.666 145 438.999s-48.333 333.833 -145 439.5s-232.667 158.5 -408 158.5h-330v-514h262v-124h-262v-557zM185 1443h475c218 0 386.667 -63.667 506 -191s179 -304 179 -530
c0 -226.667 -59.5 -403.667 -178.5 -531s-287.833 -191 -506.5 -191h-475v681h-173v124h173v638z" />
    <glyph glyph-name="dcroat" unicode="&#x111;" horiz-adv-x="1256" 
d="M599 101c106 0 190.667 39.667 254 119s95 185.666 95 318.999c0 132 -31.833 238 -95.5 318s-148.167 120 -253.5 120c-106.667 0 -191.5 -39.667 -254.5 -119s-94.5 -185.666 -94.5 -318.999c0 -134 31.5 -240.5 94.5 -319.5s147.833 -118.5 254.5 -118.5zM1209 1383
l-0.00292969 -98h-132v-1285h-125v215h-13c-32 -72 -80.667 -128.833 -146 -170.5s-139.333 -62.5 -222 -62.5c-137.333 0 -247.666 50.833 -330.999 152.5s-125 236.167 -125 403.5c0 166.667 41.833 301.167 125.5 403.5s193.834 153.5 330.501 153.5
c82.667 0 156.334 -20.5 221.001 -61.5s112 -96.5 142 -166.5h12v418h-273v98h273v163h131v-163h132z" />
    <glyph glyph-name="Emacron" unicode="&#x112;" horiz-adv-x="1197" 
d="M1057 124v-124h-872v1443h872v-124h-735v-519h698v-122h-698v-554h735zM943 1619h-644v105h644v-105z" />
    <glyph glyph-name="emacron" unicode="&#x113;" horiz-adv-x="1174" 
d="M595 979c-98 0 -178.333 -33.5 -241 -100.5s-97 -155.833 -103 -266.5h671c-1.33301 111.333 -31.833 200.333 -91.5 267s-138.167 100 -235.5 100zM909 266h133.003c-26.667 -88 -79.334 -157.333 -158.001 -208s-174.334 -76 -287.001 -76
c-148 0 -265.333 50.167 -352 150.5s-130 235.5 -130 405.5c0 169.333 43.5 304.5 130.5 405.5s203.833 151.5 350.5 151.5c143.333 0 256.333 -47.667 339 -143s124 -225.333 124 -390v-58h-809v-6c3.33301 -122 36.5 -219 99.5 -291s146.5 -108 250.5 -108
c76 0 140.667 14.5 194 43.5s91.666 70.167 114.999 123.5zM926.003 1292h-662v106h662v-106z" />
    <glyph glyph-name="Ebreve" unicode="&#x114;" horiz-adv-x="1197" 
d="M1057 124v-124h-872v1443h872v-124h-735v-519h698v-122h-698v-554h735zM291 1851h117.998c0 -54 19.167 -96.833 57.5 -128.5s89.833 -47.5 154.5 -47.5s116.167 15.833 154.5 47.5s57.5 74.5 57.5 128.5h118c0 -84 -29.667 -150.667 -89 -200s-139.666 -74 -240.999 -74
s-181.666 24.667 -240.999 74s-89 116 -89 200z" />
    <glyph glyph-name="ebreve" unicode="&#x115;" horiz-adv-x="1174" 
d="M595 979c-98 0 -178.333 -33.5 -241 -100.5s-97 -155.833 -103 -266.5h671c-1.33301 111.333 -31.833 200.333 -91.5 267s-138.167 100 -235.5 100zM909 266h133.003c-26.667 -88 -79.334 -157.333 -158.001 -208s-174.334 -76 -287.001 -76
c-148 0 -265.333 50.167 -352 150.5s-130 235.5 -130 405.5c0 169.333 43.5 304.5 130.5 405.5s203.833 151.5 350.5 151.5c143.333 0 256.333 -47.667 339 -143s124 -225.333 124 -390v-58h-809v-6c3.33301 -122 36.5 -219 99.5 -291s146.5 -108 250.5 -108
c76 0 140.667 14.5 194 43.5s91.666 70.167 114.999 123.5zM264.003 1538h119c0 -60 18.5 -108 55.5 -144s88.833 -54 155.5 -54s118.5 18 155.5 54s55.5 84 55.5 144h119c0 -89.333 -29.5 -161.333 -88.5 -216s-139.5 -82 -241.5 -82s-182.5 27.333 -241.5 82
s-88.5 126.667 -88.5 216z" />
    <glyph glyph-name="Edotaccent" unicode="&#x116;" horiz-adv-x="1197" 
d="M621 1577c-29.333 0 -54.1699 10.167 -74.5029 30.5s-30.5 44.833 -30.5 73.5s10.333 53.334 31 74.001s45.334 31 74.001 31s53.334 -10.333 74.001 -31s31 -45.334 31 -74.001s-10.167 -53.167 -30.5 -73.5s-45.166 -30.5 -74.499 -30.5zM1057 124v-124h-872v1443h872
v-124h-735v-519h698v-122h-698v-554h735z" />
    <glyph glyph-name="edotaccent" unicode="&#x117;" horiz-adv-x="1174" 
d="M595 1280c-30 0 -55.667 10.833 -77 32.5s-32 47.5 -32 77.5s10.667 55.667 32 77s47 32 77 32s55.667 -10.667 77 -32s32 -47 32 -77s-10.667 -55.833 -32 -77.5s-47 -32.5 -77 -32.5zM595 979c-98 0 -178.333 -33.5 -241 -100.5s-97 -155.833 -103 -266.5h671
c-1.33301 111.333 -31.833 200.333 -91.5 267s-138.167 100 -235.5 100zM909 266h133.003c-26.667 -88 -79.334 -157.333 -158.001 -208s-174.334 -76 -287.001 -76c-148 0 -265.333 50.167 -352 150.5s-130 235.5 -130 405.5c0 169.333 43.5 304.5 130.5 405.5
s203.833 151.5 350.5 151.5c143.333 0 256.333 -47.667 339 -143s124 -225.333 124 -390v-58h-809v-6c3.33301 -122 36.5 -219 99.5 -291s146.5 -108 250.5 -108c76 0 140.667 14.5 194 43.5s91.666 70.167 114.999 123.5z" />
    <glyph glyph-name="Eogonek" unicode="&#x118;" horiz-adv-x="1197" 
d="M876 0h-691v1443h872v-124h-735v-519h698v-122h-698v-554h735v-98c-122.667 -62.667 -184 -135.667 -184 -219c0 -38 11.167 -68 33.5 -90s52.833 -33 91.5 -33c38 0 66 5 84 15v-97c-26 -15.333 -65 -23 -117 -23c-66 0 -118.833 18.167 -158.5 54.5
s-59.5 84.833 -59.5 145.5c0 87.333 43 161 129 221z" />
    <glyph glyph-name="eogonek" unicode="&#x119;" horiz-adv-x="1174" 
d="M790 -421c-62.667 0 -113.333 17.501 -152 52.501s-58 80.167 -58 135.5c0 35.333 9.66699 71.5 29 108.5s46.666 71.167 81.999 102.5v12c-23.333 -5.33301 -54.666 -8 -93.999 -8c-147.333 0 -264.5 50 -351.5 150s-130.5 235.333 -130.5 406
c0 169.333 43.5 304.5 130.5 405.5s203.833 151.5 350.5 151.5c142.667 0 255.5 -47.667 338.5 -143s124.5 -225.333 124.5 -390v-58h-809v-6c3.33301 -122.667 36.833 -219.834 100.5 -291.501s148.167 -107.5 253.5 -107.5c152.667 0 254.334 55.667 305.001 167h133
c-12.667 -40 -32.667 -77.5 -60 -112.5s-67.333 -75.167 -120 -120.5c-56.667 -46.667 -97.834 -88.667 -123.501 -126s-38.5 -74 -38.5 -110c0 -34 10.667 -61.333 32 -82s49.666 -31 84.999 -31c36.667 0 67 5 91 15v-97c-25.333 -15.333 -64.666 -23 -117.999 -23z
M595.001 979.001c-98 0 -178.333 -33.5 -241 -100.5s-97 -155.833 -103 -266.5h671c-1.33301 111.333 -31.833 200.333 -91.5 267s-138.167 100 -235.5 100z" />
    <glyph glyph-name="Ecaron" unicode="&#x11a;" horiz-adv-x="1197" 
d="M685 1577h-128l-287 297h155l190 -203h12l190 203h155zM1057 124v-124h-872v1443h872v-124h-735v-519h698v-122h-698v-554h735z" />
    <glyph glyph-name="ecaron" unicode="&#x11b;" horiz-adv-x="1174" 
d="M672 1228h-154l-275 332h153l193 -243h12l193 243h153zM595 979c-98 0 -178.333 -33.5 -241 -100.5s-97 -155.833 -103 -266.5h671c-1.33301 111.333 -31.833 200.333 -91.5 267s-138.167 100 -235.5 100zM909 266h133.003c-26.667 -88 -79.334 -157.333 -158.001 -208
s-174.334 -76 -287.001 -76c-148 0 -265.333 50.167 -352 150.5s-130 235.5 -130 405.5c0 169.333 43.5 304.5 130.5 405.5s203.833 151.5 350.5 151.5c143.333 0 256.333 -47.667 339 -143s124 -225.333 124 -390v-58h-809v-6c3.33301 -122 36.5 -219 99.5 -291
s146.5 -108 250.5 -108c76 0 140.667 14.5 194 43.5s91.666 70.167 114.999 123.5z" />
    <glyph glyph-name="Gcircumflex" unicode="&#x11c;" horiz-adv-x="1506" 
d="M832 1874l289 -297h-155l-190 202h-12l-190 -202h-155l289 297h124zM1375 559c0 -178.667 -54.667 -321.501 -164 -428.501s-255.333 -160.5 -438 -160.5c-195.333 0 -351.833 68.5 -469.5 205.5s-176.5 319.167 -176.5 546.5c0 226 58.667 407.667 176 545
s273 206 467 206c154 0 284.5 -41 391.5 -123s173.5 -191.667 199.5 -329h-139c-30 103.333 -84.333 183.333 -163 240s-175 85 -289 85c-152.667 0 -274.667 -56.667 -366 -170s-137 -264.666 -137 -453.999c0 -190 45.833 -341.667 137.5 -455s214.5 -170 368.5 -170
c141.333 0 254.333 41.167 339 123.5s127 191.5 127 327.5v50h-440v121h576v-160z" />
    <glyph glyph-name="gcircumflex" unicode="&#x11d;" horiz-adv-x="1242" 
d="M682 1560l275 -332h-153l-193 243h-12l-193 -243h-153l275 332h154zM945 550c0 128.667 -31.833 232 -95.5 310s-148.5 117 -254.5 117c-106.667 0 -190.834 -38.5 -252.501 -115.5s-92.5 -180.167 -92.5 -309.5c0 -128.667 30.833 -231.5 92.5 -308.5
s145.834 -115.5 252.501 -115.5c107.333 0 192.5 38.333 255.5 115s94.5 179 94.5 307zM606 -404c-122.667 0 -223 25.165 -301 75.498s-124 117.833 -138 202.5h139c12 -50 44.667 -89.667 98 -119s120.666 -44 201.999 -44c104 0 186.167 25.333 246.5 76
s90.5 119.667 90.5 207v242h-13c-32 -71.333 -79.5 -126.666 -142.5 -165.999s-135.833 -59 -218.5 -59c-138 0 -248.167 49.5 -330.5 148.5s-123.5 229.833 -123.5 392.5s41.333 293.834 124 393.501s192.667 149.5 330 149.5c82 0 156.333 -21 223 -63
s114.667 -98 144 -168h12v213h126v-1093c0 -117.333 -42.667 -211.333 -128 -282s-198.666 -106 -339.999 -106z" />
    <glyph glyph-name="Gbreve" unicode="&#x11e;" horiz-adv-x="1506" 
d="M1375 559c0 -178.667 -54.667 -321.501 -164 -428.501s-255.333 -160.5 -438 -160.5c-195.333 0 -351.833 68.5 -469.5 205.5s-176.5 319.167 -176.5 546.5c0 226 58.667 407.667 176 545s273 206 467 206c154 0 284.5 -41 391.5 -123s173.5 -191.667 199.5 -329h-139
c-30 103.333 -84.333 183.333 -163 240s-175 85 -289 85c-152.667 0 -274.667 -56.667 -366 -170s-137 -264.666 -137 -453.999c0 -190 45.833 -341.667 137.5 -455s214.5 -170 368.5 -170c141.333 0 254.333 41.167 339 123.5s127 191.5 127 327.5v50h-440v121h576v-160z
M440 1851h117.998c0 -54 19.167 -96.833 57.5 -128.5s89.833 -47.5 154.5 -47.5s116.167 15.833 154.5 47.5s57.5 74.5 57.5 128.5h118c0 -84 -29.667 -150.667 -89 -200s-139.666 -74 -240.999 -74s-181.666 24.667 -240.999 74s-89 116 -89 200z" />
    <glyph glyph-name="gbreve" unicode="&#x11f;" horiz-adv-x="1242" 
d="M274 1538h119c0 -60 18.5 -108 55.5 -144s88.833 -54 155.5 -54s118.5 18 155.5 54s55.5 84 55.5 144h119c0 -89.333 -29.5 -161.333 -88.5 -216s-139.5 -82 -241.5 -82s-182.5 27.333 -241.5 82s-88.5 126.667 -88.5 216zM945 550c0 128.667 -31.833 232 -95.5 310
s-148.5 117 -254.5 117c-106.667 0 -190.834 -38.5 -252.501 -115.5s-92.5 -180.167 -92.5 -309.5c0 -128.667 30.833 -231.5 92.5 -308.5s145.834 -115.5 252.501 -115.5c107.333 0 192.5 38.333 255.5 115s94.5 179 94.5 307zM606 -404
c-122.667 0 -223 25.165 -301 75.498s-124 117.833 -138 202.5h139c12 -50 44.667 -89.667 98 -119s120.666 -44 201.999 -44c104 0 186.167 25.333 246.5 76s90.5 119.667 90.5 207v242h-13c-32 -71.333 -79.5 -126.666 -142.5 -165.999s-135.833 -59 -218.5 -59
c-138 0 -248.167 49.5 -330.5 148.5s-123.5 229.833 -123.5 392.5s41.333 293.834 124 393.501s192.667 149.5 330 149.5c82 0 156.333 -21 223 -63s114.667 -98 144 -168h12v213h126v-1093c0 -117.333 -42.667 -211.333 -128 -282s-198.666 -106 -339.999 -106z" />
    <glyph glyph-name="Gdotaccent" unicode="&#x120;" horiz-adv-x="1506" 
d="M770 1577c-29.333 0 -54.166 10.167 -74.499 30.5s-30.5 44.833 -30.5 73.5s10.167 53.334 30.5 74.001s45.166 31 74.499 31s54.166 -10.333 74.499 -31s30.5 -45.334 30.5 -74.001s-10.167 -53.167 -30.5 -73.5s-45.166 -30.5 -74.499 -30.5zM1375 559
c0 -178.667 -54.667 -321.501 -164 -428.501s-255.333 -160.5 -438 -160.5c-195.333 0 -351.833 68.5 -469.5 205.5s-176.5 319.167 -176.5 546.5c0 226 58.667 407.667 176 545s273 206 467 206c154 0 284.5 -41 391.5 -123s173.5 -191.667 199.5 -329h-139
c-30 103.333 -84.333 183.333 -163 240s-175 85 -289 85c-152.667 0 -274.667 -56.667 -366 -170s-137 -264.666 -137 -453.999c0 -190 45.833 -341.667 137.5 -455s214.5 -170 368.5 -170c141.333 0 254.333 41.167 339 123.5s127 191.5 127 327.5v50h-440v121h576v-160z
" />
    <glyph glyph-name="gdotaccent" unicode="&#x121;" horiz-adv-x="1242" 
d="M605 1280c-30 0 -55.667 10.833 -77 32.5s-32 47.5 -32 77.5s10.667 55.667 32 77s47 32 77 32s55.667 -10.667 77 -32s32 -47 32 -77s-10.667 -55.833 -32 -77.5s-47 -32.5 -77 -32.5zM945 550c0 128.667 -31.833 232 -95.5 310s-148.5 117 -254.5 117
c-106.667 0 -190.834 -38.5 -252.501 -115.5s-92.5 -180.167 -92.5 -309.5c0 -128.667 30.833 -231.5 92.5 -308.5s145.834 -115.5 252.501 -115.5c107.333 0 192.5 38.333 255.5 115s94.5 179 94.5 307zM606 -404c-122.667 0 -223 25.165 -301 75.498
s-124 117.833 -138 202.5h139c12 -50 44.667 -89.667 98 -119s120.666 -44 201.999 -44c104 0 186.167 25.333 246.5 76s90.5 119.667 90.5 207v242h-13c-32 -71.333 -79.5 -126.666 -142.5 -165.999s-135.833 -59 -218.5 -59c-138 0 -248.167 49.5 -330.5 148.5
s-123.5 229.833 -123.5 392.5s41.333 293.834 124 393.501s192.667 149.5 330 149.5c82 0 156.333 -21 223 -63s114.667 -98 144 -168h12v213h126v-1093c0 -117.333 -42.667 -211.333 -128 -282s-198.666 -106 -339.999 -106z" />
    <glyph glyph-name="Gcommaaccent" unicode="&#x122;" horiz-adv-x="1506" 
d="M752 -506h-127l102 364h141zM1375 559c0 -178.667 -54.667 -321.501 -164 -428.501s-255.333 -160.5 -438 -160.5c-195.333 0 -351.833 68.5 -469.5 205.5s-176.5 319.167 -176.5 546.5c0 226 58.667 407.667 176 545s273 206 467 206c154 0 284.5 -41 391.5 -123
s173.5 -191.667 199.5 -329h-139c-30 103.333 -84.333 183.333 -163 240s-175 85 -289 85c-152.667 0 -274.667 -56.667 -366 -170s-137 -264.666 -137 -453.999c0 -190 45.833 -341.667 137.5 -455s214.5 -170 368.5 -170c141.333 0 254.333 41.167 339 123.5
s127 191.5 127 327.5v50h-440v121h576v-160z" />
    <glyph glyph-name="gcommaaccent" unicode="&#x123;" horiz-adv-x="1242" 
d="M617 1647h127l-102 -364h-141zM945 550c0 128.667 -31.833 232 -95.5 310s-148.5 117 -254.5 117c-106.667 0 -190.834 -38.5 -252.501 -115.5s-92.5 -180.167 -92.5 -309.5c0 -128.667 30.833 -231.5 92.5 -308.5s145.834 -115.5 252.501 -115.5
c107.333 0 192.5 38.333 255.5 115s94.5 179 94.5 307zM606 -404c-122.667 0 -223 25.165 -301 75.498s-124 117.833 -138 202.5h139c12 -50 44.667 -89.667 98 -119s120.666 -44 201.999 -44c104 0 186.167 25.333 246.5 76s90.5 119.667 90.5 207v242h-13
c-32 -71.333 -79.5 -126.666 -142.5 -165.999s-135.833 -59 -218.5 -59c-138 0 -248.167 49.5 -330.5 148.5s-123.5 229.833 -123.5 392.5s41.333 293.834 124 393.501s192.667 149.5 330 149.5c82 0 156.333 -21 223 -63s114.667 -98 144 -168h12v213h126v-1093
c0 -117.333 -42.667 -211.333 -128 -282s-198.666 -106 -339.999 -106z" />
    <glyph glyph-name="Hcircumflex" unicode="&#x124;" horiz-adv-x="1488" 
d="M1303 0h-137v677h-844v-677h-137v1443h137v-642h844v642h137v-1443zM806 1874l289 -297h-155l-190 202h-12l-190 -202h-155l289 297h124z" />
    <glyph glyph-name="hcircumflex" unicode="&#x125;" horiz-adv-x="1224" 
d="M179 0v1506h131v-623h12c29.333 66.667 75.333 118.667 138 156s136.667 56 222 56c121.333 0 215.333 -34.667 282 -104s100 -166.333 100 -291v-700h-131v667c0 102 -24 179.167 -72 231.5s-119 78.5 -213 78.5c-101.333 0 -183 -31.333 -245 -94
s-93 -143.667 -93 -243v-640h-131zM306 1937l289 -297h-155l-190 202h-12l-190 -202h-155l289 297h124z" />
    <glyph glyph-name="Hbar" unicode="&#x126;" horiz-adv-x="1452" 
d="M1148 801v294h-844v-294h844zM1429 1206v-111h-144v-1095h-137v677h-844v-677h-137v1095h-144v111h144v237h137v-237h844v237h137v-237h144z" />
    <glyph glyph-name="hbar" unicode="&#x127;" horiz-adv-x="1231" 
d="M310 883h11.999c26.667 66 71.834 117.833 135.501 155.5s137.834 56.5 222.501 56.5c121.333 0 216.833 -34.833 286.5 -104.5s104.5 -166.5 104.5 -290.5v-700h-131v669c0 98.667 -25.833 174.667 -77.5 228s-123.834 80 -216.501 80c-100 0 -181 -31 -243 -93
s-93 -143.333 -93 -244v-640h-131v1285h-132v98h132v163h131v-163h272v-98h-272v-402z" />
    <glyph glyph-name="Itilde" unicode="&#x128;" horiz-adv-x="507" 
d="M322 0h-137v1443h137v-1443zM399 1577c-28.667 0 -54.835 5.66602 -78.502 16.999s-43.5 25.166 -59.5 41.499l-45.5 48.5c-14.333 16 -30.333 29.667 -48 41s-36.167 17 -55.5 17c-64.667 0 -98.334 -51.333 -101.001 -154h-106c0 79.333 18.5 141.833 55.5 187.5
s86.5 68.5 148.5 68.5c30 0 57.5 -5.66699 82.5 -17s45.833 -25.166 62.5 -41.499s32.334 -32.666 47.001 -48.999s30 -30.166 46 -41.499s32.333 -17 49 -17c28.667 0 52.334 12.667 71.001 38s29 64 31 116h105c0 -76.667 -18.667 -138.334 -56 -185.001
s-86.666 -70 -147.999 -70z" />
    <glyph glyph-name="itilde" unicode="&#x129;" horiz-adv-x="489" 
d="M179 0v1077h131v-1077h-131zM108 1388c-69.333 0 -104 -52.668 -104 -158.001h-111c0 80.667 18.667 144.5 56 191.5s88.333 70.5 153 70.5c28.667 0 55 -5.5 79 -16.5s44.167 -24.167 60.5 -39.5s31.833 -30.666 46.5 -45.999s29.834 -28.5 45.501 -39.5
s31.5 -16.5 47.5 -16.5c69.333 0 104 52.667 104 158h110c0 -80.667 -18.667 -144.5 -56 -191.5s-88.333 -70.5 -153 -70.5c-28 0 -54.167 5.5 -78.5 16.5s-44.5 24.167 -60.5 39.5l-46 46c-14.667 15.333 -29.834 28.5 -45.501 39.5s-31.5 16.5 -47.5 16.5z" />
    <glyph glyph-name="Imacron" unicode="&#x12a;" horiz-adv-x="507" 
d="M322 0h-137v1443h137v-1443zM576 1619h-644v105h644v-105z" />
    <glyph glyph-name="imacron" unicode="&#x12b;" horiz-adv-x="489" 
d="M179 0v1077h131v-1077h-131zM575 1292h-662v106h662v-106z" />
    <glyph glyph-name="Ibreve" unicode="&#x12c;" horiz-adv-x="507" 
d="M322 0h-137v1443h137v-1443zM-76 1851h117.998c0 -54 19.167 -96.833 57.5 -128.5s89.833 -47.5 154.5 -47.5s116.167 15.833 154.5 47.5s57.5 74.5 57.5 128.5h118c0 -84 -29.667 -150.667 -89 -200s-139.666 -74 -240.999 -74s-181.666 24.667 -240.999 74
s-89 116 -89 200z" />
    <glyph glyph-name="ibreve" unicode="&#x12d;" horiz-adv-x="489" 
d="M179 0v1077h131v-1077h-131zM-87 1538h119c0 -60 18.5 -108 55.5 -144s88.833 -54 155.5 -54s118.5 18 155.5 54s55.5 84 55.5 144h119c0 -89.333 -29.5 -161.333 -88.5 -216s-139.5 -82 -241.5 -82s-182.5 27.333 -241.5 82s-88.5 126.667 -88.5 216z" />
    <glyph glyph-name="Iogonek" unicode="&#x12e;" horiz-adv-x="507" 
d="M380 -398c-30.667 -15.333 -69.667 -23 -117 -23c-63.333 0 -114.833 18.5 -154.5 55.5s-59.5 85.167 -59.5 144.5c0 90 45.333 169.667 136 239v1425h137v-1437c-101.333 -63.333 -152 -130.666 -152 -201.999c0 -36.667 11.5 -65.834 34.5 -87.501
s53.5 -32.5 91.5 -32.5c34 0 62 5 84 15v-97z" />
    <glyph glyph-name="iogonek" unicode="&#x12f;" horiz-adv-x="489" 
d="M240 1317c-26.667 0 -49.5 9.66699 -68.5 29s-28.5 42.333 -28.5 69s9.5 49.5 28.5 68.5s41.833 28.5 68.5 28.5s49.667 -9.5 69 -28.5s29 -41.833 29 -68.5c0 -27.333 -9.66699 -50.5 -29 -69.5s-42.333 -28.5 -69 -28.5zM367 -398
c-32 -15.333 -71 -22.999 -117 -22.999c-64 0 -115.667 18.5 -155 55.5s-59 85.167 -59 144.5c0 90 46.333 170 139 240v1058h131v-1064c-100 -62 -150 -131.667 -150 -209c0 -36.667 11.667 -65.834 35 -87.501s54 -32.5 92 -32.5c32.667 0 60.667 5 84 15v-97z" />
    <glyph glyph-name="Idotaccent" unicode="&#x130;" horiz-adv-x="507" 
d="M322 0h-137v1443h137v-1443zM254 1577c-29.333 0 -54.166 10.167 -74.499 30.5s-30.5 44.833 -30.5 73.5s10.167 53.334 30.5 74.001s45.166 31 74.499 31s54.166 -10.333 74.499 -31s30.5 -45.334 30.5 -74.001s-10.167 -53.167 -30.5 -73.5
s-45.166 -30.5 -74.499 -30.5z" />
    <glyph glyph-name="dotlessi" unicode="&#x131;" horiz-adv-x="489" 
d="M179 0v1077h131v-1077h-131z" />
    <glyph glyph-name="u0132" unicode="&#x132;" horiz-adv-x="1595" 
d="M322 0h-137v1443h137v-1443zM599 330l136 -0.000976562c3.33301 -68.667 29.333 -124.667 78 -168s110.667 -65 186 -65c87.333 0 154.833 26.167 202.5 78.5s71.5 126.5 71.5 222.5v1045h137v-1050c0 -131.333 -36.667 -234.666 -110 -309.999s-173.333 -113 -300 -113
c-116.667 0 -212.5 33.5 -287.5 100.5s-112.833 153.5 -113.5 259.5z" />
    <glyph glyph-name="u0133" unicode="&#x133;" horiz-adv-x="977" 
d="M175 0v1077h131v-1077h-131zM240 1317c-26.667 0 -49.5 9.66699 -68.5 29s-28.5 42.333 -28.5 69s9.5 49.5 28.5 68.5s41.833 28.5 68.5 28.5s49.667 -9.5 69 -28.5s29 -41.833 29 -68.5c0 -27.333 -9.66699 -50.5 -29 -69.5s-42.333 -28.5 -69 -28.5zM795 1077
l0.000976562 -1158c0 -104 -25 -179.667 -75 -227s-127.667 -71 -233 -71h-30v113h27c65.333 0 111.666 14 138.999 42s41 74.667 41 140v1161h131zM729.001 1317c-26.667 0 -49.5 9.66699 -68.5 29s-28.5 42.333 -28.5 69s9.5 49.5 28.5 68.5s41.833 28.5 68.5 28.5
s49.667 -9.5 69 -28.5s29 -41.833 29 -68.5c0 -27.333 -9.5 -50.5 -28.5 -69.5s-42.167 -28.5 -69.5 -28.5z" />
    <glyph glyph-name="Jcircumflex" unicode="&#x134;" horiz-adv-x="1088" 
d="M92 330l136 -0.000976562c3.33301 -68.667 29.333 -124.667 78 -168s110.667 -65 186 -65c87.333 0 154.833 26.167 202.5 78.5s71.5 126.5 71.5 222.5v1045h137v-1050c0 -131.333 -36.667 -234.666 -110 -309.999s-173.333 -113 -300 -113
c-116.667 0 -212.5 33.5 -287.5 100.5s-112.833 153.5 -113.5 259.5zM897 1874l289 -297h-155l-190 202h-12l-190 -202h-155l289 297h124z" />
    <glyph glyph-name="jcircumflex" unicode="&#x135;" horiz-adv-x="480" 
d="M302 1077l0.000976562 -1158c0 -104 -25 -179.667 -75 -227s-127.667 -71 -233 -71h-30v113h27c65.333 0 111.666 14 138.999 42s41 74.667 41 140v1161h131zM319.001 1560l275 -332h-153l-193 243h-12l-193 -243h-153l275 332h154z" />
    <glyph glyph-name="Kcommaaccent" unicode="&#x136;" horiz-adv-x="1311" 
d="M322 0h-137v1443h137v-746h12l683 746h171l-578 -623l637 -820h-177l-555 725l-193 -210v-515zM616 -506h-127l102 364h141z" />
    <glyph glyph-name="kcommaaccent" unicode="&#x137;" horiz-adv-x="1092" 
d="M322 573l526 504h164l-481 -462l503 -615h-168l-434 531l-122 -113v-418h-131v1506h131v-933h12zM561 -506h-127l102 364h141z" />
    <glyph glyph-name="Lacute" unicode="&#x139;" horiz-adv-x="1139" 
d="M167 1577l310 297h174l-326 -297h-158zM1044 124v-124h-859v1443h137v-1319h722z" />
    <glyph glyph-name="lacute" unicode="&#x13a;" horiz-adv-x="489" 
d="M157 1640l310 297h174l-326 -297h-158zM179 0v1506h131v-1506h-131z" />
    <glyph glyph-name="Lcommaaccent" unicode="&#x13b;" horiz-adv-x="1139" 
d="M594 -506h-127l102 364h141zM1044 124v-124h-859v1443h137v-1319h722z" />
    <glyph glyph-name="lcommaaccent" unicode="&#x13c;" horiz-adv-x="489" 
d="M223 -506h-127l102 364h141zM179 0v1506h131v-1506h-131z" />
    <glyph glyph-name="Lcaron" unicode="&#x13d;" horiz-adv-x="1139" 
d="M550 1443h130l-36 -473h-94v473zM1044 124v-124h-859v1443h137v-1319h722z" />
    <glyph glyph-name="lcaron" unicode="&#x13e;" horiz-adv-x="557" 
d="M436 1506h129l-37 -444h-92v444zM179 0v1506h131v-1506h-131z" />
    <glyph glyph-name="Lslash" unicode="&#x141;" horiz-adv-x="1105" 
d="M322 124h722v-124h-859v727l-168 -82v111l168 82v605h137v-538l315 153v-111l-315 -153v-670z" />
    <glyph glyph-name="lslash" unicode="&#x142;" horiz-adv-x="489" 
d="M447 979v-112l-137 -72v-795h-131v727l-137 -72v113l137 71v667h131v-598z" />
    <glyph glyph-name="Nacute" unicode="&#x143;" horiz-adv-x="1494" 
d="M660 1577l310 297h174l-326 -297h-158zM320 0h-135v1443h135l841 -1198h13v1198h135v-1443h-132l-844 1199h-13v-1199z" />
    <glyph glyph-name="nacute" unicode="&#x144;" horiz-adv-x="1206" 
d="M539 1267l250 327h168l-269 -327h-149zM169 0l0.000976562 1077h125v-194h13c28.667 66.667 74.667 118.667 138 156s137.666 56 222.999 56c120 0 213 -34.5 279 -103.5s99 -166.167 99 -291.5v-700h-131v667c0 206.667 -93.667 310 -281 310
c-100.667 0 -181.5 -30.833 -242.5 -92.5s-91.5 -143.167 -91.5 -244.5v-640h-131z" />
    <glyph glyph-name="Ncommaaccent" unicode="&#x145;" horiz-adv-x="1494" 
d="M726 -506h-127l102 364h141zM320 0h-135v1443h135l841 -1198h13v1198h135v-1443h-132l-844 1199h-13v-1199z" />
    <glyph glyph-name="ncommaaccent" unicode="&#x146;" horiz-adv-x="1206" 
d="M581 -506h-127l102 364h141zM169 0l0.000976562 1077h125v-194h13c28.667 66.667 74.667 118.667 138 156s137.666 56 222.999 56c120 0 213 -34.5 279 -103.5s99 -166.167 99 -291.5v-700h-131v667c0 206.667 -93.667 310 -281 310
c-100.667 0 -181.5 -30.833 -242.5 -92.5s-91.5 -143.167 -91.5 -244.5v-640h-131z" />
    <glyph glyph-name="Ncaron" unicode="&#x147;" horiz-adv-x="1494" 
d="M811 1577h-128l-287 297h155l190 -203h12l190 203h155zM320 0h-135v1443h135l841 -1198h13v1198h135v-1443h-132l-844 1199h-13v-1199z" />
    <glyph glyph-name="ncaron" unicode="&#x148;" horiz-adv-x="1206" 
d="M705 1228h-154l-275 332h153l193 -243h12l193 243h153zM169 0l0.000976562 1077h125v-194h13c28.667 66.667 74.667 118.667 138 156s137.666 56 222.999 56c120 0 213 -34.5 279 -103.5s99 -166.167 99 -291.5v-700h-131v667c0 206.667 -93.667 310 -281 310
c-100.667 0 -181.5 -30.833 -242.5 -92.5s-91.5 -143.167 -91.5 -244.5v-640h-131z" />
    <glyph glyph-name="Omacron" unicode="&#x14c;" horiz-adv-x="1561" 
d="M781 1473c202 0 361.169 -67.333 477.502 -202s174.5 -317.667 174.5 -549s-58.167 -414.5 -174.5 -549.5s-275.5 -202.5 -477.5 -202.5c-202.667 0 -362.334 67.5 -479.001 202.5s-175 318.167 -175 549.5c0 230.667 58.667 413.5 176 548.5
s276.666 202.5 477.999 202.5zM781.002 1346c-157.333 0 -282.333 -56.167 -375 -168.5s-139 -264.166 -139 -455.499c0 -190.667 46 -342.5 138 -455.5s217.333 -169.5 376 -169.5c158 0 282.833 56.5 374.5 169.5s137.5 264.833 137.5 455.5
c0 191.333 -45.833 343.166 -137.5 455.499s-216.5 168.5 -374.5 168.5zM1103 1619h-644v105h644v-105z" />
    <glyph glyph-name="omacron" unicode="&#x14d;" horiz-adv-x="1208" 
d="M935 1292h-662v106h662v-106zM604 101c110.667 0 197.334 38.833 260.001 116.5s94 184.834 94 321.501s-31.333 243.834 -94 321.501s-149.334 116.5 -260.001 116.5s-197.334 -38.833 -260.001 -116.5s-94 -184.834 -94 -321.501s31.333 -243.834 94 -321.501
s149.334 -116.5 260.001 -116.5zM604 -18c-150.667 0 -269.834 49.833 -357.501 149.5s-131.5 235.5 -131.5 407.5s43.833 307.667 131.5 407s206.834 149 357.501 149s270 -49.667 358 -149s132 -235 132 -407s-44 -307.833 -132 -407.5s-207.333 -149.5 -358 -149.5z" />
    <glyph glyph-name="Obreve" unicode="&#x14e;" horiz-adv-x="1561" 
d="M781 1473c202 0 361.169 -67.333 477.502 -202s174.5 -317.667 174.5 -549s-58.167 -414.5 -174.5 -549.5s-275.5 -202.5 -477.5 -202.5c-202.667 0 -362.334 67.5 -479.001 202.5s-175 318.167 -175 549.5c0 230.667 58.667 413.5 176 548.5
s276.666 202.5 477.999 202.5zM781.002 1346c-157.333 0 -282.333 -56.167 -375 -168.5s-139 -264.166 -139 -455.499c0 -190.667 46 -342.5 138 -455.5s217.333 -169.5 376 -169.5c158 0 282.833 56.5 374.5 169.5s137.5 264.833 137.5 455.5
c0 191.333 -45.833 343.166 -137.5 455.499s-216.5 168.5 -374.5 168.5zM451.002 1851h117.998c0 -54 19.167 -96.833 57.5 -128.5s89.833 -47.5 154.5 -47.5s116.167 15.833 154.5 47.5s57.5 74.5 57.5 128.5h118c0 -84 -29.667 -150.667 -89 -200
s-139.666 -74 -240.999 -74s-181.666 24.667 -240.999 74s-89 116 -89 200z" />
    <glyph glyph-name="obreve" unicode="&#x14f;" horiz-adv-x="1208" 
d="M273 1538h119c0 -60 18.5 -108 55.5 -144s88.833 -54 155.5 -54s118.5 18 155.5 54s55.5 84 55.5 144h119c0 -89.333 -29.5 -161.333 -88.5 -216s-139.5 -82 -241.5 -82s-182.5 27.333 -241.5 82s-88.5 126.667 -88.5 216zM604 101
c110.667 0 197.334 38.833 260.001 116.5s94 184.834 94 321.501s-31.333 243.834 -94 321.501s-149.334 116.5 -260.001 116.5s-197.334 -38.833 -260.001 -116.5s-94 -184.834 -94 -321.501s31.333 -243.834 94 -321.501s149.334 -116.5 260.001 -116.5zM604 -18
c-150.667 0 -269.834 49.833 -357.501 149.5s-131.5 235.5 -131.5 407.5s43.833 307.667 131.5 407s206.834 149 357.501 149s270 -49.667 358 -149s132 -235 132 -407s-44 -307.833 -132 -407.5s-207.333 -149.5 -358 -149.5z" />
    <glyph glyph-name="Ohungarumlaut" unicode="&#x150;" horiz-adv-x="1561" 
d="M831 1577l309 297h174l-325 -297h-158zM468 1577l309 297h174l-326 -297h-157zM781 1473c202 0 361.169 -67.333 477.502 -202s174.5 -317.667 174.5 -549s-58.167 -414.5 -174.5 -549.5s-275.5 -202.5 -477.5 -202.5c-202.667 0 -362.334 67.5 -479.001 202.5
s-175 318.167 -175 549.5c0 230.667 58.667 413.5 176 548.5s276.666 202.5 477.999 202.5zM781.002 1346c-157.333 0 -282.333 -56.167 -375 -168.5s-139 -264.166 -139 -455.499c0 -190.667 46 -342.5 138 -455.5s217.333 -169.5 376 -169.5
c158 0 282.833 56.5 374.5 169.5s137.5 264.833 137.5 455.5c0 191.333 -45.833 343.166 -137.5 455.499s-216.5 168.5 -374.5 168.5z" />
    <glyph glyph-name="ohungarumlaut" unicode="&#x151;" horiz-adv-x="1208" 
d="M677 1264l250 330h161l-271 -330h-140zM325 1264l250 330h161l-271 -330h-140zM604 101c110.667 0 197.334 38.833 260.001 116.5s94 184.834 94 321.501s-31.333 243.834 -94 321.501s-149.334 116.5 -260.001 116.5s-197.334 -38.833 -260.001 -116.5
s-94 -184.834 -94 -321.501s31.333 -243.834 94 -321.501s149.334 -116.5 260.001 -116.5zM604 -18c-150.667 0 -269.834 49.833 -357.501 149.5s-131.5 235.5 -131.5 407.5s43.833 307.667 131.5 407s206.834 149 357.501 149s270 -49.667 358 -149s132 -235 132 -407
s-44 -307.833 -132 -407.5s-207.333 -149.5 -358 -149.5z" />
    <glyph glyph-name="OE" unicode="&#x152;" horiz-adv-x="2321" 
d="M788 1346c-160 0 -286.833 -56.001 -380.5 -168.001s-140.5 -264 -140.5 -456c0 -192.667 46.667 -345 140 -457s220.333 -168 381 -168c156 0 279.333 56 370 168s136 264.333 136 457s-45.333 344.834 -136 456.501s-214 167.5 -370 167.5zM1309 -0.000976562v302h-12
c-44 -102 -113 -182.833 -207 -242.5s-199.333 -89.5 -316 -89.5c-199.333 0 -357 67.5 -473 202.5s-174 318.167 -174 549.5c0 230 58.167 412.667 174.5 548s273.833 203 472.5 203c115.333 0 220.333 -29.333 315 -88s164 -137.667 208 -237h12v295h872v-124h-748v-519
h711v-122h-711v-554h748v-124h-872z" />
    <glyph glyph-name="oe" unicode="&#x153;" horiz-adv-x="2018" 
d="M1442 -18c-98.667 0 -185.833 25.999 -261.5 77.999s-125.167 119.667 -148.5 203h-12c-23.333 -84 -73.333 -151.833 -150 -203.5s-165.334 -77.5 -266.001 -77.5c-150.667 0 -269.834 50 -357.501 150s-131.5 235.667 -131.5 407s43.833 307 131.5 407
s206.834 150 357.501 150c98.667 0 185.334 -25.667 260.001 -77s126.667 -120.666 156 -207.999h13c29.333 87.333 80.5 156.5 153.5 207.5s157.167 76.5 252.5 76.5c142.667 0 255.667 -47.833 339 -143.5s125 -225.5 125 -389.5v-57h-808v-6
c3.33301 -121.333 36.5 -218.333 99.5 -291s146.167 -109 249.5 -109c76 0 140.833 14.5 194.5 43.5s91.834 70.167 114.501 123.5h133c-26.667 -88 -79.334 -157.333 -158.001 -208s-174 -76 -286 -76zM1438 978.999c-97.333 0 -177.168 -33.3311 -239.501 -99.998
s-96.833 -155.334 -103.5 -266.001h671c-1.33301 109.333 -32.166 197.666 -92.499 264.999s-138.833 101 -235.5 101zM603.999 101.001c110.667 0 197.333 38.6689 260 116.002s94 184 94 320c0 137.333 -31.5 245 -94.5 323s-149.5 117 -259.5 117
c-110.667 0 -197.334 -38.833 -260.001 -116.5s-94 -184.834 -94 -321.501s31.333 -243.834 94 -321.501s149.334 -116.5 260.001 -116.5z" />
    <glyph glyph-name="Racute" unicode="&#x154;" horiz-adv-x="1309" 
d="M504 1577l310 297h174l-326 -297h-158zM322 1321v-608h369c104.667 0 186.167 26.667 244.5 80s87.5 128 87.5 224c0 94.667 -30 169 -90 223s-142.667 81 -248 81h-363zM322 591l0.000976562 -591.001h-137v1443h517c140.667 0 252.667 -38.167 336 -114.5
s125 -178.833 125 -307.5c0 -102 -27.333 -189.167 -82 -261.5s-130.334 -121.166 -227.001 -146.499l350 -613h-160l-332 591h-21h-369z" />
    <glyph glyph-name="racute" unicode="&#x155;" horiz-adv-x="754" 
d="M285 1267l250 327h168l-269 -327h-149zM169 0l-0.000976562 1077h125v-177h13c18 58.667 54.667 105.834 110 141.501s118.666 53.5 189.999 53.5c42.667 0 76.334 -3 101.001 -9v-131c-30 8.66699 -69 13 -117 13c-83.333 0 -152.666 -28.167 -207.999 -84.5
s-83 -126.833 -83 -211.5v-672h-131z" />
    <glyph glyph-name="Rcommaaccent" unicode="&#x156;" horiz-adv-x="1309" 
d="M322 1321v-608h369c104.667 0 186.167 26.667 244.5 80s87.5 128 87.5 224c0 94.667 -30 169 -90 223s-142.667 81 -248 81h-363zM322 591l0.000976562 -591.001h-137v1443h517c140.667 0 252.667 -38.167 336 -114.5s125 -178.833 125 -307.5
c0 -102 -27.333 -189.167 -82 -261.5s-130.334 -121.166 -227.001 -146.499l350 -613h-160l-332 591h-21h-369zM579.001 -506.001h-127l102 364h141z" />
    <glyph glyph-name="rcommaaccent" unicode="&#x157;" horiz-adv-x="754" 
d="M169 0l-0.000976562 1077h125v-177h13c18 58.667 54.667 105.834 110 141.501s118.666 53.5 189.999 53.5c42.667 0 76.334 -3 101.001 -9v-131c-30 8.66699 -69 13 -117 13c-83.333 0 -152.666 -28.167 -207.999 -84.5s-83 -126.833 -83 -211.5v-672h-131z
M212.999 -506.001h-127l102 364h141z" />
    <glyph glyph-name="Rcaron" unicode="&#x158;" horiz-adv-x="1309" 
d="M322 1321v-608h369c104.667 0 186.167 26.667 244.5 80s87.5 128 87.5 224c0 94.667 -30 169 -90 223s-142.667 81 -248 81h-363zM322 591l0.000976562 -591.001h-137v1443h517c140.667 0 252.667 -38.167 336 -114.5s125 -178.833 125 -307.5
c0 -102 -27.333 -189.167 -82 -261.5s-130.334 -121.166 -227.001 -146.499l350 -613h-160l-332 591h-21h-369zM655.001 1577h-128l-287 297h155l190 -203h12l190 203h155z" />
    <glyph glyph-name="rcaron" unicode="&#x159;" horiz-adv-x="754" 
d="M451 1228h-154l-275 332h153l193 -243h12l193 243h153zM169 0l-0.000976562 1077h125v-177h13c18 58.667 54.667 105.834 110 141.501s118.666 53.5 189.999 53.5c42.667 0 76.334 -3 101.001 -9v-131c-30 8.66699 -69 13 -117 13
c-83.333 0 -152.666 -28.167 -207.999 -84.5s-83 -126.833 -83 -211.5v-672h-131z" />
    <glyph glyph-name="Sacute" unicode="&#x15a;" horiz-adv-x="1284" 
d="M563 1577l310 297h174l-326 -297h-158zM115 375l138 0.00195312c9.33301 -82.667 51.5 -150 126.5 -202s167.5 -78 277.5 -78c107.333 0 196 26.667 266 80s105 120.333 105 201c0 68 -25.833 124.667 -77.5 170s-133.167 81.666 -244.5 108.999l-165 42
c-135.333 33.333 -233.333 79.833 -294 139.5s-91 138.5 -91 236.5c0 117.333 45.833 213.333 137.5 288s210.5 112 356.5 112c137.333 0 252.333 -36.167 345 -108.5s142.667 -163.833 150 -274.5h-138c-11.333 77.333 -49.5 139.666 -114.5 186.999s-147.167 71 -246.5 71
c-103.333 0 -187.5 -25.5 -252.5 -76.5s-97.5 -115.833 -97.5 -194.5c0 -62.667 24 -113.834 72 -153.501s127 -73.167 237 -100.5l143 -36c148.667 -36.667 255.834 -86.167 321.501 -148.5s98.5 -144.833 98.5 -247.5c0 -126 -47.833 -227.667 -143.5 -305
s-222.167 -116 -379.5 -116c-149.333 0 -272.833 37.333 -370.5 112s-150.834 172.334 -159.501 293.001z" />
    <glyph glyph-name="sacute" unicode="&#x15b;" horiz-adv-x="1058" 
d="M144 792c0 86 37.5 157.997 112.5 215.997s167.167 87 276.5 87c108.667 0 198.667 -25.167 270 -75.5s113 -118.166 125 -203.499h-129c-12 50.667 -41.833 91.167 -89.5 121.5s-106.834 45.5 -177.501 45.5c-71.333 0 -131.833 -17.667 -181.5 -53
s-74.5 -79.666 -74.5 -132.999c0 -44 17.333 -79.667 52 -107s88.667 -49.666 162 -66.999l148 -35c106 -25.333 184 -60.833 234 -106.5s75 -106.834 75 -183.501c0 -92 -39.667 -167.667 -119 -227s-178.333 -89 -297 -89c-117.333 0 -214 25.833 -290 77.5
s-119.333 121.834 -130 210.501h136c14.667 -54.667 47 -97.667 97 -129s113.667 -47 191 -47c79.333 0 145.333 18.333 198 55s79 83 79 139c0 46.667 -17 84.5 -51 113.5s-87.333 52.167 -160 69.5l-163 39c-101.333 24.667 -175.666 59.167 -222.999 103.5
s-71 103.833 -71 178.5zM441 1267l250 327h168l-269 -327h-149z" />
    <glyph glyph-name="Scircumflex" unicode="&#x15c;" horiz-adv-x="1284" 
d="M115 375l138 0.00195312c9.33301 -82.667 51.5 -150 126.5 -202s167.5 -78 277.5 -78c107.333 0 196 26.667 266 80s105 120.333 105 201c0 68 -25.833 124.667 -77.5 170s-133.167 81.666 -244.5 108.999l-165 42c-135.333 33.333 -233.333 79.833 -294 139.5
s-91 138.5 -91 236.5c0 117.333 45.833 213.333 137.5 288s210.5 112 356.5 112c137.333 0 252.333 -36.167 345 -108.5s142.667 -163.833 150 -274.5h-138c-11.333 77.333 -49.5 139.666 -114.5 186.999s-147.167 71 -246.5 71c-103.333 0 -187.5 -25.5 -252.5 -76.5
s-97.5 -115.833 -97.5 -194.5c0 -62.667 24 -113.834 72 -153.501s127 -73.167 237 -100.5l143 -36c148.667 -36.667 255.834 -86.167 321.501 -148.5s98.5 -144.833 98.5 -247.5c0 -126 -47.833 -227.667 -143.5 -305s-222.167 -116 -379.5 -116
c-149.333 0 -272.833 37.333 -370.5 112s-150.834 172.334 -159.501 293.001zM712 1874l289 -297h-155l-190 202h-12l-190 -202h-155l289 297h124z" />
    <glyph glyph-name="scircumflex" unicode="&#x15d;" horiz-adv-x="1058" 
d="M607 1560l275 -332h-153l-193 243h-12l-193 -243h-153l275 332h154zM144 792c0 86 37.5 157.997 112.5 215.997s167.167 87 276.5 87c108.667 0 198.667 -25.167 270 -75.5s113 -118.166 125 -203.499h-129c-12 50.667 -41.833 91.167 -89.5 121.5
s-106.834 45.5 -177.501 45.5c-71.333 0 -131.833 -17.667 -181.5 -53s-74.5 -79.666 -74.5 -132.999c0 -44 17.333 -79.667 52 -107s88.667 -49.666 162 -66.999l148 -35c106 -25.333 184 -60.833 234 -106.5s75 -106.834 75 -183.501c0 -92 -39.667 -167.667 -119 -227
s-178.333 -89 -297 -89c-117.333 0 -214 25.833 -290 77.5s-119.333 121.834 -130 210.501h136c14.667 -54.667 47 -97.667 97 -129s113.667 -47 191 -47c79.333 0 145.333 18.333 198 55s79 83 79 139c0 46.667 -17 84.5 -51 113.5s-87.333 52.167 -160 69.5l-163 39
c-101.333 24.667 -175.666 59.167 -222.999 103.5s-71 103.833 -71 178.5z" />
    <glyph glyph-name="Scedilla" unicode="&#x15e;" horiz-adv-x="1284" 
d="M605 823l142.998 -35.9961c148.667 -36.667 255.834 -86.167 321.501 -148.5s98.5 -144.833 98.5 -247.5c0 -118.667 -42.5 -215.834 -127.5 -291.501s-198.833 -118.167 -341.5 -127.5l-46 -114c66.667 0 118.834 -13.833 156.501 -41.5s56.5 -67.167 56.5 -118.5
c0 -54 -21 -97.833 -63 -131.5s-98 -50.5 -168 -50.5c-52 0 -99.667 6.66699 -143 20v87c33.333 -12 75.666 -18 126.999 -18c40 0 72 8 96 24s36 38 36 66c0 54 -51.667 81 -155 81h-56v67l52 129c-135.333 9.33301 -246.666 50.5 -333.999 123.5s-135 166.167 -143 279.5
h138c9.33301 -82.667 51.5 -150 126.5 -202s167.5 -78 277.5 -78c107.333 0 196 26.667 266 80s105 120.333 105 201c0 68 -25.833 124.667 -77.5 170s-133.167 81.666 -244.5 108.999l-165 42c-135.333 33.333 -233.333 79.833 -294 139.5s-91 138.5 -91 236.5
c0 117.333 45.833 213.333 137.5 288s210.5 112 356.5 112c137.333 0 252.333 -36.167 345 -108.5s142.667 -163.833 150 -274.5h-138c-11.333 77.333 -49.5 139.666 -114.5 186.999s-147.167 71 -246.5 71c-103.333 0 -187.5 -25.5 -252.5 -76.5
s-97.5 -115.833 -97.5 -194.5c0 -62.667 24 -113.834 72 -153.501s127 -73.167 237 -100.5z" />
    <glyph glyph-name="scedilla" unicode="&#x15f;" horiz-adv-x="1058" 
d="M490 623l148 -35.002c106 -25.333 184 -60.833 234 -106.5s75 -106.834 75 -183.501c0 -84 -33.333 -154.667 -100 -212s-152.334 -91 -257.001 -101l-51 -127c66.667 0 118.834 -13.833 156.501 -41.5s56.5 -67.167 56.5 -118.5c0 -54 -21 -97.833 -63 -131.5
s-98 -50.5 -168 -50.5c-52 0 -99.667 6.66699 -143 20v87c33.333 -12 75.666 -18 126.999 -18c40 0 72 8 96 24s36 38 36 66c0 54 -51.667 81 -155 81h-56v67l57 141c-105.333 7.33301 -191.166 36.333 -257.499 87s-104.5 117 -114.5 199h136
c14.667 -54.667 47 -97.667 97 -129s113.667 -47 191 -47c79.333 0 145.333 18.333 198 55s79 83 79 139c0 46.667 -17 84.5 -51 113.5s-87.333 52.167 -160 69.5l-163 39c-101.333 24.667 -175.666 59.167 -222.999 103.5s-71 103.833 -71 178.5c0 86 37.5 158 112.5 216
s167.167 87 276.5 87c108.667 0 198.667 -25.167 270 -75.5s113 -118.166 125 -203.499h-129c-12 50.667 -41.833 91.167 -89.5 121.5s-106.834 45.5 -177.501 45.5c-71.333 0 -131.833 -17.667 -181.5 -53s-74.5 -79.666 -74.5 -132.999c0 -44 17.333 -79.667 52 -107
s88.667 -49.666 162 -66.999z" />
    <glyph glyph-name="Scaron" unicode="&#x160;" horiz-adv-x="1284" 
d="M115 375l138 0.00195312c9.33301 -82.667 51.5 -150 126.5 -202s167.5 -78 277.5 -78c107.333 0 196 26.667 266 80s105 120.333 105 201c0 68 -25.833 124.667 -77.5 170s-133.167 81.666 -244.5 108.999l-165 42c-135.333 33.333 -233.333 79.833 -294 139.5
s-91 138.5 -91 236.5c0 117.333 45.833 213.333 137.5 288s210.5 112 356.5 112c137.333 0 252.333 -36.167 345 -108.5s142.667 -163.833 150 -274.5h-138c-11.333 77.333 -49.5 139.666 -114.5 186.999s-147.167 71 -246.5 71c-103.333 0 -187.5 -25.5 -252.5 -76.5
s-97.5 -115.833 -97.5 -194.5c0 -62.667 24 -113.834 72 -153.501s127 -73.167 237 -100.5l143 -36c148.667 -36.667 255.834 -86.167 321.501 -148.5s98.5 -144.833 98.5 -247.5c0 -126 -47.833 -227.667 -143.5 -305s-222.167 -116 -379.5 -116
c-149.333 0 -272.833 37.333 -370.5 112s-150.834 172.334 -159.501 293.001zM714 1577h-128l-287 297h155l190 -203h12l190 203h155z" />
    <glyph glyph-name="scaron" unicode="&#x161;" horiz-adv-x="1058" 
d="M607 1228h-154l-275 332h153l193 -243h12l193 243h153zM144 792c0 86 37.5 157.997 112.5 215.997s167.167 87 276.5 87c108.667 0 198.667 -25.167 270 -75.5s113 -118.166 125 -203.499h-129c-12 50.667 -41.833 91.167 -89.5 121.5s-106.834 45.5 -177.501 45.5
c-71.333 0 -131.833 -17.667 -181.5 -53s-74.5 -79.666 -74.5 -132.999c0 -44 17.333 -79.667 52 -107s88.667 -49.666 162 -66.999l148 -35c106 -25.333 184 -60.833 234 -106.5s75 -106.834 75 -183.501c0 -92 -39.667 -167.667 -119 -227s-178.333 -89 -297 -89
c-117.333 0 -214 25.833 -290 77.5s-119.333 121.834 -130 210.501h136c14.667 -54.667 47 -97.667 97 -129s113.667 -47 191 -47c79.333 0 145.333 18.333 198 55s79 83 79 139c0 46.667 -17 84.5 -51 113.5s-87.333 52.167 -160 69.5l-163 39
c-101.333 24.667 -175.666 59.167 -222.999 103.5s-71 103.833 -71 178.5z" />
    <glyph glyph-name="Tcedilla" unicode="&#x162;" horiz-adv-x="1280" 
d="M1192 1319h-484v-1319h1l-57 -142c66.667 0 118.834 -13.833 156.501 -41.5s56.5 -67.167 56.5 -118.5c0 -54 -21 -97.833 -63 -131.5s-98 -50.5 -168 -50.5c-52 0 -99.667 6.66699 -143 20v87c33.333 -12 75.666 -18 126.999 -18c40 0 72 8 96 24s36 38 36 66
c0 54 -51.667 81 -155 81h-56v67l64 157h-31v1319h-484v124h1104v-124z" />
    <glyph glyph-name="tcedilla" unicode="&#x163;" horiz-adv-x="724" 
d="M390 -484c-52.667 0 -100.336 6.66797 -143.003 20.001v87c33.333 -12 75.333 -18 126 -18c40.667 0 72.834 8 96.501 24s35.5 38 35.5 66c0 54 -51.333 81 -154 81h-56v67l71 176c-44.667 18 -77.334 47.167 -98.001 87.5s-31 94.166 -31 161.499v698h-174v111h174v276
h131v-276h256v-111h-256v-668c0 -66 13.333 -113.833 40 -143.5s70.334 -44.5 131.001 -44.5c31.333 0 58 1 80 3v-112c-26.667 -4.66699 -58 -7 -94 -7c-16 0 -36.667 1.33301 -62 4l-55 -140c66.667 0 118.834 -13.833 156.501 -41.5s56.5 -67.167 56.5 -118.5
c0 -54 -21.167 -97.833 -63.5 -131.5s-98.166 -50.5 -167.499 -50.5z" />
    <glyph glyph-name="Tcaron" unicode="&#x164;" horiz-adv-x="1280" 
d="M704 1577h-128l-287 297h155l190 -203h12l190 203h155zM708 0h-136v1319h-484v124h1104v-124h-484v-1319z" />
    <glyph glyph-name="tcaron" unicode="&#x165;" horiz-adv-x="724" 
d="M591 1233h-93v444h130zM237 1353h130.998v-276h256v-111h-256v-668c0 -66 13.333 -113.833 40 -143.5s70.334 -44.5 131.001 -44.5c31.333 0 58 1 80 3v-112c-26.667 -4.66699 -58 -7 -94 -7c-103.333 0 -177.166 21.167 -221.499 63.5s-66.5 112.5 -66.5 210.5v698h-174
v111h174v276z" />
    <glyph glyph-name="Tbar" unicode="&#x166;" horiz-adv-x="1280" 
d="M1192 1319h-484v-531h304v-110h-304v-678h-136v678h-304v110h304v531h-484v124h1104v-124z" />
    <glyph glyph-name="tbar" unicode="&#x167;" horiz-adv-x="705" 
d="M624 966h-256.002v-316h255v-111h-255v-241c0 -66 13.333 -113.833 40 -143.5s70.334 -44.5 131.001 -44.5c31.333 0 58 1 80 3v-112c-26.667 -4.66699 -58 -7 -94 -7c-103.333 0 -177.166 21.167 -221.499 63.5s-66.5 112.5 -66.5 210.5v271h-172v111h172v316h-174v111
h174v276h131v-276h256v-111z" />
    <glyph glyph-name="Utilde" unicode="&#x168;" horiz-adv-x="1494" 
d="M325 1443l0.000976562 -934c0 -122 38 -220.667 114 -296s178.667 -113 308 -113s232 37.667 308 113s114 174 114 296v934h137v-943c0 -158 -50.333 -285.167 -151 -381.5s-236.667 -144.5 -408 -144.5c-170.667 0 -306.334 48.167 -407.001 144.5
s-151 223.5 -151 381.5v943h136zM892.001 1577c-28.667 0 -54.835 5.66602 -78.502 16.999s-43.5 25.166 -59.5 41.499l-45.5 48.5c-14.333 16 -30.333 29.667 -48 41s-36.167 17 -55.5 17c-64.667 0 -98.334 -51.333 -101.001 -154h-106c0 79.333 18.5 141.833 55.5 187.5
s86.5 68.5 148.5 68.5c30 0 57.5 -5.66699 82.5 -17s45.833 -25.166 62.5 -41.499s32.334 -32.666 47.001 -48.999s30 -30.166 46 -41.499s32.333 -17 49 -17c28.667 0 52.334 12.667 71.001 38s29 64 31 116h105c0 -76.667 -18.667 -138.334 -56 -185.001
s-86.666 -70 -147.999 -70z" />
    <glyph glyph-name="utilde" unicode="&#x169;" horiz-adv-x="1211" 
d="M1038 1077v-1077h-125v194h-12c-26.667 -66.667 -71.5 -118.667 -134.5 -156s-137.5 -56 -223.5 -56c-120 0 -213.833 35 -281.5 105s-101.5 166.667 -101.5 290v700h131v-667c0 -100 24.5 -176.333 73.5 -229s119.5 -79 211.5 -79c100.667 0 181 30.333 241 91
s90 142 90 244v640h131zM467 1388c-69.333 0 -104 -52.668 -104 -158.001h-111c0 80.667 18.667 144.5 56 191.5s88.333 70.5 153 70.5c28.667 0 55 -5.5 79 -16.5s44.167 -24.167 60.5 -39.5s31.833 -30.666 46.5 -45.999s29.834 -28.5 45.501 -39.5s31.5 -16.5 47.5 -16.5
c69.333 0 104 52.667 104 158h110c0 -80.667 -18.667 -144.5 -56 -191.5s-88.333 -70.5 -153 -70.5c-28 0 -54.167 5.5 -78.5 16.5s-44.5 24.167 -60.5 39.5l-46 46c-14.667 15.333 -29.834 28.5 -45.501 39.5s-31.5 16.5 -47.5 16.5z" />
    <glyph glyph-name="Umacron" unicode="&#x16a;" horiz-adv-x="1494" 
d="M325 1443l0.000976562 -934c0 -122 38 -220.667 114 -296s178.667 -113 308 -113s232 37.667 308 113s114 174 114 296v934h137v-943c0 -158 -50.333 -285.167 -151 -381.5s-236.667 -144.5 -408 -144.5c-170.667 0 -306.334 48.167 -407.001 144.5
s-151 223.5 -151 381.5v943h136zM1069 1619h-644v105h644v-105z" />
    <glyph glyph-name="umacron" unicode="&#x16b;" horiz-adv-x="1211" 
d="M1038 1077v-1077h-125v194h-12c-26.667 -66.667 -71.5 -118.667 -134.5 -156s-137.5 -56 -223.5 -56c-120 0 -213.833 35 -281.5 105s-101.5 166.667 -101.5 290v700h131v-667c0 -100 24.5 -176.333 73.5 -229s119.5 -79 211.5 -79c100.667 0 181 30.333 241 91
s90 142 90 244v640h131zM934 1292h-662v106h662v-106z" />
    <glyph glyph-name="Ubreve" unicode="&#x16c;" horiz-adv-x="1494" 
d="M325 1443l0.000976562 -934c0 -122 38 -220.667 114 -296s178.667 -113 308 -113s232 37.667 308 113s114 174 114 296v934h137v-943c0 -158 -50.333 -285.167 -151 -381.5s-236.667 -144.5 -408 -144.5c-170.667 0 -306.334 48.167 -407.001 144.5
s-151 223.5 -151 381.5v943h136zM417.001 1851h117.998c0 -54 19.167 -96.833 57.5 -128.5s89.833 -47.5 154.5 -47.5s116.167 15.833 154.5 47.5s57.5 74.5 57.5 128.5h118c0 -84 -29.667 -150.667 -89 -200s-139.666 -74 -240.999 -74s-181.666 24.667 -240.999 74
s-89 116 -89 200z" />
    <glyph glyph-name="ubreve" unicode="&#x16d;" horiz-adv-x="1211" 
d="M1038 1077v-1077h-125v194h-12c-26.667 -66.667 -71.5 -118.667 -134.5 -156s-137.5 -56 -223.5 -56c-120 0 -213.833 35 -281.5 105s-101.5 166.667 -101.5 290v700h131v-667c0 -100 24.5 -176.333 73.5 -229s119.5 -79 211.5 -79c100.667 0 181 30.333 241 91
s90 142 90 244v640h131zM272 1538h119c0 -60 18.5 -108 55.5 -144s88.833 -54 155.5 -54s118.5 18 155.5 54s55.5 84 55.5 144h119c0 -89.333 -29.5 -161.333 -88.5 -216s-139.5 -82 -241.5 -82s-182.5 27.333 -241.5 82s-88.5 126.667 -88.5 216z" />
    <glyph glyph-name="Uring" unicode="&#x16e;" horiz-adv-x="1494" 
d="M747 1570c-59.333 0 -109.666 20.333 -150.999 61s-62 90.667 -62 150c0 58.667 20.667 108.334 62 149.001s91.666 61 150.999 61s109.666 -20.333 150.999 -61s62 -90.334 62 -149.001c0 -59.333 -20.667 -109.333 -62 -150s-91.666 -61 -150.999 -61zM747 1655
c35.333 0 65 12.167 89 36.5s36 54.166 36 89.499s-12 65 -36 89s-53.667 36 -89 36s-65 -12 -89 -36s-36 -53.667 -36 -89s12 -65.166 36 -89.499s53.667 -36.5 89 -36.5zM325 1443l0.000976562 -934c0 -122 38 -220.667 114 -296s178.667 -113 308 -113
s232 37.667 308 113s114 174 114 296v934h137v-943c0 -158 -50.333 -285.167 -151 -381.5s-236.667 -144.5 -408 -144.5c-170.667 0 -306.334 48.167 -407.001 144.5s-151 223.5 -151 381.5v943h136z" />
    <glyph glyph-name="uring" unicode="&#x16f;" horiz-adv-x="1211" 
d="M1038 1077v-1077h-125v194h-12c-26.667 -66.667 -71.5 -118.667 -134.5 -156s-137.5 -56 -223.5 -56c-120 0 -213.833 35 -281.5 105s-101.5 166.667 -101.5 290v700h131v-667c0 -100 24.5 -176.333 73.5 -229s119.5 -79 211.5 -79c100.667 0 181 30.333 241 91
s90 142 90 244v640h131zM603 1228c-59.333 0 -109.666 20.333 -150.999 61s-62 90.667 -62 150c0 58.667 20.667 108.334 62 149.001s91.666 61 150.999 61s109.666 -20.333 150.999 -61s62 -90.334 62 -149.001c0 -59.333 -20.667 -109.333 -62 -150
s-91.666 -61 -150.999 -61zM603 1313c35.333 0 65 12.167 89 36.5s36 54.166 36 89.499s-12 65 -36 89s-53.667 36 -89 36s-65 -12 -89 -36s-36 -53.667 -36 -89s12 -65.166 36 -89.499s53.667 -36.5 89 -36.5z" />
    <glyph glyph-name="Uhungarumlaut" unicode="&#x170;" horiz-adv-x="1494" 
d="M325 1443l0.000976562 -934c0 -122 38 -220.667 114 -296s178.667 -113 308 -113s232 37.667 308 113s114 174 114 296v934h137v-943c0 -158 -50.333 -285.167 -151 -381.5s-236.667 -144.5 -408 -144.5c-170.667 0 -306.334 48.167 -407.001 144.5
s-151 223.5 -151 381.5v943h136zM797.001 1577l309 297h174l-325 -297h-158zM434.001 1577l309 297h174l-326 -297h-157z" />
    <glyph glyph-name="uhungarumlaut" unicode="&#x171;" horiz-adv-x="1211" 
d="M676 1264l250 330h161l-271 -330h-140zM324 1264l250 330h161l-271 -330h-140zM1038 1077v-1077h-125v194h-12c-26.667 -66.667 -71.5 -118.667 -134.5 -156s-137.5 -56 -223.5 -56c-120 0 -213.833 35 -281.5 105s-101.5 166.667 -101.5 290v700h131v-667
c0 -100 24.5 -176.333 73.5 -229s119.5 -79 211.5 -79c100.667 0 181 30.333 241 91s90 142 90 244v640h131z" />
    <glyph glyph-name="Uogonek" unicode="&#x172;" horiz-adv-x="1494" 
d="M971 -421c-62 0 -112.833 18.501 -152.5 55.501s-59.5 84.167 -59.5 141.5c0 76.667 37.667 145 113 205v13c-36 -13.333 -77.667 -20 -125 -20c-169.333 0 -304.666 47.833 -405.999 143.5s-152 223.167 -152 382.5v943h136v-934c0 -124 38.5 -223.167 115.5 -297.5
s179.167 -111.5 306.5 -111.5c128 0 230.333 37.167 307 111.5s115 173.5 115 297.5v934h137v-943c0 -63.333 -7.83301 -120.833 -23.5 -172.5s-36 -94.334 -61 -128.001s-52.667 -64.5 -83 -92.5s-60.666 -53.167 -90.999 -75.5s-58 -44.166 -83 -65.499
s-45.333 -46 -61 -74s-23.5 -58.333 -23.5 -91c0 -34.667 11.667 -62.834 35 -84.501s53.666 -32.5 90.999 -32.5c32 0 60 5 84 15v-97c-28.667 -15.333 -68.334 -23 -119.001 -23z" />
    <glyph glyph-name="uogonek" unicode="&#x173;" horiz-adv-x="1211" 
d="M1070 -404c-29.333 -11.333 -60.668 -17 -94.001 -17c-64 0 -115.833 18.667 -155.5 56s-59.5 85.666 -59.5 144.999c0 92.667 50.667 172.667 152 240v174h-12c-26.667 -66.667 -71.5 -118.667 -134.5 -156s-137.5 -56 -223.5 -56c-120 0 -213.833 35 -281.5 105
s-101.5 166.667 -101.5 290v700h131v-667c0 -100 24.333 -176.333 73 -229s119.334 -79 212.001 -79c100.667 0 181 30.333 241 91s90 142 90 244v640h131v-1064c-104 -57.333 -156 -125.666 -156 -204.999c0 -38 11.333 -68.167 34 -90.5s53 -33.5 91 -33.5
c26 0 47 3.66699 63 11v-99z" />
    <glyph glyph-name="Wcircumflex" unicode="&#x174;" horiz-adv-x="1956" 
d="M1040 1874l289 -297h-155l-190 202h-12l-190 -202h-155l289 297h124zM973 1205l-354 -1205h-127l-397 1443h142l317 -1230h9l347 1230h136l347 -1230h9l317 1230h142l-397 -1443h-127l-354 1205h-10z" />
    <glyph glyph-name="wcircumflex" unicode="&#x175;" horiz-adv-x="1566" 
d="M859 1560l275 -332h-153l-193 243h-12l-193 -243h-153l275 332h154zM1499 1077l-307 -1077h-139l-265 894h-13l-265 -894h-138l-305 1077h133l239 -914h12l266 914h131l266 -914h12l241 914h132z" />
    <glyph glyph-name="Ycircumflex" unicode="&#x176;" horiz-adv-x="1321" 
d="M729 0h-136v624l-518 819h157l423 -680h12l423 680h156l-517 -819v-624zM723 1874l289 -297h-155l-190 202h-12l-190 -202h-155l289 297h124z" />
    <glyph glyph-name="ycircumflex" unicode="&#x177;" horiz-adv-x="1079" 
d="M247 -375c-26.667 0 -47 1.33301 -61 4v113c14 -2 33.667 -3 59 -3c50 0 90.167 14 120.5 42s58.166 76.333 83.499 145l22 67l-404 1084h142l326 -934h12l325 934h140l-419 -1129c-47.333 -126.667 -94.666 -212.167 -141.999 -256.5s-115.333 -66.5 -204 -66.5z
M613 1560l275 -332h-153l-193 243h-12l-193 -243h-153l275 332h154z" />
    <glyph glyph-name="Ydieresis" unicode="&#x178;" horiz-adv-x="1321" 
d="M729 0h-136v624l-518 819h157l423 -680h12l423 680h156l-517 -819v-624zM479 1568c-28 0 -52 9.83301 -72 29.5s-30 43.834 -30 72.501s10 52.834 30 72.501s44 29.5 72 29.5c28.667 0 52.834 -9.83301 72.501 -29.5s29.5 -43.834 29.5 -72.501
s-9.83301 -52.834 -29.5 -72.501s-43.834 -29.5 -72.501 -29.5zM843 1568c-28 0 -52 9.83301 -72 29.5s-30 43.834 -30 72.501s10 52.834 30 72.501s44 29.5 72 29.5c28.667 0 52.834 -9.83301 72.501 -29.5s29.5 -43.834 29.5 -72.501s-9.83301 -52.834 -29.5 -72.501
s-43.834 -29.5 -72.501 -29.5z" />
    <glyph glyph-name="Zacute" unicode="&#x179;" horiz-adv-x="1328" 
d="M577 1577l310 297h174l-326 -297h-158zM138 0v99l863 1208v12h-834v124h1011v-100l-860 -1207v-12h872v-124h-1052z" />
    <glyph glyph-name="zacute" unicode="&#x17a;" horiz-adv-x="1082" 
d="M447 1267l250 327h168l-269 -327h-149zM131 0v100l660 854v12h-659v111h816v-101l-658 -853v-12h660v-111h-819z" />
    <glyph glyph-name="Zdotaccent" unicode="&#x17b;" horiz-adv-x="1328" 
d="M664 1577c-29.333 0 -54.166 10.167 -74.499 30.5s-30.5 44.833 -30.5 73.5s10.167 53.334 30.5 74.001s45.166 31 74.499 31s54.166 -10.333 74.499 -31s30.5 -45.334 30.5 -74.001s-10.167 -53.167 -30.5 -73.5s-45.166 -30.5 -74.499 -30.5zM138 0v99l863 1208v12
h-834v124h1011v-100l-860 -1207v-12h872v-124h-1052z" />
    <glyph glyph-name="zdotaccent" unicode="&#x17c;" horiz-adv-x="1082" 
d="M536 1280c-30 0 -55.667 10.833 -77 32.5s-32 47.5 -32 77.5s10.667 55.667 32 77s47 32 77 32s55.667 -10.667 77 -32s32 -47 32 -77s-10.667 -55.833 -32 -77.5s-47 -32.5 -77 -32.5zM131 0v100l660 854v12h-659v111h816v-101l-658 -853v-12h660v-111h-819z" />
    <glyph glyph-name="Zcaron" unicode="&#x17d;" horiz-adv-x="1328" 
d="M138 0v99l863 1208v12h-834v124h1011v-100l-860 -1207v-12h872v-124h-1052zM728 1577h-128l-287 297h155l190 -203h12l190 203h155z" />
    <glyph glyph-name="zcaron" unicode="&#x17e;" horiz-adv-x="1082" 
d="M613 1228h-154l-275 332h153l193 -243h12l193 243h153zM131 0v100l660 854v12h-659v111h816v-101l-658 -853v-12h660v-111h-819z" />
    <glyph glyph-name="florin" unicode="&#x192;" horiz-adv-x="1321" 
d="M286 -22c-68 0 -133.999 7.66699 -197.999 23v127c60 -19.333 122.333 -29 187 -29c145.333 0 229.666 74.667 252.999 224l64 418h-362v111h378l42 265c17.333 112 59 198.167 125 258.5s152 90.5 258 90.5c72.667 0 137.667 -6.66699 195 -20v-120
c-47.333 13.333 -107.333 20 -180 20c-153.333 0 -242 -79.333 -266 -238l-40 -256h395v-111h-412l-66 -429c-34 -222.667 -158.333 -334 -373 -334z" />
    <glyph glyph-name="Ohorn" unicode="&#x1a0;" horiz-adv-x="1609" 
d="M1433 722c0 -232.667 -58.3359 -416.167 -175.003 -550.5s-275.667 -201.5 -477 -201.5s-360.666 67.167 -477.999 201.5s-176 317.5 -176 549.5s58.833 415.333 176.5 550s277.167 202 478.5 202c68 0 131.333 -8.5 190 -25.5s104.334 -35.5 137.001 -55.5
s66.667 -38.5 102 -55.5s67 -25.5 95 -25.5c72 0 108 53.667 108 161v150h122v-183c0 -74 -15.5 -131 -46.5 -171s-75.5 -60 -133.5 -60c-17.333 0 -34.666 4.33301 -51.999 13l-9 -10c92 -131.333 138 -294.333 138 -489zM780.997 1346
c-157.333 0 -282.333 -56.3311 -375 -168.998s-139 -264.667 -139 -456c0 -190.667 46.333 -342.334 139 -455.001s217.667 -169 375 -169c156.667 0 281.167 56.333 373.5 169s138.5 264.667 138.5 456s-46 343.166 -138 455.499s-216.667 168.5 -374 168.5z" />
    <glyph glyph-name="ohorn" unicode="&#x1a1;" horiz-adv-x="1322" 
d="M250 539c0 -136.667 31.333 -243.834 94 -321.501s149.334 -116.5 260.001 -116.5s197.334 38.833 260.001 116.5s94 184.834 94 321.501s-31.333 243.834 -94 321.501s-149.334 116.5 -260.001 116.5s-197.334 -38.833 -260.001 -116.5s-94 -184.834 -94 -321.501z
M1094 539c0 -171.333 -43.999 -307 -131.999 -407s-207.333 -150 -358 -150s-269.834 50 -357.501 150s-131.5 235.667 -131.5 407c0 172 43.833 307.667 131.5 407s207.5 149 359.5 149c48 0 92.167 -5.5 132.5 -16.5s73.833 -24.167 100.5 -39.5
s51.167 -30.833 73.5 -46.5s44.5 -29 66.5 -40s43.667 -16.5 65 -16.5c38.667 0 67 11.333 85 34s27 60.667 27 114v163h122v-209c0 -66 -15.5 -117.5 -46.5 -154.5s-73.167 -55.5 -126.5 -55.5c-24 0 -45 4 -63 12l-9 -10c40.667 -90 61 -187 61 -291z" />
    <glyph glyph-name="Uhorn" unicode="&#x1af;" horiz-adv-x="1715" 
d="M1306 1328c8 -9.33301 21.166 -16.668 39.499 -22.001s35.5 -8 51.5 -8c46 0 79.167 13 99.5 39s30.5 68.667 30.5 128v144h122v-179c0 -74 -20.5 -132.5 -61.5 -175.5s-96.833 -64.5 -167.5 -64.5c-19.333 0 -40.333 2.83301 -63 8.5s-39.667 12.834 -51 21.501v-720
c0 -159.333 -50.833 -286.833 -152.5 -382.5s-237.167 -143.5 -406.5 -143.5s-304.666 47.833 -405.999 143.5s-152 223.167 -152 382.5v943h136v-934c0 -124 38.5 -223.167 115.5 -297.5s179.167 -111.5 306.5 -111.5c128 0 230.333 37.167 307 111.5s115 173.5 115 297.5
v934h137v-115z" />
    <glyph glyph-name="uhorn" unicode="&#x1b0;" horiz-adv-x="1381" 
d="M901 194c-26.667 -66.667 -71.498 -118.668 -134.498 -156.001s-137.5 -56 -223.5 -56c-120 0 -213.833 35 -281.5 105s-101.5 166.667 -101.5 290v700h131v-667c0 -100 24.5 -176.333 73.5 -229s119.5 -79 211.5 -79c100.667 0 181 30.333 241 91s90 142 90 244v640h131
v-111c8.66699 -9.33301 21.667 -16.666 39 -21.999s33.666 -8 48.999 -8c46 0 79 13 99 39s30 68.667 30 128v144h122v-179c0 -74 -20.333 -132.667 -61 -176s-96.334 -65 -167.001 -65c-19.333 0 -39.833 2.83301 -61.5 8.5s-38.167 13.167 -49.5 22.5v-858h-125v194h-12z
" />
    <glyph glyph-name="u01C4" unicode="&#x1c4;" horiz-adv-x="2799" 
d="M185 1443h475c218 0 386.667 -63.667 506 -191s179 -304 179 -530c0 -226.667 -59.5 -403.667 -178.5 -531s-287.833 -191 -506.5 -191h-475v1443zM322 1319v-1195h330c175.333 0 311.333 52.667 408 158s145 251.666 145 438.999s-48.333 333.833 -145 439.5
s-232.667 158.5 -408 158.5h-330zM1609 0.000976562v99l863 1208v12h-834v124h1011v-100l-860 -1207v-12h872v-124h-1052zM2199 1577h-128l-287 297h155l190 -203h12l190 203h155z" />
    <glyph glyph-name="u01C5" unicode="&#x1c5;" horiz-adv-x="2553" 
d="M185 1443h475c218 0 386.667 -63.667 506 -191s179 -304 179 -530c0 -226.667 -59.5 -403.667 -178.5 -531s-287.833 -191 -506.5 -191h-475v1443zM322 1319v-1195h330c175.333 0 311.333 52.667 408 158s145 251.666 145 438.999s-48.333 333.833 -145 439.5
s-232.667 158.5 -408 158.5h-330zM2084 1228h-154l-275 332h153l193 -243h12l193 243h153zM1602 0.000976562v100l660 854v12h-659v111h816v-101l-658 -853v-12h660v-111h-819z" />
    <glyph glyph-name="u01C6" unicode="&#x1c6;" horiz-adv-x="2337" 
d="M571 -18c-137.333 0 -247.669 50.834 -331.002 152.501s-125 236.167 -125 403.5c0 166.667 41.833 301.167 125.5 403.5s193.834 153.5 330.501 153.5c82 0 155.333 -20.333 220 -61s112.334 -96.334 143.001 -167.001h12v639h131v-1506h-126v215h-12
c-32 -72 -80.833 -128.833 -146.5 -170.5s-139.5 -62.5 -221.5 -62.5zM598.997 977.001c-106.667 0 -191.5 -39.667 -254.5 -119s-94.5 -185.666 -94.5 -318.999c0 -134 31.5 -240.5 94.5 -319.5s147.833 -118.5 254.5 -118.5c106 0 190.667 39.667 254 119
s95 185.666 95 318.999c0 132 -31.833 238 -95.5 318s-148.167 120 -253.5 120zM1869 1228h-154l-275 332h153l193 -243h12l193 243h153zM1387 0.000976562v100l660 854v12h-659v111h816v-101l-658 -853v-12h660v-111h-819z" />
    <glyph glyph-name="u01C7" unicode="&#x1c7;" horiz-adv-x="2227" 
d="M1231 330l136 -0.000976562c3.33301 -68.667 29.333 -124.667 78 -168s110.667 -65 186 -65c87.333 0 154.833 26.167 202.5 78.5s71.5 126.5 71.5 222.5v1045h137v-1050c0 -131.333 -36.667 -234.666 -110 -309.999s-173.333 -113 -300 -113
c-116.667 0 -212.5 33.5 -287.5 100.5s-112.833 153.5 -113.5 259.5zM1044 123.999v-124h-859v1443h137v-1319h722z" />
    <glyph glyph-name="u01C8" unicode="&#x1c8;" horiz-adv-x="1627" 
d="M1445 1077l0.000976562 -1158c0 -104 -25 -179.667 -75 -227s-127.667 -71 -233 -71h-30v113h27c65.333 0 111.666 14 138.999 42s41 74.667 41 140v1161h131zM1379 1317c-26.667 0 -49.5 9.66699 -68.5 29s-28.5 42.333 -28.5 69s9.5 49.5 28.5 68.5
s41.833 28.5 68.5 28.5s49.667 -9.5 69 -28.5s29 -41.833 29 -68.5c0 -27.333 -9.5 -50.5 -28.5 -69.5s-42.167 -28.5 -69.5 -28.5zM1044 124v-124h-859v1443h137v-1319h722z" />
    <glyph glyph-name="u01C9" unicode="&#x1c9;" horiz-adv-x="977" 
d="M795 1077l0.000976562 -1158c0 -104 -25 -179.667 -75 -227s-127.667 -71 -233 -71h-30v113h27c65.333 0 111.666 14 138.999 42s41 74.667 41 140v1161h131zM729.001 1317c-26.667 0 -49.5 9.66699 -68.5 29s-28.5 42.333 -28.5 69s9.5 49.5 28.5 68.5
s41.833 28.5 68.5 28.5s49.667 -9.5 69 -28.5s29 -41.833 29 -68.5c0 -27.333 -9.5 -50.5 -28.5 -69.5s-42.167 -28.5 -69.5 -28.5zM179.001 0v1506h131v-1506h-131z" />
    <glyph glyph-name="u01CA" unicode="&#x1ca;" horiz-adv-x="2582" 
d="M1586 330l136 -0.000976562c3.33301 -68.667 29.333 -124.667 78 -168s110.667 -65 186 -65c87.333 0 154.833 26.167 202.5 78.5s71.5 126.5 71.5 222.5v1045h137v-1050c0 -131.333 -36.667 -234.666 -110 -309.999s-173.333 -113 -300 -113
c-116.667 0 -212.5 33.5 -287.5 100.5s-112.833 153.5 -113.5 259.5zM320 -0.000976562h-135v1443h135l841 -1198h13v1198h135v-1443h-132l-844 1199h-13v-1199z" />
    <glyph glyph-name="u01CB" unicode="&#x1cb;" horiz-adv-x="1983" 
d="M1800 1077l0.000976562 -1158c0 -104 -25 -179.667 -75 -227s-127.667 -71 -233 -71h-30v113h27c65.333 0 111.666 14 138.999 42s41 74.667 41 140v1161h131zM1734 1317c-26.667 0 -49.5 9.66699 -68.5 29s-28.5 42.333 -28.5 69s9.5 49.5 28.5 68.5
s41.833 28.5 68.5 28.5s49.667 -9.5 69 -28.5s29 -41.833 29 -68.5c0 -27.333 -9.66699 -50.5 -29 -69.5s-42.333 -28.5 -69 -28.5zM320.001 0h-135v1443h135l841 -1198h13v1198h135v-1443h-132l-844 1199h-13v-1199z" />
    <glyph glyph-name="u01CC" unicode="&#x1cc;" horiz-adv-x="1699" 
d="M1516 1077l0.000976562 -1158c0 -104 -25 -179.667 -75 -227s-127.667 -71 -233 -71h-30v113h27c65.333 0 111.666 14 138.999 42s41 74.667 41 140v1161h131zM1450 1317c-26.667 0 -49.5 9.66699 -68.5 29s-28.5 42.333 -28.5 69s9.5 49.5 28.5 68.5
s41.833 28.5 68.5 28.5s49.667 -9.5 69 -28.5s29 -41.833 29 -68.5c0 -27.333 -9.66699 -50.5 -29 -69.5s-42.333 -28.5 -69 -28.5zM169.001 0l0.000976562 1077h125v-194h13c28.667 66.667 74.667 118.667 138 156s137.666 56 222.999 56c120 0 213 -34.5 279 -103.5
s99 -166.167 99 -291.5v-700h-131v667c0 206.667 -93.667 310 -281 310c-100.667 0 -181.5 -30.833 -242.5 -92.5s-91.5 -143.167 -91.5 -244.5v-640h-131z" />
    <glyph glyph-name="Acaron" unicode="&#x1cd;" horiz-adv-x="1363" 
d="M1145 0l-160 442h-606l-160 -442h-145l540 1443h136l539 -1443h-144zM675 1264l-255 -704h524l-256 704h-13zM746 1577h-128l-287 297h155l190 -203h12l190 203h155z" />
    <glyph glyph-name="acaron" unicode="&#x1ce;" horiz-adv-x="1125" 
d="M491 98c96.667 0 177.5 29.168 242.5 87.501s97.5 130.166 97.5 215.499v126l-319 -23c-180.667 -12.667 -271 -80.667 -271 -204c0 -61.333 23.333 -110.333 70 -147s106.667 -55 180 -55zM469 -17.999c-106.667 0 -193.831 28.833 -261.498 86.5
s-101.5 134.167 -101.5 229.5c0 93.333 33.333 166.833 100 220.5s162.667 84.834 288 93.501l337 22v104c0 77.333 -22.833 136.666 -68.5 177.999s-112.167 62 -199.5 62c-74 0 -136.167 -14.833 -186.5 -44.5s-81.833 -70.5 -94.5 -122.5h-133
c12.667 85.333 57.167 154 133.5 206s171.166 78 284.499 78c126 0 223.5 -31.167 292.5 -93.5s103.5 -149.833 103.5 -262.5v-739h-126v185h-12c-32.667 -64 -80.334 -113.833 -143.001 -149.5s-133.667 -53.5 -213 -53.5zM644.003 1228h-154l-275 332h153l193 -243h12
l193 243h153z" />
    <glyph glyph-name="Icaron" unicode="&#x1cf;" horiz-adv-x="507" 
d="M322 0h-137v1443h137v-1443zM318 1577h-128l-287 297h155l190 -203h12l190 203h155z" />
    <glyph glyph-name="icaron" unicode="&#x1d0;" horiz-adv-x="489" 
d="M321 1228h-154l-275 332h153l193 -243h12l193 243h153zM179 0v1077h131v-1077h-131z" />
    <glyph glyph-name="Ocaron" unicode="&#x1d1;" horiz-adv-x="1561" 
d="M845 1577h-128l-287 297h155l190 -203h12l190 203h155zM781 1473c202 0 361.169 -67.333 477.502 -202s174.5 -317.667 174.5 -549s-58.167 -414.5 -174.5 -549.5s-275.5 -202.5 -477.5 -202.5c-202.667 0 -362.334 67.5 -479.001 202.5s-175 318.167 -175 549.5
c0 230.667 58.667 413.5 176 548.5s276.666 202.5 477.999 202.5zM781.002 1346c-157.333 0 -282.333 -56.167 -375 -168.5s-139 -264.166 -139 -455.499c0 -190.667 46 -342.5 138 -455.5s217.333 -169.5 376 -169.5c158 0 282.833 56.5 374.5 169.5
s137.5 264.833 137.5 455.5c0 191.333 -45.833 343.166 -137.5 455.499s-216.5 168.5 -374.5 168.5z" />
    <glyph glyph-name="ocaron" unicode="&#x1d2;" horiz-adv-x="1208" 
d="M681 1228h-154l-275 332h153l193 -243h12l193 243h153zM604 101c110.667 0 197.334 38.833 260.001 116.5s94 184.834 94 321.501s-31.333 243.834 -94 321.501s-149.334 116.5 -260.001 116.5s-197.334 -38.833 -260.001 -116.5s-94 -184.834 -94 -321.501
s31.333 -243.834 94 -321.501s149.334 -116.5 260.001 -116.5zM604 -18c-150.667 0 -269.834 49.833 -357.501 149.5s-131.5 235.5 -131.5 407.5s43.833 307.667 131.5 407s206.834 149 357.501 149s270 -49.667 358 -149s132 -235 132 -407s-44 -307.833 -132 -407.5
s-207.333 -149.5 -358 -149.5z" />
    <glyph glyph-name="Ucaron" unicode="&#x1d3;" horiz-adv-x="1494" 
d="M811 1577h-128l-287 297h155l190 -203h12l190 203h155zM325 1443l0.000976562 -934c0 -122 38 -220.667 114 -296s178.667 -113 308 -113s232 37.667 308 113s114 174 114 296v934h137v-943c0 -158 -50.333 -285.167 -151 -381.5s-236.667 -144.5 -408 -144.5
c-170.667 0 -306.334 48.167 -407.001 144.5s-151 223.5 -151 381.5v943h136z" />
    <glyph glyph-name="ucaron" unicode="&#x1d4;" horiz-adv-x="1211" 
d="M680 1228h-154l-275 332h153l193 -243h12l193 243h153zM1038 1077v-1077h-125v194h-12c-26.667 -66.667 -71.5 -118.667 -134.5 -156s-137.5 -56 -223.5 -56c-120 0 -213.833 35 -281.5 105s-101.5 166.667 -101.5 290v700h131v-667c0 -100 24.5 -176.333 73.5 -229
s119.5 -79 211.5 -79c100.667 0 181 30.333 241 91s90 142 90 244v640h131z" />
    <glyph glyph-name="Udieresismacron" unicode="&#x1d5;" horiz-adv-x="1494" 
d="M325 1443l0.000976562 -934c0 -122 38 -220.667 114 -296s178.667 -113 308 -113s232 37.667 308 113s114 174 114 296v934h137v-943c0 -158 -50.333 -285.167 -151 -381.5s-236.667 -144.5 -408 -144.5c-170.667 0 -306.334 48.167 -407.001 144.5
s-151 223.5 -151 381.5v943h136zM428.001 1915v101h638v-101h-638zM565.001 1580c-27.333 0 -50.666 9.66699 -69.999 29s-29 42.666 -29 69.999s9.66699 50.666 29 69.999s42.666 29 69.999 29s50.666 -9.66699 69.999 -29s29 -42.666 29 -69.999
s-9.66699 -50.666 -29 -69.999s-42.666 -29 -69.999 -29zM929.001 1580c-27.333 0 -50.666 9.66699 -69.999 29s-29 42.666 -29 69.999s9.66699 50.666 29 69.999s42.666 29 69.999 29s50.666 -9.66699 69.999 -29s29 -42.666 29 -69.999s-9.66699 -50.666 -29 -69.999
s-42.666 -29 -69.999 -29z" />
    <glyph glyph-name="udieresismacron" unicode="&#x1d6;" horiz-adv-x="1211" 
d="M1038 1077v-1077h-125v194h-12c-26.667 -66.667 -71.5 -118.667 -134.5 -156s-137.5 -56 -223.5 -56c-120 0 -213.833 35 -281.5 105s-101.5 166.667 -101.5 290v700h131v-667c0 -100 24.5 -176.333 73.5 -229s119.5 -79 211.5 -79c100.667 0 181 30.333 241 91
s90 142 90 244v640h131zM421 1240c-27.333 0 -50.666 9.66699 -69.999 29s-29 42.666 -29 69.999c0 28 9.66699 51.5 29 70.5s42.666 28.5 69.999 28.5s50.666 -9.5 69.999 -28.5s29 -42.5 29 -70.5c0 -27.333 -9.66699 -50.666 -29 -69.999s-42.666 -29 -69.999 -29z
M785 1240c-27.333 0 -50.666 9.66699 -69.999 29s-29 42.666 -29 69.999c0 28 9.66699 51.5 29 70.5s42.666 28.5 69.999 28.5s50.666 -9.5 69.999 -28.5s29 -42.5 29 -70.5c0 -27.333 -9.66699 -50.666 -29 -69.999s-42.666 -29 -69.999 -29zM936 1614h-662v106h662v-106z
" />
    <glyph glyph-name="Udieresisacute" unicode="&#x1d7;" horiz-adv-x="1494" 
d="M673 1839l231 217h174l-267 -217h-138zM565 1568c-28 0 -52 9.83301 -72 29.5s-30 43.834 -30 72.501s10 52.834 30 72.501s44 29.5 72 29.5c28.667 0 52.834 -9.83301 72.501 -29.5s29.5 -43.834 29.5 -72.501s-9.83301 -52.834 -29.5 -72.501
s-43.834 -29.5 -72.501 -29.5zM929 1568c-28 0 -52 9.83301 -72 29.5s-30 43.834 -30 72.501s10 52.834 30 72.501s44 29.5 72 29.5c28.667 0 52.834 -9.83301 72.501 -29.5s29.5 -43.834 29.5 -72.501s-9.83301 -52.834 -29.5 -72.501s-43.834 -29.5 -72.501 -29.5z
M325 1443l0.000976562 -934c0 -122 38 -220.667 114 -296s178.667 -113 308 -113s232 37.667 308 113s114 174 114 296v934h137v-943c0 -158 -50.333 -285.167 -151 -381.5s-236.667 -144.5 -408 -144.5c-170.667 0 -306.334 48.167 -407.001 144.5s-151 223.5 -151 381.5
v943h136z" />
    <glyph glyph-name="udieresisacute" unicode="&#x1d8;" horiz-adv-x="1211" 
d="M521 1554l207 296h154l-229 -296h-132zM421 1228c-28 0 -52 9.83301 -72 29.5s-30 43.834 -30 72.501s10 52.834 30 72.501s44 29.5 72 29.5c28.667 0 52.834 -9.83301 72.501 -29.5s29.5 -43.834 29.5 -72.501s-9.83301 -52.834 -29.5 -72.501
s-43.834 -29.5 -72.501 -29.5zM785 1228c-28 0 -52 9.83301 -72 29.5s-30 43.834 -30 72.501s10 52.834 30 72.501s44 29.5 72 29.5c28.667 0 52.834 -9.83301 72.501 -29.5s29.5 -43.834 29.5 -72.501s-9.83301 -52.834 -29.5 -72.501s-43.834 -29.5 -72.501 -29.5z
M1038 1077v-1077h-125v194h-12c-26.667 -66.667 -71.5 -118.667 -134.5 -156s-137.5 -56 -223.5 -56c-120 0 -213.833 35 -281.5 105s-101.5 166.667 -101.5 290v700h131v-667c0 -100 24.5 -176.333 73.5 -229s119.5 -79 211.5 -79c100.667 0 181 30.333 241 91
s90 142 90 244v640h131z" />
    <glyph glyph-name="Udieresiscaron" unicode="&#x1d9;" horiz-adv-x="1494" 
d="M565 1580c-27.333 0 -50.666 9.66699 -69.999 29s-29 42.666 -29 69.999s9.66699 50.666 29 69.999s42.666 29 69.999 29s50.666 -9.66699 69.999 -29s29 -42.666 29 -69.999s-9.66699 -50.666 -29 -69.999s-42.666 -29 -69.999 -29zM929 1580
c-27.333 0 -50.666 9.66699 -69.999 29s-29 42.666 -29 69.999s9.66699 50.666 29 69.999s42.666 29 69.999 29s50.666 -9.66699 69.999 -29s29 -42.666 29 -69.999s-9.66699 -50.666 -29 -69.999s-42.666 -29 -69.999 -29zM820 1832h-146l-285 224h172l180 -146h12l180 146
h172zM325 1443l0.000976562 -934c0 -122 38 -220.667 114 -296s178.667 -113 308 -113s232 37.667 308 113s114 174 114 296v934h137v-943c0 -158 -50.333 -285.167 -151 -381.5s-236.667 -144.5 -408 -144.5c-170.667 0 -306.334 48.167 -407.001 144.5
s-151 223.5 -151 381.5v943h136z" />
    <glyph glyph-name="udieresiscaron" unicode="&#x1da;" horiz-adv-x="1211" 
d="M421 1228c-27.333 0 -50.666 9.66699 -69.999 29s-29 42.666 -29 69.999c0 28 9.66699 51.667 29 71s42.666 29 69.999 29s50.666 -9.66699 69.999 -29s29 -43 29 -71c0 -27.333 -9.66699 -50.666 -29 -69.999s-42.666 -29 -69.999 -29zM785 1228
c-27.333 0 -50.666 9.66699 -69.999 29s-29 42.666 -29 69.999c0 28 9.66699 51.667 29 71s42.666 29 69.999 29s50.666 -9.66699 69.999 -29s29 -43 29 -71c0 -27.333 -9.66699 -50.666 -29 -69.999s-42.666 -29 -69.999 -29zM680 1548h-154l-275 306h154l192 -217h12
l192 217h154zM1038 1077v-1077h-125v194h-12c-26.667 -66.667 -71.5 -118.667 -134.5 -156s-137.5 -56 -223.5 -56c-120 0 -213.833 35 -281.5 105s-101.5 166.667 -101.5 290v700h131v-667c0 -100 24.5 -176.333 73.5 -229s119.5 -79 211.5 -79
c100.667 0 181 30.333 241 91s90 142 90 244v640h131z" />
    <glyph glyph-name="Udieresisgrave" unicode="&#x1db;" horiz-adv-x="1494" 
d="M833 1839h-138l-267 217h175zM565 1568c-28 0 -52 9.83301 -72 29.5s-30 43.834 -30 72.501s10 52.834 30 72.501s44 29.5 72 29.5c28.667 0 52.834 -9.83301 72.501 -29.5s29.5 -43.834 29.5 -72.501s-9.83301 -52.834 -29.5 -72.501s-43.834 -29.5 -72.501 -29.5z
M929 1568c-28 0 -52 9.83301 -72 29.5s-30 43.834 -30 72.501s10 52.834 30 72.501s44 29.5 72 29.5c28.667 0 52.834 -9.83301 72.501 -29.5s29.5 -43.834 29.5 -72.501s-9.83301 -52.834 -29.5 -72.501s-43.834 -29.5 -72.501 -29.5zM325 1443l0.000976562 -934
c0 -122 38 -220.667 114 -296s178.667 -113 308 -113s232 37.667 308 113s114 174 114 296v934h137v-943c0 -158 -50.333 -285.167 -151 -381.5s-236.667 -144.5 -408 -144.5c-170.667 0 -306.334 48.167 -407.001 144.5s-151 223.5 -151 381.5v943h136z" />
    <glyph glyph-name="udieresisgrave" unicode="&#x1dc;" horiz-adv-x="1211" 
d="M685 1554h-132l-229 296h154zM421 1228c-28 0 -52 9.83301 -72 29.5s-30 43.834 -30 72.501s10 52.834 30 72.501s44 29.5 72 29.5c28.667 0 52.834 -9.83301 72.501 -29.5s29.5 -43.834 29.5 -72.501s-9.83301 -52.834 -29.5 -72.501s-43.834 -29.5 -72.501 -29.5z
M785 1228c-28 0 -52 9.83301 -72 29.5s-30 43.834 -30 72.501s10 52.834 30 72.501s44 29.5 72 29.5c28.667 0 52.834 -9.83301 72.501 -29.5s29.5 -43.834 29.5 -72.501s-9.83301 -52.834 -29.5 -72.501s-43.834 -29.5 -72.501 -29.5zM1038 1077v-1077h-125v194h-12
c-26.667 -66.667 -71.5 -118.667 -134.5 -156s-137.5 -56 -223.5 -56c-120 0 -213.833 35 -281.5 105s-101.5 166.667 -101.5 290v700h131v-667c0 -100 24.5 -176.333 73.5 -229s119.5 -79 211.5 -79c100.667 0 181 30.333 241 91s90 142 90 244v640h131z" />
    <glyph glyph-name="Adieresismacron" unicode="&#x1de;" horiz-adv-x="1363" 
d="M1145 0l-160 442h-606l-160 -442h-145l540 1443h136l539 -1443h-144zM675 1264l-255 -704h524l-256 704h-13zM363 1915v101h638v-101h-638zM500 1580c-27.333 0 -50.666 9.66699 -69.999 29s-29 42.666 -29 69.999s9.66699 50.666 29 69.999s42.666 29 69.999 29
s50.666 -9.66699 69.999 -29s29 -42.666 29 -69.999s-9.66699 -50.666 -29 -69.999s-42.666 -29 -69.999 -29zM864 1580c-27.333 0 -50.666 9.66699 -69.999 29s-29 42.666 -29 69.999s9.66699 50.666 29 69.999s42.666 29 69.999 29s50.666 -9.66699 69.999 -29
s29 -42.666 29 -69.999s-9.66699 -50.666 -29 -69.999s-42.666 -29 -69.999 -29z" />
    <glyph glyph-name="adieresismacron" unicode="&#x1df;" horiz-adv-x="1125" 
d="M491 98c96.667 0 177.5 29.168 242.5 87.501s97.5 130.166 97.5 215.499v126l-319 -23c-180.667 -12.667 -271 -80.667 -271 -204c0 -61.333 23.333 -110.333 70 -147s106.667 -55 180 -55zM469 -17.999c-106.667 0 -193.831 28.833 -261.498 86.5
s-101.5 134.167 -101.5 229.5c0 93.333 33.333 166.833 100 220.5s162.667 84.834 288 93.501l337 22v104c0 77.333 -22.833 136.666 -68.5 177.999s-112.167 62 -199.5 62c-74 0 -136.167 -14.833 -186.5 -44.5s-81.833 -70.5 -94.5 -122.5h-133
c12.667 85.333 57.167 154 133.5 206s171.166 78 284.499 78c126 0 223.5 -31.167 292.5 -93.5s103.5 -149.833 103.5 -262.5v-739h-126v185h-12c-32.667 -64 -80.334 -113.833 -143.001 -149.5s-133.667 -53.5 -213 -53.5zM385.003 1240
c-27.333 0 -50.666 9.66699 -69.999 29s-29 42.666 -29 69.999c0 28 9.66699 51.5 29 70.5s42.666 28.5 69.999 28.5s50.666 -9.5 69.999 -28.5s29 -42.5 29 -70.5c0 -27.333 -9.66699 -50.666 -29 -69.999s-42.666 -29 -69.999 -29zM749.003 1240
c-27.333 0 -50.666 9.66699 -69.999 29s-29 42.666 -29 69.999c0 28 9.66699 51.5 29 70.5s42.666 28.5 69.999 28.5s50.666 -9.5 69.999 -28.5s29 -42.5 29 -70.5c0 -27.333 -9.66699 -50.666 -29 -69.999s-42.666 -29 -69.999 -29zM900.003 1614h-662v106h662v-106z" />
    <glyph glyph-name="Adotmacron" unicode="&#x1e0;" horiz-adv-x="1363" 
d="M1145 0l-160 442h-606l-160 -442h-145l540 1443h136l539 -1443h-144zM675 1264l-255 -704h524l-256 704h-13zM682 1578c-28.667 0 -53.167 10.167 -73.5 30.5s-30.5 44.833 -30.5 73.5s10.167 53.167 30.5 73.5s44.833 30.5 73.5 30.5s53.167 -10.167 73.5 -30.5
s30.5 -44.833 30.5 -73.5s-10.167 -53.167 -30.5 -73.5s-44.833 -30.5 -73.5 -30.5zM1004 1915h-644v101h644v-101z" />
    <glyph glyph-name="adotmacron" unicode="&#x1e1;" horiz-adv-x="1125" 
d="M491 98c96.667 0 177.5 29.168 242.5 87.501s97.5 130.166 97.5 215.499v126l-319 -23c-180.667 -12.667 -271 -80.667 -271 -204c0 -61.333 23.333 -110.333 70 -147s106.667 -55 180 -55zM469 -17.999c-106.667 0 -193.831 28.833 -261.498 86.5
s-101.5 134.167 -101.5 229.5c0 93.333 33.333 166.833 100 220.5s162.667 84.834 288 93.501l337 22v104c0 77.333 -22.833 136.666 -68.5 177.999s-112.167 62 -199.5 62c-74 0 -136.167 -14.833 -186.5 -44.5s-81.833 -70.5 -94.5 -122.5h-133
c12.667 85.333 57.167 154 133.5 206s171.166 78 284.499 78c126 0 223.5 -31.167 292.5 -93.5s103.5 -149.833 103.5 -262.5v-739h-126v185h-12c-32.667 -64 -80.334 -113.833 -143.001 -149.5s-133.667 -53.5 -213 -53.5zM564.003 1228c-29.333 0 -53.833 10 -73.5 30
s-29.5 44.333 -29.5 73s9.83301 53 29.5 73s44.167 30 73.5 30s53.833 -10 73.5 -30s29.5 -44.333 29.5 -73s-9.83301 -53 -29.5 -73s-44.167 -30 -73.5 -30zM897.003 1585h-662v106h662v-106z" />
    <glyph glyph-name="AEmacron" unicode="&#x1e2;" horiz-adv-x="1955" 
d="M1002 1327h-161l-365 -766h526v766zM1002 0v443h-581l-208 -443h-139l678 1443h1063v-124h-677v-526h640v-122h-640v-547h677v-124h-813zM1727 1619h-644v105h644v-105z" />
    <glyph glyph-name="aemacron" unicode="&#x1e3;" horiz-adv-x="1880" 
d="M1314 -18c-93.333 0 -176.497 23.832 -249.497 71.499s-124.5 111.5 -154.5 191.5h-12c-32 -82 -84.667 -146.333 -158 -193s-160 -70 -260 -70c-111.333 0 -201.5 28.5 -270.5 85.5s-103.5 132.833 -103.5 227.5c0 92.667 33.167 165.334 99.5 218.001
s162.166 83 287.499 91l338 21v113c0 77.333 -22.833 136.666 -68.5 177.999s-112.167 62 -199.5 62c-74 0 -136.167 -14.833 -186.5 -44.5s-81.833 -70.5 -94.5 -122.5h-133c12.667 85.333 57.167 154 133.5 206s171.166 78 284.499 78c90 0 166 -20.167 228 -60.5
s103 -95.166 123 -164.499h13c30.667 66 80.167 120 148.5 162s145.5 63 231.5 63c141.333 0 252.5 -46.5 333.5 -139.5s121.5 -220.5 121.5 -382.5v-58h-804v-15c3.33301 -121.333 37 -218.5 101 -291.5s148.333 -109.5 253 -109.5c150.667 0 250.667 55.667 300 167h133
c-26.667 -89.333 -78.334 -159 -155.001 -209s-170 -75 -280 -75zM1305 978.999c-98.667 0 -178.832 -32.3311 -240.499 -96.998s-95.834 -151.334 -102.501 -260.001h667c-1.33301 105.333 -32 191.166 -92 257.499s-137.333 99.5 -232 99.5zM497.005 98.001
c94.667 0 174 30 238 90s96 133 96 219v111l-321 -21c-179.333 -12.667 -269 -79 -269 -199c0 -60.667 23.667 -109.167 71 -145.5s109 -54.5 185 -54.5zM1281 1292h-662v106h662v-106z" />
    <glyph glyph-name="Gcaron" unicode="&#x1e6;" horiz-adv-x="1506" 
d="M834 1577h-128l-287 297h155l190 -203h12l190 203h155zM1375 559c0 -178.667 -54.667 -321.501 -164 -428.501s-255.333 -160.5 -438 -160.5c-195.333 0 -351.833 68.5 -469.5 205.5s-176.5 319.167 -176.5 546.5c0 226 58.667 407.667 176 545s273 206 467 206
c154 0 284.5 -41 391.5 -123s173.5 -191.667 199.5 -329h-139c-30 103.333 -84.333 183.333 -163 240s-175 85 -289 85c-152.667 0 -274.667 -56.667 -366 -170s-137 -264.666 -137 -453.999c0 -190 45.833 -341.667 137.5 -455s214.5 -170 368.5 -170
c141.333 0 254.333 41.167 339 123.5s127 191.5 127 327.5v50h-440v121h576v-160z" />
    <glyph glyph-name="gcaron" unicode="&#x1e7;" horiz-adv-x="1242" 
d="M682 1228h-154l-275 332h153l193 -243h12l193 243h153zM945 550c0 128.667 -31.833 232 -95.5 310s-148.5 117 -254.5 117c-106.667 0 -190.834 -38.5 -252.501 -115.5s-92.5 -180.167 -92.5 -309.5c0 -128.667 30.833 -231.5 92.5 -308.5s145.834 -115.5 252.501 -115.5
c107.333 0 192.5 38.333 255.5 115s94.5 179 94.5 307zM606 -404c-122.667 0 -223 25.165 -301 75.498s-124 117.833 -138 202.5h139c12 -50 44.667 -89.667 98 -119s120.666 -44 201.999 -44c104 0 186.167 25.333 246.5 76s90.5 119.667 90.5 207v242h-13
c-32 -71.333 -79.5 -126.666 -142.5 -165.999s-135.833 -59 -218.5 -59c-138 0 -248.167 49.5 -330.5 148.5s-123.5 229.833 -123.5 392.5s41.333 293.834 124 393.501s192.667 149.5 330 149.5c82 0 156.333 -21 223 -63s114.667 -98 144 -168h12v213h126v-1093
c0 -117.333 -42.667 -211.333 -128 -282s-198.666 -106 -339.999 -106z" />
    <glyph glyph-name="Kcaron" unicode="&#x1e8;" horiz-adv-x="1311" 
d="M322 0h-137v1443h137v-746h12l683 746h171l-578 -623l637 -820h-177l-555 725l-193 -210v-515zM701 1577h-128l-287 297h155l190 -203h12l190 203h155z" />
    <glyph glyph-name="kcaron" unicode="&#x1e9;" horiz-adv-x="1092" 
d="M322 573l526 504h164l-481 -462l503 -615h-168l-434 531l-122 -113v-418h-131v1506h131v-933h12zM308 1640h-128l-287 297h155l190 -203h12l190 203h155z" />
    <glyph glyph-name="Oogonek" unicode="&#x1ea;" horiz-adv-x="1561" 
d="M1013 -421c-60.667 0 -110.169 18.6689 -148.502 56.002s-57.5 84.666 -57.5 141.999c0 78.667 36.333 145.667 109 201v12c-42 -13.333 -87 -20 -135 -20c-202 0 -361.5 67.167 -478.5 201.5s-175.5 317.833 -175.5 550.5c0 230.667 58.667 413.5 176 548.5
s276.666 202.5 477.999 202.5c200.667 0 359.5 -67.333 476.5 -202s175.5 -317.667 175.5 -549c0 -73.333 -5.83301 -141 -17.5 -203s-27.167 -115.167 -46.5 -159.5s-41.666 -85 -66.999 -122s-52 -68.833 -80 -95.5s-55.833 -51.334 -83.5 -74.001l-79.5 -64
c-25.333 -20 -47.666 -39.833 -66.999 -59.5s-34.833 -41.667 -46.5 -66s-17.5 -50.5 -17.5 -78.5c0 -33.333 11.5 -61 34.5 -83s51.833 -33 86.5 -33c32.667 0 61.334 5 86.001 15v-97c-27.333 -15.333 -68 -23 -122 -23zM780.998 1346
c-157.333 0 -282.333 -56.3311 -375 -168.998s-139 -264.334 -139 -455.001c0 -192 46.333 -344.167 139 -456.5s217.667 -168.5 375 -168.5c156 0 280.333 56.5 373 169.5s139 264.833 139 455.5c0 191.333 -46 343.166 -138 455.499s-216.667 168.5 -374 168.5z" />
    <glyph glyph-name="oogonek" unicode="&#x1eb;" horiz-adv-x="1208" 
d="M778 -421c-61.333 0 -111.333 17.334 -150 52.001s-58 79.334 -58 134.001c0 76.667 36.667 147.667 110 213v12c-24.667 -5.33301 -50.667 -8 -78 -8c-150 0 -268.667 50 -356 150s-131 235.667 -131 407s43.833 306.833 131.5 406.5s206.834 149.5 357.501 149.5
s270 -49.833 358 -149.5s132 -234.834 132 -405.501c0 -103.333 -17 -193.833 -51 -271.5s-86.667 -146.167 -158 -205.5c-74.667 -66.667 -125.834 -118.834 -153.501 -156.501s-41.5 -76.167 -41.5 -115.5c0 -32 11.5 -57.833 34.5 -77.5s52.833 -29.5 89.5 -29.5
c34.667 0 62.667 5 84 15v-97c-35.333 -15.333 -75.333 -23 -120 -23zM604 101.001c110.667 0 197.334 38.833 260.001 116.5s94 184.834 94 321.501s-31.333 243.834 -94 321.501s-149.334 116.5 -260.001 116.5s-197.334 -38.833 -260.001 -116.5
s-94 -184.834 -94 -321.501s31.333 -243.834 94 -321.501s149.334 -116.5 260.001 -116.5z" />
    <glyph glyph-name="Oogonekmacron" unicode="&#x1ec;" horiz-adv-x="1561" 
d="M1013 -421c-60.667 0 -110.169 18.6689 -148.502 56.002s-57.5 84.666 -57.5 141.999c0 78.667 36.333 145.667 109 201v12c-42 -13.333 -87 -20 -135 -20c-202 0 -361.5 67.167 -478.5 201.5s-175.5 317.833 -175.5 550.5c0 230.667 58.667 413.5 176 548.5
s276.666 202.5 477.999 202.5c200.667 0 359.5 -67.333 476.5 -202s175.5 -317.667 175.5 -549c0 -73.333 -5.83301 -141 -17.5 -203s-27.167 -115.167 -46.5 -159.5s-41.666 -85 -66.999 -122s-52 -68.833 -80 -95.5s-55.833 -51.334 -83.5 -74.001l-79.5 -64
c-25.333 -20 -47.666 -39.833 -66.999 -59.5s-34.833 -41.667 -46.5 -66s-17.5 -50.5 -17.5 -78.5c0 -33.333 11.5 -61 34.5 -83s51.833 -33 86.5 -33c32.667 0 61.334 5 86.001 15v-97c-27.333 -15.333 -68 -23 -122 -23zM780.998 1346
c-157.333 0 -282.333 -56.3311 -375 -168.998s-139 -264.334 -139 -455.001c0 -192 46.333 -344.167 139 -456.5s217.667 -168.5 375 -168.5c156 0 280.333 56.5 373 169.5s139 264.833 139 455.5c0 191.333 -46 343.166 -138 455.499s-216.667 168.5 -374 168.5zM1103 1619
h-644v105h644v-105z" />
    <glyph glyph-name="oogonekmacron" unicode="&#x1ed;" horiz-adv-x="1208" 
d="M778 -421c-61.333 0 -111.333 17.334 -150 52.001s-58 79.334 -58 134.001c0 76.667 36.667 147.667 110 213v12c-24.667 -5.33301 -50.667 -8 -78 -8c-150 0 -268.667 50 -356 150s-131 235.667 -131 407s43.833 306.833 131.5 406.5s206.834 149.5 357.501 149.5
s270 -49.833 358 -149.5s132 -234.834 132 -405.501c0 -103.333 -17 -193.833 -51 -271.5s-86.667 -146.167 -158 -205.5c-74.667 -66.667 -125.834 -118.834 -153.501 -156.501s-41.5 -76.167 -41.5 -115.5c0 -32 11.5 -57.833 34.5 -77.5s52.833 -29.5 89.5 -29.5
c34.667 0 62.667 5 84 15v-97c-35.333 -15.333 -75.333 -23 -120 -23zM604 101.001c110.667 0 197.334 38.833 260.001 116.5s94 184.834 94 321.501s-31.333 243.834 -94 321.501s-149.334 116.5 -260.001 116.5s-197.334 -38.833 -260.001 -116.5
s-94 -184.834 -94 -321.501s31.333 -243.834 94 -321.501s149.334 -116.5 260.001 -116.5zM935 1292h-662v106h662v-106z" />
    <glyph glyph-name="u01F1" unicode="&#x1f1;" horiz-adv-x="2799" 
d="M1609 0v99l863 1208v12h-834v124h1011v-100l-860 -1207v-12h872v-124h-1052zM185 1443h475c218 0 386.667 -63.667 506 -191s179 -304 179 -530c0 -226.667 -59.5 -403.667 -178.5 -531s-287.833 -191 -506.5 -191h-475v1443zM322 1319v-1195h330
c175.333 0 311.333 52.667 408 158s145 251.666 145 438.999s-48.333 333.833 -145 439.5s-232.667 158.5 -408 158.5h-330z" />
    <glyph glyph-name="u01F2" unicode="&#x1f2;" horiz-adv-x="2553" 
d="M1602 0v100l660 854v12h-659v111h816v-101l-658 -853v-12h660v-111h-819zM185 1443h475c218 0 386.667 -63.667 506 -191s179 -304 179 -530c0 -226.667 -59.5 -403.667 -178.5 -531s-287.833 -191 -506.5 -191h-475v1443zM322 1319v-1195h330
c175.333 0 311.333 52.667 408 158s145 251.666 145 438.999s-48.333 333.833 -145 439.5s-232.667 158.5 -408 158.5h-330z" />
    <glyph glyph-name="u01F3" unicode="&#x1f3;" horiz-adv-x="2337" 
d="M1387 0v100l660 854v12h-659v111h816v-101l-658 -853v-12h660v-111h-819zM571 -18c-137.333 0 -247.669 50.834 -331.002 152.501s-125 236.167 -125 403.5c0 166.667 41.833 301.167 125.5 403.5s193.834 153.5 330.501 153.5c82 0 155.333 -20.333 220 -61
s112.334 -96.334 143.001 -167.001h12v639h131v-1506h-126v215h-12c-32 -72 -80.833 -128.833 -146.5 -170.5s-139.5 -62.5 -221.5 -62.5zM598.997 977.001c-106.667 0 -191.5 -39.667 -254.5 -119s-94.5 -185.666 -94.5 -318.999c0 -134 31.5 -240.5 94.5 -319.5
s147.833 -118.5 254.5 -118.5c106 0 190.667 39.667 254 119s95 185.666 95 318.999c0 132 -31.833 238 -95.5 318s-148.167 120 -253.5 120z" />
    <glyph glyph-name="Gacute" unicode="&#x1f4;" horiz-adv-x="1506" 
d="M683 1577l310 297h174l-326 -297h-158zM1375 559c0 -178.667 -54.667 -321.501 -164 -428.501s-255.333 -160.5 -438 -160.5c-195.333 0 -351.833 68.5 -469.5 205.5s-176.5 319.167 -176.5 546.5c0 226 58.667 407.667 176 545s273 206 467 206
c154 0 284.5 -41 391.5 -123s173.5 -191.667 199.5 -329h-139c-30 103.333 -84.333 183.333 -163 240s-175 85 -289 85c-152.667 0 -274.667 -56.667 -366 -170s-137 -264.666 -137 -453.999c0 -190 45.833 -341.667 137.5 -455s214.5 -170 368.5 -170
c141.333 0 254.333 41.167 339 123.5s127 191.5 127 327.5v50h-440v121h576v-160z" />
    <glyph glyph-name="gacute" unicode="&#x1f5;" horiz-adv-x="1242" 
d="M516 1267l250 327h168l-269 -327h-149zM945 550c0 128.667 -31.833 232 -95.5 310s-148.5 117 -254.5 117c-106.667 0 -190.834 -38.5 -252.501 -115.5s-92.5 -180.167 -92.5 -309.5c0 -128.667 30.833 -231.5 92.5 -308.5s145.834 -115.5 252.501 -115.5
c107.333 0 192.5 38.333 255.5 115s94.5 179 94.5 307zM606 -404c-122.667 0 -223 25.165 -301 75.498s-124 117.833 -138 202.5h139c12 -50 44.667 -89.667 98 -119s120.666 -44 201.999 -44c104 0 186.167 25.333 246.5 76s90.5 119.667 90.5 207v242h-13
c-32 -71.333 -79.5 -126.666 -142.5 -165.999s-135.833 -59 -218.5 -59c-138 0 -248.167 49.5 -330.5 148.5s-123.5 229.833 -123.5 392.5s41.333 293.834 124 393.501s192.667 149.5 330 149.5c82 0 156.333 -21 223 -63s114.667 -98 144 -168h12v213h126v-1093
c0 -117.333 -42.667 -211.333 -128 -282s-198.666 -106 -339.999 -106z" />
    <glyph glyph-name="Ngrave" unicode="&#x1f8;" horiz-adv-x="1494" 
d="M522 1874l309 -297h-157l-326 297h174zM320 0h-135v1443h135l841 -1198h13v1198h135v-1443h-132l-844 1199h-13v-1199z" />
    <glyph glyph-name="ngrave" unicode="&#x1f9;" horiz-adv-x="1206" 
d="M725 1267h-149l-269 327h168zM169 0l0.000976562 1077h125v-194h13c28.667 66.667 74.667 118.667 138 156s137.666 56 222.999 56c120 0 213 -34.5 279 -103.5s99 -166.167 99 -291.5v-700h-131v667c0 206.667 -93.667 310 -281 310
c-100.667 0 -181.5 -30.833 -242.5 -92.5s-91.5 -143.167 -91.5 -244.5v-640h-131z" />
    <glyph glyph-name="Aringacute" unicode="&#x1fa;" horiz-adv-x="1363" 
d="M1145 0l-160 442h-606l-160 -442h-145l540 1443h136l539 -1443h-144zM675 1264l-255 -704h524l-256 704h-13zM577 1723c0 -30 10.167 -55.333 30.5 -76s45.5 -31 75.5 -31c29.333 0 54.166 10.333 74.499 31s30.5 46 30.5 76s-10.167 55.167 -30.5 75.5
s-45.166 30.5 -74.499 30.5c-30 0 -55.167 -10.167 -75.5 -30.5s-30.5 -45.5 -30.5 -75.5zM683 1538c-52 0 -96.333 18 -133 54s-55 79.667 -55 131c0 52 18.333 95.833 55 131.5s81 53.5 133 53.5s96.167 -17.833 132.5 -53.5s54.5 -79.5 54.5 -131.5
c0 -51.333 -18.333 -95 -55 -131s-80.667 -54 -132 -54zM767 2138h147l-165 -169h-126z" />
    <glyph glyph-name="aringacute" unicode="&#x1fb;" horiz-adv-x="1125" 
d="M491 98c96.667 0 177.5 29.168 242.5 87.501s97.5 130.166 97.5 215.499v126l-319 -23c-180.667 -12.667 -271 -80.667 -271 -204c0 -61.333 23.333 -110.333 70 -147s106.667 -55 180 -55zM469 -17.999c-106.667 0 -193.831 28.833 -261.498 86.5
s-101.5 134.167 -101.5 229.5c0 93.333 33.333 166.833 100 220.5s162.667 84.834 288 93.501l337 22v104c0 77.333 -22.833 136.666 -68.5 177.999s-112.167 62 -199.5 62c-74 0 -136.167 -14.833 -186.5 -44.5s-81.833 -70.5 -94.5 -122.5h-133
c12.667 85.333 57.167 154 133.5 206s171.166 78 284.499 78c126 0 223.5 -31.167 292.5 -93.5s103.5 -149.833 103.5 -262.5v-739h-126v185h-12c-32.667 -64 -80.334 -113.833 -143.001 -149.5s-133.667 -53.5 -213 -53.5zM564.003 1209
c-53.333 0 -98.5 18.167 -135.5 54.5s-55.5 80.833 -55.5 133.5s18.5 97.167 55.5 133.5s82.167 54.5 135.5 54.5s98.5 -18.167 135.5 -54.5s55.5 -80.833 55.5 -133.5s-18.5 -97.167 -55.5 -133.5s-82.167 -54.5 -135.5 -54.5zM456.003 1396
c0 -30.667 10.333 -56.5 31 -77.5s46.334 -31.5 77.001 -31.5s56.334 10.5 77.001 31.5s31 46.833 31 77.5c0 31.333 -10.333 57.5 -31 78.5s-46.334 31.5 -77.001 31.5s-56.334 -10.5 -77.001 -31.5s-31 -47.167 -31 -78.5zM499.003 1669l164 206h157l-189 -206h-132z" />
    <glyph glyph-name="AEacute" unicode="&#x1fc;" horiz-adv-x="1955" 
d="M1318 1577l310 297h174l-326 -297h-158zM1002 1327h-161l-365 -766h526v766zM1002 0v443h-581l-208 -443h-139l678 1443h1063v-124h-677v-526h640v-122h-640v-547h677v-124h-813z" />
    <glyph glyph-name="aeacute" unicode="&#x1fd;" horiz-adv-x="1880" 
d="M861 1267l250 327h168l-269 -327h-149zM1314 -18c-93.333 0 -176.497 23.832 -249.497 71.499s-124.5 111.5 -154.5 191.5h-12c-32 -82 -84.667 -146.333 -158 -193s-160 -70 -260 -70c-111.333 0 -201.5 28.5 -270.5 85.5s-103.5 132.833 -103.5 227.5
c0 92.667 33.167 165.334 99.5 218.001s162.166 83 287.499 91l338 21v113c0 77.333 -22.833 136.666 -68.5 177.999s-112.167 62 -199.5 62c-74 0 -136.167 -14.833 -186.5 -44.5s-81.833 -70.5 -94.5 -122.5h-133c12.667 85.333 57.167 154 133.5 206
s171.166 78 284.499 78c90 0 166 -20.167 228 -60.5s103 -95.166 123 -164.499h13c30.667 66 80.167 120 148.5 162s145.5 63 231.5 63c141.333 0 252.5 -46.5 333.5 -139.5s121.5 -220.5 121.5 -382.5v-58h-804v-15c3.33301 -121.333 37 -218.5 101 -291.5
s148.333 -109.5 253 -109.5c150.667 0 250.667 55.667 300 167h133c-26.667 -89.333 -78.334 -159 -155.001 -209s-170 -75 -280 -75zM1305 978.999c-98.667 0 -178.832 -32.3311 -240.499 -96.998s-95.834 -151.334 -102.501 -260.001h667
c-1.33301 105.333 -32 191.166 -92 257.499s-137.333 99.5 -232 99.5zM497.005 98.001c94.667 0 174 30 238 90s96 133 96 219v111l-321 -21c-179.333 -12.667 -269 -79 -269 -199c0 -60.667 23.667 -109.167 71 -145.5s109 -54.5 185 -54.5z" />
    <glyph glyph-name="Oslashacute" unicode="&#x1fe;" horiz-adv-x="1530" 
d="M1162 1874l-326 -297h-158l310 297h174zM1164 1167l-722 -941c89.333 -86 202.333 -129 339 -129c158 0 282.833 56.5 374.5 169.5s137.5 264.833 137.5 455.5c0 184.667 -43 333 -129 445zM378 302l719 934.999c-84.667 72.667 -190 109 -316 109
c-157.333 0 -282.333 -56.167 -375 -168.5s-139 -264.166 -139 -455.499c0 -170 37 -310 111 -420zM1386 1457l-135.999 -177c122 -134.667 183 -320.667 183 -558c0 -231.333 -58.167 -414.5 -174.5 -549.5s-275.5 -202.5 -477.5 -202.5
c-169.333 0 -310.333 48.667 -423 146l-142 -186l-79 59l152 198c-108 134 -162 312.333 -162 535c0 230.667 58.667 413.5 176 548.5s276.666 202.5 477.999 202.5c157.333 0 290.333 -42.333 399 -127l128 166z" />
    <glyph glyph-name="oslashacute" unicode="&#x1ff;" horiz-adv-x="1208" 
d="M908 1594l-269 -327h-149l250 327h168zM875 847l-480.001 -680.002c57.333 -44 127 -66 209 -66c110.667 0 197.334 38.833 260.001 116.5s94 184.834 94 321.501c0 128.667 -27.667 231.334 -83 308.001zM326.999 239.998l480.001 676.001
c-56 40.667 -123.667 61 -203 61c-110.667 0 -197.334 -38.833 -260.001 -116.5s-94 -184.834 -94 -321.501c0 -123.333 25.667 -223 77 -299zM1041 1083l-89.001 -126c94.667 -100 142 -239.333 142 -418c0 -172 -44 -307.833 -132 -407.5s-207.333 -149.5 -358 -149.5
c-109.333 0 -203.333 27.333 -282 82l-85 -121l-82 55l93 131c-88.667 101.333 -133 238 -133 410s43.833 307.667 131.5 407s206.834 149 357.501 149c106 0 198 -25.667 276 -77l82 116z" />
    <glyph glyph-name="Adblgrave" unicode="&#x200;" horiz-adv-x="1363" 
d="M1145 0l-160 442h-606l-160 -442h-145l540 1443h136l539 -1443h-144zM675 1264l-255 -704h524l-256 704h-13zM604 1577h-157l-326 297h174zM968 1577h-158l-326 297h174z" />
    <glyph glyph-name="adblgrave" unicode="&#x201;" horiz-adv-x="1125" 
d="M491 98c96.667 0 177.5 29.168 242.5 87.501s97.5 130.166 97.5 215.499v126l-319 -23c-180.667 -12.667 -271 -80.667 -271 -204c0 -61.333 23.333 -110.333 70 -147s106.667 -55 180 -55zM469 -17.999c-106.667 0 -193.831 28.833 -261.498 86.5
s-101.5 134.167 -101.5 229.5c0 93.333 33.333 166.833 100 220.5s162.667 84.834 288 93.501l337 22v104c0 77.333 -22.833 136.666 -68.5 177.999s-112.167 62 -199.5 62c-74 0 -136.167 -14.833 -186.5 -44.5s-81.833 -70.5 -94.5 -122.5h-133
c12.667 85.333 57.167 154 133.5 206s171.166 78 284.499 78c126 0 223.5 -31.167 292.5 -93.5s103.5 -149.833 103.5 -262.5v-739h-126v185h-12c-32.667 -64 -80.334 -113.833 -143.001 -149.5s-133.667 -53.5 -213 -53.5zM489.003 1267h-141l-271 327h161zM831.003 1267
h-140l-271 327h161z" />
    <glyph glyph-name="Ainvertedbreve" unicode="&#x202;" horiz-adv-x="1363" 
d="M1145 0l-160 442h-606l-160 -442h-145l540 1443h136l539 -1443h-144zM675 1264l-255 -704h524l-256 704h-13zM350 1577c0 83.333 29.833 149.833 89.5 199.5s140.5 74.5 242.5 74.5s182.833 -24.833 242.5 -74.5s89.5 -116.167 89.5 -199.5h-118
c0 53.333 -19.333 96 -58 128s-90.667 48 -156 48s-117.333 -16 -156 -48s-58 -74.667 -58 -128h-118z" />
    <glyph glyph-name="ainvertedbreve" unicode="&#x203;" horiz-adv-x="1125" 
d="M491 98c96.667 0 177.5 29.168 242.5 87.501s97.5 130.166 97.5 215.499v126l-319 -23c-180.667 -12.667 -271 -80.667 -271 -204c0 -61.333 23.333 -110.333 70 -147s106.667 -55 180 -55zM469 -17.999c-106.667 0 -193.831 28.833 -261.498 86.5
s-101.5 134.167 -101.5 229.5c0 93.333 33.333 166.833 100 220.5s162.667 84.834 288 93.501l337 22v104c0 77.333 -22.833 136.666 -68.5 177.999s-112.167 62 -199.5 62c-74 0 -136.167 -14.833 -186.5 -44.5s-81.833 -70.5 -94.5 -122.5h-133
c12.667 85.333 57.167 154 133.5 206s171.166 78 284.499 78c126 0 223.5 -31.167 292.5 -93.5s103.5 -149.833 103.5 -262.5v-739h-126v185h-12c-32.667 -64 -80.334 -113.833 -143.001 -149.5s-133.667 -53.5 -213 -53.5zM235.003 1228c0 88.667 29.833 160.5 89.5 215.5
s140.5 82.5 242.5 82.5s182.833 -27.5 242.5 -82.5s89.5 -126.833 89.5 -215.5h-118c0 59.333 -19 107.166 -57 143.499s-90.333 54.5 -157 54.5s-119 -18.167 -157 -54.5s-57 -84.166 -57 -143.499h-118z" />
    <glyph glyph-name="Edblgrave" unicode="&#x204;" horiz-adv-x="1197" 
d="M543 1577h-157l-326 297h174zM907 1577h-158l-326 297h174zM1057 124v-124h-872v1443h872v-124h-735v-519h698v-122h-698v-554h735z" />
    <glyph glyph-name="edblgrave" unicode="&#x205;" horiz-adv-x="1174" 
d="M595 979c-98 0 -178.333 -33.5 -241 -100.5s-97 -155.833 -103 -266.5h671c-1.33301 111.333 -31.833 200.333 -91.5 267s-138.167 100 -235.5 100zM909 266h133.003c-26.667 -88 -79.334 -157.333 -158.001 -208s-174.334 -76 -287.001 -76
c-148 0 -265.333 50.167 -352 150.5s-130 235.5 -130 405.5c0 169.333 43.5 304.5 130.5 405.5s203.833 151.5 350.5 151.5c143.333 0 256.333 -47.667 339 -143s124 -225.333 124 -390v-58h-809v-6c3.33301 -122 36.5 -219 99.5 -291s146.5 -108 250.5 -108
c76 0 140.667 14.5 194 43.5s91.666 70.167 114.999 123.5zM517.003 1267h-141l-271 327h161zM859.003 1267h-140l-271 327h161z" />
    <glyph glyph-name="Einvertedbreve" unicode="&#x206;" horiz-adv-x="1197" 
d="M1057 124v-124h-872v1443h872v-124h-735v-519h698v-122h-698v-554h735zM289 1577c0 83.333 29.833 149.833 89.5 199.5s140.5 74.5 242.5 74.5s182.833 -24.833 242.5 -74.5s89.5 -116.167 89.5 -199.5h-118c0 53.333 -19.333 96 -58 128s-90.667 48 -156 48
s-117.333 -16 -156 -48s-58 -74.667 -58 -128h-118z" />
    <glyph glyph-name="einvertedbreve" unicode="&#x207;" horiz-adv-x="1174" 
d="M595 979c-98 0 -178.333 -33.5 -241 -100.5s-97 -155.833 -103 -266.5h671c-1.33301 111.333 -31.833 200.333 -91.5 267s-138.167 100 -235.5 100zM909 266h133.003c-26.667 -88 -79.334 -157.333 -158.001 -208s-174.334 -76 -287.001 -76
c-148 0 -265.333 50.167 -352 150.5s-130 235.5 -130 405.5c0 169.333 43.5 304.5 130.5 405.5s203.833 151.5 350.5 151.5c143.333 0 256.333 -47.667 339 -143s124 -225.333 124 -390v-58h-809v-6c3.33301 -122 36.5 -219 99.5 -291s146.5 -108 250.5 -108
c76 0 140.667 14.5 194 43.5s91.666 70.167 114.999 123.5zM263.003 1228c0 88.667 29.833 160.5 89.5 215.5s140.5 82.5 242.5 82.5s182.833 -27.5 242.5 -82.5s89.5 -126.833 89.5 -215.5h-118c0 59.333 -19 107.166 -57 143.499s-90.333 54.5 -157 54.5
s-119 -18.167 -157 -54.5s-57 -84.166 -57 -143.499h-118z" />
    <glyph glyph-name="Idblgrave" unicode="&#x208;" horiz-adv-x="507" 
d="M322 0h-137v1443h137v-1443zM176 1577h-157l-326 297h174zM540 1577h-158l-326 297h174z" />
    <glyph glyph-name="idblgrave" unicode="&#x209;" horiz-adv-x="489" 
d="M179 0v1077h131v-1077h-131zM166 1267h-141l-271 327h161zM508 1267h-140l-271 327h161z" />
    <glyph glyph-name="Iinvertedbreve" unicode="&#x20a;" horiz-adv-x="507" 
d="M322 0h-137v1443h137v-1443zM-78 1577c0 83.333 29.833 149.833 89.5 199.5s140.5 74.5 242.5 74.5s182.833 -24.833 242.5 -74.5s89.5 -116.167 89.5 -199.5h-118c0 53.333 -19.333 96 -58 128s-90.667 48 -156 48s-117.333 -16 -156 -48s-58 -74.667 -58 -128h-118z
" />
    <glyph glyph-name="iinvertedbreve" unicode="&#x20b;" horiz-adv-x="489" 
d="M179 0v1077h131v-1077h-131zM-88 1228c0 88.667 29.833 160.5 89.5 215.5s140.5 82.5 242.5 82.5s182.833 -27.5 242.5 -82.5s89.5 -126.833 89.5 -215.5h-118c0 59.333 -19 107.166 -57 143.499s-90.333 54.5 -157 54.5s-119 -18.167 -157 -54.5
s-57 -84.166 -57 -143.499h-118z" />
    <glyph glyph-name="Odblgrave" unicode="&#x20c;" horiz-adv-x="1561" 
d="M703 1577h-157l-326 297h174zM1067 1577h-158l-326 297h174zM781 1473c202 0 361.169 -67.333 477.502 -202s174.5 -317.667 174.5 -549s-58.167 -414.5 -174.5 -549.5s-275.5 -202.5 -477.5 -202.5c-202.667 0 -362.334 67.5 -479.001 202.5s-175 318.167 -175 549.5
c0 230.667 58.667 413.5 176 548.5s276.666 202.5 477.999 202.5zM781.002 1346c-157.333 0 -282.333 -56.167 -375 -168.5s-139 -264.166 -139 -455.499c0 -190.667 46 -342.5 138 -455.5s217.333 -169.5 376 -169.5c158 0 282.833 56.5 374.5 169.5
s137.5 264.833 137.5 455.5c0 191.333 -45.833 343.166 -137.5 455.499s-216.5 168.5 -374.5 168.5z" />
    <glyph glyph-name="odblgrave" unicode="&#x20d;" horiz-adv-x="1208" 
d="M604 101c110.667 0 197.334 38.833 260.001 116.5s94 184.834 94 321.501s-31.333 243.834 -94 321.501s-149.334 116.5 -260.001 116.5s-197.334 -38.833 -260.001 -116.5s-94 -184.834 -94 -321.501s31.333 -243.834 94 -321.501s149.334 -116.5 260.001 -116.5z
M604 -18c-150.667 0 -269.834 49.833 -357.501 149.5s-131.5 235.5 -131.5 407.5s43.833 307.667 131.5 407s206.834 149 357.501 149s270 -49.667 358 -149s132 -235 132 -407s-44 -307.833 -132 -407.5s-207.333 -149.5 -358 -149.5zM526 1267h-141l-271 327h161z
M868 1267h-140l-271 327h161z" />
    <glyph glyph-name="Oinvertedbreve" unicode="&#x20e;" horiz-adv-x="1561" 
d="M449 1577c0 83.333 29.833 149.833 89.5 199.5s140.5 74.5 242.5 74.5s182.833 -24.833 242.5 -74.5s89.5 -116.167 89.5 -199.5h-118c0 53.333 -19.333 96 -58 128s-90.667 48 -156 48s-117.333 -16 -156 -48s-58 -74.667 -58 -128h-118zM781 1473
c202 0 361.169 -67.333 477.502 -202s174.5 -317.667 174.5 -549s-58.167 -414.5 -174.5 -549.5s-275.5 -202.5 -477.5 -202.5c-202.667 0 -362.334 67.5 -479.001 202.5s-175 318.167 -175 549.5c0 230.667 58.667 413.5 176 548.5s276.666 202.5 477.999 202.5z
M781.002 1346c-157.333 0 -282.333 -56.167 -375 -168.5s-139 -264.166 -139 -455.499c0 -190.667 46 -342.5 138 -455.5s217.333 -169.5 376 -169.5c158 0 282.833 56.5 374.5 169.5s137.5 264.833 137.5 455.5c0 191.333 -45.833 343.166 -137.5 455.499
s-216.5 168.5 -374.5 168.5z" />
    <glyph glyph-name="oinvertedbreve" unicode="&#x20f;" horiz-adv-x="1208" 
d="M604 101c110.667 0 197.334 38.833 260.001 116.5s94 184.834 94 321.501s-31.333 243.834 -94 321.501s-149.334 116.5 -260.001 116.5s-197.334 -38.833 -260.001 -116.5s-94 -184.834 -94 -321.501s31.333 -243.834 94 -321.501s149.334 -116.5 260.001 -116.5z
M604 -18c-150.667 0 -269.834 49.833 -357.501 149.5s-131.5 235.5 -131.5 407.5s43.833 307.667 131.5 407s206.834 149 357.501 149s270 -49.667 358 -149s132 -235 132 -407s-44 -307.833 -132 -407.5s-207.333 -149.5 -358 -149.5zM272 1228
c0 88.667 29.833 160.5 89.5 215.5s140.5 82.5 242.5 82.5s182.833 -27.5 242.5 -82.5s89.5 -126.833 89.5 -215.5h-118c0 59.333 -19 107.166 -57 143.499s-90.333 54.5 -157 54.5s-119 -18.167 -157 -54.5s-57 -84.166 -57 -143.499h-118z" />
    <glyph glyph-name="Rdblgrave" unicode="&#x210;" horiz-adv-x="1309" 
d="M513 1577h-157l-326 297h174zM877 1577h-158l-326 297h174zM322 1321v-608h369c104.667 0 186.167 26.667 244.5 80s87.5 128 87.5 224c0 94.667 -30 169 -90 223s-142.667 81 -248 81h-363zM322 591l0.000976562 -591.001h-137v1443h517
c140.667 0 252.667 -38.167 336 -114.5s125 -178.833 125 -307.5c0 -102 -27.333 -189.167 -82 -261.5s-130.334 -121.166 -227.001 -146.499l350 -613h-160l-332 591h-21h-369z" />
    <glyph glyph-name="rdblgrave" unicode="&#x211;" horiz-adv-x="754" 
d="M169 0l-0.000976562 1077h125v-177h13c18 58.667 54.667 105.834 110 141.501s118.666 53.5 189.999 53.5c42.667 0 76.334 -3 101.001 -9v-131c-30 8.66699 -69 13 -117 13c-83.333 0 -152.666 -28.167 -207.999 -84.5s-83 -126.833 -83 -211.5v-672h-131zM295.999 1267
h-141l-271 327h161zM637.999 1267h-140l-271 327h161z" />
    <glyph glyph-name="Rinvertedbreve" unicode="&#x212;" horiz-adv-x="1309" 
d="M322 1321v-608h369c104.667 0 186.167 26.667 244.5 80s87.5 128 87.5 224c0 94.667 -30 169 -90 223s-142.667 81 -248 81h-363zM322 591l0.000976562 -591.001h-137v1443h517c140.667 0 252.667 -38.167 336 -114.5s125 -178.833 125 -307.5
c0 -102 -27.333 -189.167 -82 -261.5s-130.334 -121.166 -227.001 -146.499l350 -613h-160l-332 591h-21h-369zM259.001 1577c0 83.333 29.833 149.833 89.5 199.5s140.5 74.5 242.5 74.5s182.833 -24.833 242.5 -74.5s89.5 -116.167 89.5 -199.5h-118
c0 53.333 -19.333 96 -58 128s-90.667 48 -156 48s-117.333 -16 -156 -48s-58 -74.667 -58 -128h-118z" />
    <glyph glyph-name="rinvertedbreve" unicode="&#x213;" horiz-adv-x="754" 
d="M169 0l-0.000976562 1077h125v-177h13c18 58.667 54.667 105.834 110 141.501s118.666 53.5 189.999 53.5c42.667 0 76.334 -3 101.001 -9v-131c-30 8.66699 -69 13 -117 13c-83.333 0 -152.666 -28.167 -207.999 -84.5s-83 -126.833 -83 -211.5v-672h-131zM41.999 1228
c0 88.667 29.833 160.5 89.5 215.5s140.5 82.5 242.5 82.5s182.833 -27.5 242.5 -82.5s89.5 -126.833 89.5 -215.5h-118c0 59.333 -19 107.166 -57 143.499s-90.333 54.5 -157 54.5s-119 -18.167 -157 -54.5s-57 -84.166 -57 -143.499h-118z" />
    <glyph glyph-name="Udblgrave" unicode="&#x214;" horiz-adv-x="1494" 
d="M669 1577h-157l-326 297h174zM1033 1577h-158l-326 297h174zM325 1443l0.000976562 -934c0 -122 38 -220.667 114 -296s178.667 -113 308 -113s232 37.667 308 113s114 174 114 296v934h137v-943c0 -158 -50.333 -285.167 -151 -381.5s-236.667 -144.5 -408 -144.5
c-170.667 0 -306.334 48.167 -407.001 144.5s-151 223.5 -151 381.5v943h136z" />
    <glyph glyph-name="udblgrave" unicode="&#x215;" horiz-adv-x="1211" 
d="M1038 1077v-1077h-125v194h-12c-26.667 -66.667 -71.5 -118.667 -134.5 -156s-137.5 -56 -223.5 -56c-120 0 -213.833 35 -281.5 105s-101.5 166.667 -101.5 290v700h131v-667c0 -100 24.5 -176.333 73.5 -229s119.5 -79 211.5 -79c100.667 0 181 30.333 241 91
s90 142 90 244v640h131zM525 1267h-141l-271 327h161zM867 1267h-140l-271 327h161z" />
    </font>
</defs>
</svg>
